<?xml version="1.0" encoding="UTF-8" standalone="no"?>
<!-- Generator: Adobe Illustrator 21.1.0, SVG Export Plug-In . SVG Version: 6.00 Build 0)  -->

<svg
   xmlns:dc="http://purl.org/dc/elements/1.1/"
   xmlns:cc="http://creativecommons.org/ns#"
   xmlns:rdf="http://www.w3.org/1999/02/22-rdf-syntax-ns#"
   xmlns:svg="http://www.w3.org/2000/svg"
   xmlns="http://www.w3.org/2000/svg"
   xmlns:sodipodi="http://sodipodi.sourceforge.net/DTD/sodipodi-0.dtd"
   xmlns:inkscape="http://www.inkscape.org/namespaces/inkscape"
   version="1.1"
   id="Layer_1"
   x="0px"
   y="0px"
   viewBox="0 0 1296 1728"
   style="enable-background:new 0 0 1296 1728;"
   xml:space="preserve"
   sodipodi:docname="abarrotes.svg"
   inkscape:export-filename="/home/victor/Desktop/dulceria-valdez/photos/abarrotes.png"
   inkscape:export-xdpi="11.236925"
   inkscape:export-ydpi="11.236925"
   inkscape:version="0.92.4 5da689c313, 2019-01-14"><metadata
   id="metadata11"><rdf:RDF><cc:Work
       rdf:about=""><dc:format>image/svg+xml</dc:format><dc:type
         rdf:resource="http://purl.org/dc/dcmitype/StillImage" /></cc:Work></rdf:RDF></metadata><defs
   id="defs9" /><sodipodi:namedview
   pagecolor="#ffffff"
   bordercolor="#666666"
   borderopacity="1"
   objecttolerance="10"
   gridtolerance="10"
   guidetolerance="10"
   inkscape:pageopacity="0"
   inkscape:pageshadow="2"
   inkscape:window-width="1680"
   inkscape:window-height="996"
   id="namedview7"
   showgrid="false"
   inkscape:zoom="0.44887765"
   inkscape:cx="458.68513"
   inkscape:cy="865.88204"
   inkscape:window-x="0"
   inkscape:window-y="28"
   inkscape:window-maximized="1"
   inkscape:current-layer="Layer_1" />
<g
   id="g4"
   style="fill:#255ec6;fill-opacity:1"
   inkscape:export-filename="/home/victor/Desktop/dulceria-valdez/photos/abarrotes.png"
   inkscape:export-xdpi="11.236925"
   inkscape:export-ydpi="11.236925">
	<path
   d="M771.9,1174.2c101.7,0,203.3,0,305,0c12.7,0,22.2,5.1,27.9,16.6c8.9,18.1-2.8,39.2-22.7,41.4c-3.1,0.3-6.3,0.5-9.5,0.5   c-22.7,0-45.3,0-68,0c-5.9,0-6.7,1.2-4.4,6.4c21.5,48.7,7,106.5-37.7,137.8c-14.1,9.9-29.7,16.1-46.9,18.3   c-43.8,5.8-78.7-9.9-105.1-44.5c-12.9-16.9-19.5-36.4-20.7-57.9c-1.1-19.2,1.7-37.4,10-54.8c1.6-3.5,0.6-5.5-3.5-5.4   c-0.8,0-1.7,0-2.5,0c-48.7,0-97.3,0-146,0c-7.7,0-8.1,0.7-5.2,7.5c21.4,49.6,5.7,105.9-38.6,137c-15.6,10.9-33,17-51.9,18.8   c-53.1,5.2-98.4-28.1-113.9-72.1c-10.5-29.6-9.2-58.9,4.3-87.4c2.3-4.9,1.9-5.4-3.5-6.9c-45.9-13.1-77.2-41.8-90.5-88   c-4.6-15.9-5.6-32.7-8.1-49.1c-2-13.2-3.6-26.4-5.3-39.6c-1.6-12.4-3.2-24.7-4.8-37.1c-1.7-13-3.5-26-5.3-39   c-1.6-12-3.2-24.1-4.8-36.1c-1.7-12.9-3.3-25.7-5-38.6c-1.7-13.2-3.4-26.4-5.2-39.5c-1.6-12.4-3.3-24.7-4.9-37.1   c-1.7-13-3.4-26-5.1-39.1c-1.7-12.5-3.4-25-5-37.6c-1.7-12.5-3.3-25.1-5-37.6c-1.7-12.9-3.4-25.7-5.1-38.6c-2.3-17.3-4.7-34.6-7-52   c-3.2-23.8-6.3-47.5-9.5-71.3c-2.4-18.5-4.6-37-7.3-55.4c-2.8-19.3-3.4-39.3-13.6-56.8c-1.9-3.2-3.7-6.3-5.9-9.3   c-7.3-9.9-16-16.1-29.4-15c-13.7,1.1-27.6,0.3-41.5,0.2c-22.3-0.1-29.5-12.7-33-27.6c-2.3-10.1,8.9-26.3,20.1-29.2   c5.9-1.5,12-2.4,18.1-2.6c11-0.4,22,0.2,33-0.2c39.8-1.5,67.3,17.9,87.1,50.7c12.4,20.5,18.2,43.1,20.8,66.7   c1.6,14.5,3.8,29,6.1,43.5c0.2,1.5,2.5,3.3,4.2,3.8c1.9,0.7,4.3,0.2,6.4,0.2c240.8,0,481.7,0,722.5,0c18.7,0,36.9,2,53.7,11.1   c25.6,13.9,42.3,34.7,49.8,63.1c4.6,17.2,3.3,34.3,1,51.5c-1.9,14-3.7,28-5.6,42c-1.7,12.4-3.5,24.7-5.1,37   c-1.7,12.7-3.2,25.4-4.9,38.1c-1.6,12.4-3.3,24.7-5,37.1c-1.7,12.4-3.3,24.7-5,37.1c-1.8,13.5-3.6,27-5.4,40.5   c-1.6,12.2-3.2,24.4-4.8,36.6c-1.6,12.4-2.8,24.8-4.8,37.1c-1.9,11.6-3.4,23.5-7.2,34.6c-14,40.6-42.5,66.9-83.1,79.9   c-11.8,3.8-24,4.8-36.5,4.8c-80.2-0.1-160.3-0.1-240.5-0.1c-116,0-232,0-348,0c-1.5,0-3,0-4.5,0.1c-3,0.1-4.1,1.6-3.6,4.6   c2.4,16.3,3.9,32.7,7.1,48.9c4.7,23.6,19.9,39.2,41.9,47.7c7.6,2.9,16.2,4.1,24.4,4.1C570.6,1174.3,671.2,1174.2,771.9,1174.2z    M453,576.8c-38.5,0-77,0-115.5,0c-6.3,0-6.8,1-5.8,7.1c1.3,7.5,2.1,15.1,3.1,22.7c1.6,12.4,3.1,24.7,4.7,37.1   c1.7,12.8,3.6,25.7,5.3,38.5c1.7,12.5,3.2,25.1,4.8,37.6c1.7,12.5,3.6,25,5.1,37.5c0.8,6.3,0.8,6.7,7.2,6.7c72.5,0,145,0,217.5,0   c6.3,0,6.9-0.4,6.4-7c-1.9-29.3-3.9-58.5-5.8-87.8c-1.8-27.8-3.5-55.5-5.1-83.3c-0.5-8.8-1-9.3-9.6-9.3   C528,576.8,490.5,576.8,453,576.8z M476.9,822.8c-35.2,0-70.3,0-105.5,0c-7.7,0-8,0.4-6.9,7.9c0.8,5.6,1.5,11.2,2.2,16.8   c2.9,22.9,5.7,45.9,8.7,68.8c3.8,29.2,7.9,58.4,11.7,87.6c0.6,4.5,2.2,6.4,6.9,6.4c67.3-0.1,134.6-0.1,201.9-0.1   c5.6,0,6.4-0.8,6.1-6.5c-1.3-20.4-2.7-40.9-4-61.3c-2.4-37.2-4.7-74.4-7-111.7c-0.5-7.4-1-8-8.3-8   C547.6,822.8,512.3,822.8,476.9,822.8z M981.4,764.1c32.7,0,65.3-0.1,98,0.1c4.5,0,6.7-1.1,7.1-6c0.4-5.6,1.5-11.2,2.3-16.8   c1.8-13.7,3.6-27.4,5.4-41c1.6-12.4,3.3-24.7,5-37.1c1.7-12.4,3.7-24.7,4.8-37.1c0.6-6.4,0.8-13.3-1-19.3   c-5.9-19.7-20.6-30.1-41.4-30.1c-55.2-0.1-110.3,0-165.5,0c-6.6,0-7.5,0.8-7.9,7.3c-2.1,30.9-4.1,61.8-6.1,92.7   c-1.7,26.6-3.3,53.2-4.9,79.8c-0.4,7.1-0.1,7.6,7.3,7.6C916.7,764.1,949,764.1,981.4,764.1z M932.3,1010.2c20.5,0,41,0.3,61.5-0.1   c7.2-0.1,14.8-0.9,21.6-3.3c22.6-7.9,38.4-23.3,43.7-46.8c4.1-18.3,5.7-37.2,8.2-55.8c3.4-24.6,6.5-49.2,9.8-73.8   c0.9-6.8,0.4-7.7-6.4-7.7c-63.7,0-127.3,0-191,0c-6.8,0-7.4,0.7-7.9,7.3c-1.3,19.6-2.6,39.2-3.9,58.8c-2.4,37.9-4.8,75.8-7.1,113.7   c-0.4,7.1,0,7.6,7.4,7.6C889.6,1010.2,911,1010.2,932.3,1010.2z M732,576.8c-30.3,0-60.7,0-91,0c-8.4,0-8.7,0.1-8.2,8.3   c1,15,2.2,29.9,3.2,44.8c1.1,17.3,1.9,34.6,3.1,51.9c1.7,24.8,3.7,49.5,5.4,74.2c0.6,8.1,0.3,8.1,8.7,8.1c52.2,0,104.3,0,156.5,0   c1.3,0,2.7,0,4,0c3.1,0,4.4-1.5,4.6-4.6c0.5-7.1,1.2-14.3,1.7-21.4c1.6-24.8,3-49.5,4.7-74.3c1.7-26.3,3.7-52.5,5.4-78.8   c0.5-8,0.2-8.3-7.7-8.3C792.3,576.8,762.2,576.8,732,576.8z M732,822.8c-25.2,0-50.3,0-75.5,0c-7.5,0-8,0.4-7.5,8   c1.3,21.1,2.7,42.2,4.1,63.3c0.7,10.6,1.4,21.2,2.2,31.9c1.8,25.4,3.7,50.8,5.4,76.2c0.5,7.8,0.4,8,8.4,8c41.6,0,83.3,0,124.9,0   c1.2,0,2.3,0,3.5,0c3.1,0,4.5-1.6,4.7-4.6c1.3-21.4,2.7-42.8,4.1-64.3c0.8-12.3,1.4-24.6,2.3-36.9c1.8-24.7,3.7-49.4,5.4-74.2   c0.5-6.8-0.2-7.4-7.1-7.4C781.9,822.8,756.9,822.8,732,822.8z M899.4,1337.9c28.6,0,52.6-23.9,52.6-52.5   c0-28.7-23.9-52.9-52.5-52.6c-30.1,0.3-52.3,24.4-52.3,52.7C847.3,1315.8,872.8,1338.3,899.4,1337.9z M541.4,1337.9   c28.8,0,52.5-23.6,52.5-52.5c0-28.8-23.6-52.9-52.3-52.7c-29.2,0.2-52.3,23.1-52.2,52.7C489.5,1317.5,515.9,1338.3,541.4,1337.9z"
   id="path2"
   style="fill:#255ec6;fill-opacity:1" />
</g>
</svg>