<?xml version="1.0" encoding="UTF-8" standalone="no"?>
<!-- Generator: Adobe Illustrator 21.1.0, SVG Export Plug-In . SVG Version: 6.00 Build 0)  -->

<svg
   xmlns:dc="http://purl.org/dc/elements/1.1/"
   xmlns:cc="http://creativecommons.org/ns#"
   xmlns:rdf="http://www.w3.org/1999/02/22-rdf-syntax-ns#"
   xmlns:svg="http://www.w3.org/2000/svg"
   xmlns="http://www.w3.org/2000/svg"
   xmlns:sodipodi="http://sodipodi.sourceforge.net/DTD/sodipodi-0.dtd"
   xmlns:inkscape="http://www.inkscape.org/namespaces/inkscape"
   version="1.1"
   id="Layer_1"
   x="0px"
   y="0px"
   viewBox="0 0 1296 1728"
   style="enable-background:new 0 0 1296 1728;"
   xml:space="preserve"
   sodipodi:docname="candy.svg"
   inkscape:version="0.92.4 5da689c313, 2019-01-14"><metadata
   id="metadata19"><rdf:RDF><cc:Work
       rdf:about=""><dc:format>image/svg+xml</dc:format><dc:type
         rdf:resource="http://purl.org/dc/dcmitype/StillImage" /></cc:Work></rdf:RDF></metadata><defs
   id="defs17" /><sodipodi:namedview
   pagecolor="#ffffff"
   bordercolor="#666666"
   borderopacity="1"
   objecttolerance="10"
   gridtolerance="10"
   guidetolerance="10"
   inkscape:pageopacity="0"
   inkscape:pageshadow="2"
   inkscape:window-width="1680"
   inkscape:window-height="996"
   id="namedview15"
   showgrid="false"
   inkscape:zoom="0.44887765"
   inkscape:cx="630.03756"
   inkscape:cy="864"
   inkscape:window-x="0"
   inkscape:window-y="28"
   inkscape:window-maximized="1"
   inkscape:current-layer="Layer_1" />
<g
   id="g12"
   style="fill:#255ec6;fill-opacity:1"
   inkscape:export-filename="/home/victor/Desktop/dulceria-valdez/photos/candy.png"
   inkscape:export-xdpi="9.1286135"
   inkscape:export-ydpi="9.1286135">
	<path
   d="M468.8,1193.7c0-41,0-82,0-123c0-17.1,8.9-25.2,26.1-24c43.4,3,79.9,20,108.2,53.5c7.5,8.8,7.6,9,11.4-1.6   c15.2-41.2,39.2-76.5,71.5-106.2c23-21.2,48.9-37.7,77.6-50.1c17.9-7.8,36.4-14,55.5-17.4c25.7-4.5,51.7-8.2,78-4.1   c14.3,2.2,28.7,3.4,42.8,6.6c18.8,4.2,36.9,10.9,54.4,19.3c27.7,13.3,52.6,30.6,74.5,52.1c21.9,21.5,40,45.9,53.3,73.7   c4.9,10.3,8.9,21.1,13.3,31.7c1.3,3.1,3.3,3.1,5.5,1.2c1.5-1.3,2.5-3.1,3.8-4.6c17.8-21.6,40.2-36.8,66.5-46   c15-5.3,30.7-7.7,46.5-8.1c14.2-0.3,21.3,9,22.8,22.8c0.9,8.1,0.2,16.3,0.2,24.5c0,73.8,0.1,147.7-0.1,221.5   c-0.1,17.1-10.5,26.6-27.4,25.2c-45-3.7-82.6-21.5-111-57.3c-1-1.3-2.9-2.3-4.5-2.4c-0.8,0-2,2.2-2.5,3.6   c-7.1,20.2-16.5,39.2-28.2,57.1c-25.9,40-60,71.1-102,93.5c-18.8,10-38.6,17.8-59.3,23.1c-26.1,6.7-52.6,10.5-79.5,9.4   c-24.6-1-48.8-4.8-72.6-12c-38.5-11.7-72.9-30.5-103-57c-32.2-28.4-56.9-62.3-72.8-102.4c-1.7-4.3-3.3-8.7-4.7-13.1   c-1-2.9-2.6-3.3-4.9-1.7c-1.3,1-2.4,2.3-3.4,3.6c-18,22.1-40.5,37.9-67.4,47.3c-14.7,5.1-30,7.3-45.5,8.3   c-13.6,0.9-22.9-8.2-22.9-21.9C468.8,1277,468.8,1235.4,468.8,1193.7z M637.1,1192.9c-0.8,129.8,107.1,235.2,236.9,235.4   c130,0.2,236.9-106.4,237.1-233.9c0.1-130.3-106.9-234.1-233.8-235.6C743.4,957.2,636.7,1065.8,637.1,1192.9z M508.9,1193.4   c0,32.5,0,65,0,97.5c0,7.3,2.4,9.3,9.1,6.4c11.1-4.8,22.6-9.1,32.6-15.8c26.1-17.5,41.4-42.7,45.8-73.6c2.3-16,1-32.1-4.6-47.7   c-12.9-36.3-38.2-59.2-74.5-70.5c-6.7-2.1-8.5-0.6-8.5,6.3C508.9,1128.4,508.9,1160.9,508.9,1193.4z M1239.2,1193.5   c0-32.3,0-64.6,0-97c0-7.7-2.1-9.4-9.3-6.6c-8.1,3.1-16.3,5.9-23.8,10.2c-30.8,17.6-49.2,44.4-54.4,79.4   c-2.8,18.8-0.3,37.4,7.5,55.2c14.1,32.3,38.6,52.7,71.8,63c6.6,2,8.2,0.5,8.2-6.6C1239.2,1258.5,1239.2,1226,1239.2,1193.5z"
   id="path2"
   style="fill:#255ec6;fill-opacity:1" />
	<path
   d="M361.4,1183.2c0-79.2,0-158.3,0-237.5c0-8.9-0.5-9.4-9.6-9.9c-21.2-1.1-41.9-5.1-62.3-10.4   c-41.6-10.7-80.1-28.3-115.3-52.9c-37.6-26.2-69.2-58.3-94.7-96.4c-17.4-25.9-31-53.6-41-83c-6.8-19.8-12.2-40.1-14.5-61   c-1.7-15.7-3.8-31.4-4.8-47.2c-0.6-9.1,0.2-18.3,1.2-27.4c2-17.8,3.8-35.8,7.1-53.4c2.6-13.8,6.9-27.4,11.3-40.8   c7.7-23.3,18.2-45.3,30.7-66.4c17.7-29.9,39.3-56.6,64.7-80.2c22.8-21.2,47.9-39.2,75.3-53.8c19.2-10.3,39.2-18.7,60-25.5   c22.2-7.4,45-11.7,68-15.2c10.2-1.5,20.6-1.2,30.9-2.5c19.2-2.5,38.2,0.7,57,2.7c19.5,2.1,38.9,6.9,58,11.9   c35.8,9.4,68.8,25.4,99.7,45.8c26.3,17.3,49.7,38,70.7,61.4c22.4,25,40.7,52.7,55.3,82.8c9.5,19.6,17.5,39.9,22.5,61.2   c3.8,16.3,8.1,32.7,9.9,49.2c2.5,23,4.7,46.1,1.5,69.3c-1.6,11.9-1.9,23.9-4.1,35.7c-2.4,13.2-5.4,26.4-9.6,39.1   c-5.6,17.2-11.7,34.3-19.1,50.8c-14.3,32.1-34.1,60.9-57.6,87.1c-28.3,31.6-61.2,57.2-98.5,77.3c-22,11.9-45,21.3-69,28.3   c-24.8,7.2-50,12.1-75.9,13.5c-6.5,0.3-7.1,1.3-7.1,9.2c0,158.7,0,317.3-0.1,476c0,3.9-0.5,8-1.7,11.7   c-2.9,8.8-11.8,14.6-19.8,13.7c-9.5-1.1-17-8.4-18.2-17.9c-0.5-3.6-0.5-7.3-0.5-11C361.4,1339.6,361.4,1261.4,361.4,1183.2z    M381.5,258.3c-27.6,0.8-54.9,3.5-81.4,11.5c-17,5.1-34.1,10.3-50.3,17.3c-31.2,13.5-59.5,31.9-84.7,54.8   c-18.2,16.5-34.6,34.6-48.6,54.8c-15.2,21.9-28.2,45.2-37,70.5c-5.4,15.7-10.8,31.5-14,47.7c-3.4,17.2-5,34.9-6,52.4   c-1.6,25.7,0.7,51.3,6.1,76.4c4.2,19.3,10.1,38.1,17.8,56.5c12.6,30.4,29.5,58.2,50.8,83.1c34.7,40.7,76.8,71.4,126.6,91.5   c29,11.8,59.1,19.2,90.1,22.1c39.7,3.8,79.1,0.6,117.7-10.3c20.8-5.9,40.9-13.6,60.2-23.5c39.3-20,73-46.9,101.3-80.5   c21.8-25.9,39.1-54.7,51.5-86.2c5.4-13.9,10-28.2,13.8-42.6c3-11.7,4.4-23.8,6.2-35.8c4.7-30.1,3.6-60.2-1.2-90   c-2.6-16.5-7.6-32.6-12.3-48.7c-6.4-22-16.2-42.6-27.9-62.1c-32.6-54.1-77-95.6-133.5-124.1c-30.4-15.3-62.5-25.3-95.9-30.5   C414.4,260.1,397.9,259.7,381.5,258.3z"
   id="path4"
   style="fill:#255ec6;fill-opacity:1" />
	<path
   d="M402.6,1500.2c-0.8,6.4-0.9,11.8-2.2,16.8c-2.7,10.6-11.2,14.4-18.3,14.3c-8.7-0.1-17.1-3.8-19.5-15.4   c-2.2-10.7-2.6-21.8,0.9-32.5c2.4-7.5,9.8-12.4,18.1-12.6c7.5-0.2,15.7,4.7,17.9,12C401.3,1488.6,401.8,1494.9,402.6,1500.2z"
   id="path6"
   style="fill:#255ec6;fill-opacity:1" />
	<path
   d="M683,1203.8c-0.2-17.7,3.7-24.9,12.3-28c13.8-5.1,26.7,3.8,27.7,18.6c0.7,10.8,1.2,21.6,3.4,32.2   c3,14.5,8.7,28.3,16.2,41.1c14.6,24.9,34.4,44.4,59.9,57.9c20.4,10.8,42,17.2,65.3,17.7c4.9,0.1,9.9,1,14.6,2.5   c6.7,2.2,11.7,10.6,11.5,17.8c-0.2,7.5-5.3,15.2-12.1,17.4c-3.7,1.2-7.8,2.2-11.6,2c-63.6-3.2-115.3-29.2-152.9-81.3   c-13.7-19-23.3-40-28.7-62.6C685.4,1225.6,684.2,1211.7,683,1203.8z"
   id="path8"
   style="fill:#255ec6;fill-opacity:1" />
	<path
   d="M407.8,383.8c-56.4,1.2-104.2,21.8-141.9,64.2c-12.5,14-21.4,30.4-27.3,48.3c-6.1,18.4-9,37.2-7.3,56.5   c1.5,17.3,5.7,34,13.3,49.8c12.8,26.6,30.7,48.6,57.3,62.5c24.2,12.6,49.6,16.3,76.4,10.6c25.2-5.4,46.2-17.6,62.8-37.1   c16.9-19.8,22.9-43.5,18.5-68.6c-4.5-26.5-18.4-47.7-43.3-59.9c-29.7-14.6-67.3-2.9-82.8,24.8c-13.6,24.2-1.9,55.8,22.6,64.6   c16.4,5.9,36.1-2.6,42-18.9c3.6-9.9-4.5-29.8-20-26.6c-3.7,0.8-7.1,3.3-10.4,5.5c-7.5,5-17.2,4.8-24.2-0.7   c-8.1-6.4-9.3-20.2-2.1-27.6c14.1-14.4,31-20,50.9-15.7c21.5,4.6,35.3,17.9,42.1,38.3c11.1,33.3-4.2,64.7-34.8,79.3   c-16.4,7.8-33.6,9.8-51,5.3c-23.8-6.2-40.5-21.4-51.5-43.2c-8.4-16.5-10.3-34.3-7.6-52c3.6-22.8,15.2-41.6,33.8-55.9   c10.5-8.1,22.1-14.2,34.7-18.1c12.8-4,26.2-4.8,39.5-3.7c36.5,3,63.5,21.4,83.2,51.6c12.9,19.7,19,41.5,19.6,64.6   c0.6,23.1-5,45.2-17,65.3c-18.5,31-45.9,51.1-79.6,62.4c-21.9,7.4-44.6,9.9-67.9,6.7c-58.2-7.9-98-40.4-124.8-91.1   c-9.2-17.4-14.9-36-17.7-55.3c-1.7-11.8-1.7-23.9-1.4-35.9c1.3-43.6,17.1-81.6,45.9-114.2c20.4-23.2,45.1-40.9,73.1-53.7   c17.7-8.1,36.2-13.8,55.4-17.3c24.7-4.5,49.4-5.1,74.1-1.5c46.6,6.7,87.8,25.7,122.6,57.7c26.6,24.4,47.7,53,62.5,85.8   c7.2,16,12.2,33,17.4,49.7c6.7,21.6,8.4,44.1,8.4,66.6c0,23-2.5,45.7-8.1,68.2c-7.8,31-19.9,60-38.1,86.2   c-10.5,15.1-22.7,29.2-35.1,42.8c-11.2,12.3-29.7,6.8-33.8-9.4c-1.8-7.3,1.5-13.2,6.1-18.6c9.8-11.6,20-22.8,28.8-35.1   c12.5-17.4,22.1-36.4,28.2-57c3.7-12.4,7.6-24.9,9.7-37.6c3.3-21,5.6-42.3,1.6-63.6c-2.3-12.1-3.1-24.5-6.6-36.2   c-4.3-14.8-9.8-29.4-16.4-43.3c-13.8-29.1-33.3-54-57.9-74.9c-17.8-15.1-37.8-26.4-60-33.9C449.8,387.5,429.2,383.4,407.8,383.8z"
   id="path10"
   style="fill:#255ec6;fill-opacity:1" />
</g>
</svg>