<?xml version="1.0" encoding="UTF-8" standalone="no"?>
<!-- Generator: Adobe Illustrator 21.1.0, SVG Export Plug-In . SVG Version: 6.00 Build 0)  -->

<svg
   xmlns:dc="http://purl.org/dc/elements/1.1/"
   xmlns:cc="http://creativecommons.org/ns#"
   xmlns:rdf="http://www.w3.org/1999/02/22-rdf-syntax-ns#"
   xmlns:svg="http://www.w3.org/2000/svg"
   xmlns="http://www.w3.org/2000/svg"
   xmlns:sodipodi="http://sodipodi.sourceforge.net/DTD/sodipodi-0.dtd"
   xmlns:inkscape="http://www.inkscape.org/namespaces/inkscape"
   version="1.1"
   id="Layer_1"
   x="0px"
   y="0px"
   viewBox="0 0 1296 1728"
   style="enable-background:new 0 0 1296 1728;"
   xml:space="preserve"
   sodipodi:docname="decoracion.svg"
   inkscape:version="0.92.4 5da689c313, 2019-01-14"><metadata
   id="metadata39"><rdf:RDF><cc:Work
       rdf:about=""><dc:format>image/svg+xml</dc:format><dc:type
         rdf:resource="http://purl.org/dc/dcmitype/StillImage" /></cc:Work></rdf:RDF></metadata><defs
   id="defs37" /><sodipodi:namedview
   pagecolor="#ffffff"
   bordercolor="#666666"
   borderopacity="1"
   objecttolerance="10"
   gridtolerance="10"
   guidetolerance="10"
   inkscape:pageopacity="0"
   inkscape:pageshadow="2"
   inkscape:window-width="1680"
   inkscape:window-height="996"
   id="namedview35"
   showgrid="false"
   inkscape:zoom="0.44887765"
   inkscape:cx="-210.26038"
   inkscape:cy="864"
   inkscape:window-x="0"
   inkscape:window-y="28"
   inkscape:window-maximized="1"
   inkscape:current-layer="Layer_1" />
<g
   id="g32"
   style="fill:#255ec6;fill-opacity:1"
   inkscape:export-filename="/home/victor/Desktop/dulceria-valdez/photos/decoracion.png"
   inkscape:export-xdpi="9.311944"
   inkscape:export-ydpi="9.311944">
	<path
   d="M1061.4,1312.1c-8.2,0.4-13.5-4.3-17.4-10.6c-22.9-36.9-45.6-73.9-68.4-110.9c-6.6-10.8-13.3-21.5-20.1-32.2   c-1-1.6-2.9-2.6-4.3-3.8c-1.1,1.5-2.5,2.9-3.1,4.5c-12.6,31.8-25.1,63.7-37.6,95.5c-8.7,22.1-17.3,44.3-26,66.4   c-2.7,6.8-7.8,10.8-14.8,11.8c-8.6,1.2-15.3-2.3-19.8-9.7c-20.6-33.4-41.3-66.8-61.9-100.2c-10.2-16.6-20.5-33.1-30.7-49.7   c-0.3-0.4-0.4-1-0.8-1.3c-1.4-1.3-2.8-3.6-4.3-3.6c-1.2,0-2.9,2.3-3.7,3.9c-5.7,11.1-11.2,22.3-16.7,33.5   c-21.4,42.7-42.8,85.4-64.1,128.1c-3.6,7.3-9.8,11.4-17.4,11.5c-7.9,0-14-4.2-17.8-11.7c-17.8-35.8-35.7-71.4-53.6-107.2   c-8.9-17.9-17.8-35.8-26.8-53.6c-0.8-1.7-2.5-2.9-3.8-4.4c-1.3,1.3-3,2.5-4,4c-30.9,49.8-61.7,99.6-92.5,149.5   c-4.8,7.7-11.5,12.1-20.8,10.7c-8-1.2-12.6-6.6-15.5-13.9c-15.9-40.7-31.9-81.4-47.9-122c-4.8-12.2-9.4-24.5-14.1-36.8   c-0.4-0.9-0.8-1.8-1.3-2.7c-2.1-3.8-3.6-4-5.9-0.2c-6.6,10.4-13.1,20.9-19.6,31.4c-20.2,32.7-40.4,65.4-60.7,98.1   c-3.1,5-6.3,9.8-9.2,14.8c-4.8,8.3-11.9,11.9-21.3,10.5c-8.2-1.2-12.4-7-15.2-14.2c-12.9-33-25.8-65.9-38.7-98.9   c-10.7-27.6-21.4-55.2-32.1-82.7c-1.2-3.1-2.9-5.3-6.7-5.7c-11.4-1.4-22.7-3.2-34.1-4.8c-14.5-2-29-3.9-43.4-6   c-7-1-14.2-1.8-20.9-3.9c-9.1-2.8-14.2-12.8-12-21.4c2.6-10.1,11.6-16.5,21.7-15c21.2,3,42.4,6.3,63.7,9.2c16,2.2,32,3.9,48,6.1   c16.6,2.3,33.2,5,49.9,7.2c16.1,2.1,32.4,3.7,48.5,5.6c19.2,2.3,38.3,4.9,57.5,6.8c24.8,2.4,49.7,4.3,74.6,6   c38,2.7,76.1,5.9,114.1,7.4c41.6,1.7,83.3,2.1,124.9,2.6c31.3,0.3,62.7,0.4,94-0.4c32.3-0.8,64.6-2.8,96.8-4.4   c19-0.9,37.9-1.8,56.9-3.1c17.1-1.2,34.2-2.8,51.2-4.3c14.4-1.2,28.9-2.2,43.3-3.7c19.4-2.1,38.7-4.6,58-6.8   c16.3-1.9,32.7-3.5,49.1-5.6c16.3-2.1,32.6-4.8,48.9-7.1c8.9-1.2,17.8-2.1,26.7-3.4c15.8-2.2,31.6-4.6,47.4-6.8   c9.1-1.3,18.1-2.3,27.2-3.5c2.8-0.4,5.6-0.7,8.4-1.3c11.9-2.7,22.8,4,24.9,15.4c2,10.8-6.6,21-18.4,22.5c-18.3,2.4-36.5,5-54.8,7.5   c-12.2,1.7-24.4,3.5-36.6,5.1c-3.1,0.4-5,1.7-6.2,4.8c-8.3,21.4-16.7,42.7-25.1,64c-9.9,25.2-19.7,50.5-29.6,75.7   c-5.7,14.5-11.5,29-17.1,43.6C1076.8,1307.3,1070.4,1312.2,1061.4,1312.1z M602.5,1148.7c0-0.3,0-0.5,0-0.8c-3.2,0-6.3,0-9.5,0   c-9.9,0-10.3,0.7-5.9,9.6c19.8,39.7,39.6,79.5,59.6,119.2c0.6,1.3,2.3,2.9,3.4,2.8c1.2,0,2.8-1.6,3.4-2.9   c7-13.8,13.8-27.7,20.7-41.5c13.2-26.5,26.4-53,39.7-79.5c3-6,2.2-7.8-4.5-7.8c-11.5,0.2-23,0.7-34.5,0.7   C650.8,1148.8,626.6,1148.7,602.5,1148.7z M399,1138.9c-1.3,0-3,0-4.7,0c-6.8,0-7.8,1.7-5.1,8.1c4.9,12,9.7,24,14.4,36.1   c10.5,27.1,21,54.2,31.5,81.3c0.5,1.3,2.1,2.9,3.3,3.1c1.1,0.1,2.8-1.3,3.6-2.5c3.9-6.2,7.6-12.5,11.5-18.7   c18.5-30,37.2-59.9,55.6-90c6.2-10.2,5.7-10.8-6.6-11.3c-12.6-0.5-25.3-0.7-37.9-1.5C442.8,1142.2,421.1,1140.5,399,1138.9z    M902.8,1139c0,0.1,0,0.1,0,0.2c-17.8,1-35.6,2.1-53.3,3.1c-14.8,0.8-29.6,1.7-44.4,2.5c-3.8,0.2-7.7,0.2-11.5,0.5   c-6.3,0.6-7.2,2.8-3.9,8.1c17.8,28.5,35.4,57.1,53.1,85.7c5.3,8.6,10.6,17.3,16,25.9c0.8,1.3,2.4,2.3,3.8,2.8   c0.5,0.2,2.1-1.4,2.5-2.4c6-15.1,11.9-30.3,17.9-45.4c9.2-23.5,18.3-47.1,27.7-70.5c4.2-10.4,4.3-10.5-7.1-10.4   C903.5,1139,903.1,1139,902.8,1139z M195.5,1117.5c-3.5,0.2-3.7,2.5-2.7,5.2c2.7,7,5.5,13.9,8.3,20.8c8.2,20.8,16.3,41.7,24.5,62.6   c5,12.8,10.2,25.6,15.1,38.5c1.5,4,3.3,3.5,5.6,0.8c0.7-0.9,1.4-1.9,2-2.9c12.8-20.6,25.6-41.3,38.4-61.9   c8.7-14.1,17.5-28.2,26.2-42.4c2.9-4.8,2.3-6.3-2.3-6.9c-12.9-1.5-25.7-3-38.6-4.5c-12.2-1.4-24.4-2.9-36.6-4.4   C222.1,1120.7,208.9,1119.1,195.5,1117.5z M1108.1,1121.9c0.2-4-1.6-4.7-4.8-4.2c-7.2,1.2-14.5,2.3-21.7,3.1   c-17.5,2.1-35,3.9-52.5,5.9c-12.4,1.4-24.7,3-37.1,4.3c-6.2,0.6-7,2-3.6,7.5c21.7,35.1,43.3,70.2,65.1,105.3   c0.9,1.4,2.5,2.4,3.7,3.5c1.3-1.4,3-2.7,3.7-4.3c2.9-6.7,5.4-13.6,8.1-20.4c11.1-28.3,22.2-56.6,33.2-84.9   C1104.2,1132.3,1106.2,1126.8,1108.1,1121.9z"
   id="path2"
   style="fill:#255ec6;fill-opacity:1" />
	<path
   d="M1060.1,609.5c-6.6,0-12-4.3-15.9-10.5c-20.2-32.5-40.2-65.2-60.4-97.7c-9.4-15.3-18.9-30.6-28.5-45.8   c-0.9-1.5-3-2.3-4.5-3.5c-1,1.4-2.3,2.6-2.9,4.2c-12.6,31.8-25.1,63.7-37.6,95.5c-8.7,22.1-17.3,44.3-26,66.4   c-2.7,6.8-7.6,10.9-14.8,11.8c-8.4,1-15.1-2-19.6-9.2c-16.5-26.4-32.8-52.9-49.2-79.4c-14.8-23.9-29.5-47.9-44.3-71.8   c-1.1-1.7-3-2.9-4.5-4.4c-1.4,1.5-3.1,2.9-4,4.6c-23.9,47.8-47.8,95.6-71.6,143.4c-3,6.1-6.2,12.2-9.2,18.3   c-3.6,7.3-9.9,11.2-17.6,11.1c-7.7-0.1-13.7-4.2-17.3-11.6c-26.6-53.5-53.3-106.9-80.1-160.3c-1-1.9-2.9-3.4-4.4-5   c-1.4,1.6-3,3-4.1,4.7c-30.8,49.7-61.5,99.4-92.2,149.1c-4.8,7.8-11.7,11.9-20.9,10.4c-7.8-1.2-12.3-6.4-15.1-13.6   c-14.2-36.4-28.6-72.7-42.8-109.1c-6.4-16.4-12.7-32.9-19-49.3c-0.2-0.6-0.4-1.3-0.8-1.8c-1.1-1.5-2.4-3-3.6-4.4   c-1.4,1.3-3.1,2.4-4.1,4c-22,35.5-43.9,71.1-65.8,106.7c-7.5,12.2-15.3,24.2-22.7,36.4c-4.6,7.5-10.9,11.6-19.9,10.6   c-8.6-0.9-13.5-6.4-16.4-14.1C208,563.1,195.6,531,183.1,499c-11.1-28.5-22.3-56.9-33.5-85.4c-1.4-3.5-3.3-5.7-7.5-6.2   c-11.2-1.3-22.4-3.1-33.6-4.6c-15-2.1-30-4.2-44.9-6.4c-6.4-0.9-12.9-1.6-19-3.4C35.2,390,30,380,32.5,371.2   c2.9-10.4,12.1-16.3,22.3-14.8c17.1,2.6,34.2,4.8,51.3,7.2c15.8,2.3,31.5,4.7,47.3,6.9c15,2.1,30,3.8,45,5.8   c16.8,2.2,33.6,4.7,50.4,6.9c10.1,1.3,20.1,2.5,30.2,3.6c12.7,1.4,25.5,2.9,38.2,4.1c14.2,1.4,28.5,2.6,42.8,3.9   c18.4,1.6,36.8,3.3,55.2,4.5c21.6,1.5,43.2,2.3,64.8,3.8c80.4,5.3,160.9,4.9,241.3,3.8c35.1-0.4,70.2-2.9,105.3-4.5   c20.1-0.9,40.3-1.7,60.4-3.2c25.4-1.9,50.7-4.5,76.1-6.8c11.9-1.1,23.9-2,35.8-3.2c11.7-1.2,23.4-2.8,35.2-4.3   c7.8-0.9,15.5-1.8,23.3-2.8c19.5-2.6,38.9-5.2,58.3-7.8c14.5-1.9,29-3.5,43.5-5.5c16.3-2.3,32.5-4.9,48.8-7.2   c8.9-1.3,17.8-2.2,26.7-3.4c2.6-0.3,5.3-0.6,7.9-1.2c12.2-2.9,22.9,3.6,25.2,15.5c2,10.6-6.8,20.9-18.5,22.4   c-18.1,2.3-36.2,5-54.3,7.5c-12.5,1.7-25.1,3.4-37.5,5.5c-2,0.3-4.5,2.4-5.2,4.2c-8.7,21.4-17,42.9-25.5,64.4   c-9,23.1-18.1,46.1-27.1,69.2c-6.5,16.7-13.1,33.4-19.6,50.2C1076.7,604.8,1069.9,609.8,1060.1,609.5z M602,445.8   c0-0.3,0-0.5,0-0.8c-4.2,0-8.3-0.1-12.5,0c-5,0.2-6.2,2.4-4,6.8c3.2,6.2,6.4,12.4,9.5,18.7c17.2,34.5,34.4,69.1,51.7,103.6   c0.6,1.2,2.2,2.7,3.1,2.6c1.3-0.2,2.9-1.5,3.6-2.7c3.6-6.9,7-14,10.5-21c16.6-33.3,33.2-66.7,49.9-100c3.1-6.2,2.2-8-4.9-8   c-11,0.1-22,0.7-33,0.7C651.3,445.8,626.6,445.8,602,445.8z M398,436c0.3,0-0.9,0-2.1,0c-9.1-0.1-9.5,0.9-6.2,9.4   c8.2,20.7,16.2,41.4,24.3,62.2c7,18.1,14,36.2,21.2,54.3c0.5,1.3,2.2,2.6,3.6,2.8c0.9,0.1,2.5-1.3,3.2-2.4   c22.1-35.6,44.1-71.3,66-107c2.1-3.4,3.4-7.2,5.1-10.8c-4.2-0.8-8.3-2-12.5-2.3c-13.1-0.8-26.3-1-39.4-1.8   C440.6,439,420.1,437.5,398,436z M899.1,436c0,0.2,0,0.4,0,0.6c-26.3,1.6-52.5,3.3-78.8,4.8c-9.1,0.5-18.3,0.5-27.4,1.2   c-5.6,0.4-6.4,2.8-3.4,7.6c12.6,20.2,25.1,40.4,37.6,60.7c10.5,17,21,34,31.6,50.9c0.9,1.4,2.6,2.6,4.2,3c0.6,0.2,2.1-2.1,2.7-3.5   c7.2-18.1,14.2-36.2,21.3-54.3c8.7-22.1,17.4-44.2,26.1-66.3c1.4-3.5-0.2-4.6-3.4-4.7C906.1,435.9,902.6,436,899.1,436z    M196.8,414.6c-3.8,0.1-5.2,1.7-4,5.1c2.6,6.8,5.3,13.6,8,20.4c9.1,23.2,18.2,46.4,27.3,69.6c4.2,10.7,8.4,21.3,12.6,32   c1.5,3.8,3.3,3.9,5.6,0.8c0.6-0.8,1.1-1.6,1.7-2.5c13.1-21.1,26.1-42.2,39.1-63.3c8.7-14,17.3-28,26-42.1c1.7-2.7,2.8-5.4-2-6   c-13.2-1.6-26.4-3.4-39.6-4.9c-10.6-1.2-21.2-2-31.8-3.3C225.4,418.7,211.1,416.6,196.8,414.6z M1108.2,418.8   c-0.1-3.7-1.6-4.5-4.6-4.1c-14.5,2.1-28.9,4.2-43.5,5.9c-22.6,2.7-45.3,5.1-67.9,7.7c-6.8,0.8-7.4,1.8-3.8,7.6   c21.7,35.1,43.3,70.2,65.1,105.3c0.8,1.3,2.9,3.3,3.3,3.1c1.6-0.9,3.3-2.3,3.9-3.9c5.5-13.5,10.8-27.2,16.1-40.8   c8.3-21.3,16.7-42.7,25-64.1C1104,429.7,1106.2,424,1108.2,418.8z"
   id="path4"
   style="fill:#255ec6;fill-opacity:1" />
	<path
   d="M819.2,804c-48,1.3-95.9,2.7-143.9,3.9c-4.2,0.1-6.2,1.6-6.2,5.8c0.1,12.2,0.1,24.3,0.2,36.5c0,3.6,1.3,5.7,5.1,7.4   c18.7,8.7,30.1,23,34.6,43.5c6.6,30.1-12.8,60.6-41,69.4c-34.6,10.8-70.1-12.1-77.3-45.4c-6.2-28.9,12.3-59.7,36.1-68.4   c1.5-0.6,3.2-3.1,3.3-4.8c0.3-13.2,0.1-26.3,0.2-39.5c0-3.9-2.4-4.5-5.6-4.6c-9.2-0.2-18.3-0.6-27.5-0.8   c-23.8-0.5-47.7-0.7-71.5-1.5c-21.5-0.7-42.9-1.9-64.4-2.9c-6.9-0.3-7.9,0.8-8.6,7.8c-0.7,6.9-1.8,13.8-2.8,20.8   c-0.7,4.5,0.9,7.3,4.9,9.8c19.4,12.3,28.6,30.5,28,53c-0.7,24.7-15.5,45.7-39.4,54.3c-30.3,10.9-63-3-75.7-31.7   c-14.1-31.7,0.5-69,33.2-80.5c9.4-3.3,12.5-8.2,12.4-17.2c0-3.9,1.1-7.9,1.8-11.8c1.2-6.3,0.1-7.9-6.2-8.4   c-16.1-1.2-32.2-2.1-48.3-3.6c-26.7-2.4-53.4-4.9-80-7.7c-16-1.7-32-3.9-48-6.1c-4-0.6-6.2,0.7-6.7,4.6c-1.1,8.2-2,16.5-3.2,24.8   c-0.6,4.5,0.9,7.4,4.9,9.8c12.9,7.7,21.3,19.2,25.5,33.4c7.4,25.4-1.7,52.7-24.2,67.5c-30.5,20.2-72,8.8-87.6-23.7   c-15.3-31.9-0.3-70.6,32.4-82.5c2-0.7,4.2-1.1,6-2.2c1.8-1.1,4.2-2.7,4.5-4.4c1.8-9.5,3.1-19,4.3-28.6c0.4-3.2-1.6-4.6-4.8-5.1   c-16.9-2.4-33.8-5-50.8-7.3c-15.5-2.1-31-3.8-46.5-5.8c-12.7-1.6-25.4-3.2-38-5.3c-8.8-1.5-14.9-6.8-16.7-15.7   c-1.6-7.8,1.3-14.6,7.9-18.5c4-2.4,9.4-3.9,14-3.5c17.7,1.7,35.3,4.2,52.9,6.7c14.5,2,28.9,4.5,43.4,6.6c10,1.4,20.1,2.6,30.2,3.9   c7.4,1,14.8,2,22.2,3c10.2,1.4,20.4,2.9,30.6,4.2c19.3,2.4,38.6,4.8,58,7c13.2,1.5,26.5,2.6,39.7,3.9c13.7,1.4,27.5,3,41.2,4.2   c18.4,1.5,36.9,2.7,55.3,3.8c43.6,2.4,87.1,5.4,130.7,6.7c40,1.2,80,0.7,120,0.6c26.2-0.1,52.3-0.1,78.5-1.2   c40.6-1.7,81.2-4.1,121.7-6.5c25.1-1.5,50.2-3.3,75.2-5.7c28.1-2.7,56.2-6.2,84.3-9.4c16-1.8,32.1-3.5,48-5.6   c16.8-2.2,33.5-4.9,50.3-7.2c8.7-1.2,17.5-2.1,26.2-3.3c9.5-1.3,19.1-2.8,28.6-4.2c6.6-1,13.2-1.9,19.7-2.8   c12.2-1.6,24.4-3.3,36.6-4.9c9.5-1.2,18.3,5.5,20.9,15.6c2,7.9-2.8,18-11.3,20.4c-9.7,2.7-19.8,3.8-29.8,5.3   c-15.9,2.4-31.9,4.7-47.9,6.9c-14.5,2-29,3.7-43.5,5.6c-6.8,0.9-13.5,1.9-20.3,2.8c-3.1,0.4-4.5,2.3-4.1,5.2   c1.2,9.4,2.5,18.8,4.2,28.1c0.3,1.8,2.5,4.1,4.3,4.6c23.7,7.3,38.1,22.5,43.8,47c5.6,24.2-8.2,52.4-28.7,64   c-32.6,18.3-73.5,3.9-86.6-30.5c-10.5-27.4-0.8-57.3,23.9-72.9c3.9-2.5,5.6-5.2,5-9.8c-1.2-8.4-2.1-16.8-3.3-25.2   c-0.5-3.4-2.6-4.6-6.1-4.2c-20,2.3-40,4.7-60,6.8c-31.8,3.3-63.6,6.5-95.4,9.6c-7.3,0.7-14.6,0.7-21.9,1.2   c-5.7,0.4-6.8,2.2-5.8,7.9c0.9,5.7,1.6,11.5,2.3,17.3c0.7,5.2,2.2,8.7,8.4,10.6c20.1,6.3,33.6,20.1,39.8,40.2   c9.3,30.5-7.8,62.7-36.2,73.7c-32.5,12.6-68.8-5.4-79.3-37.7c-8.7-26.8,2.7-55.7,24.9-69.4c4.5-2.8,6.2-5.9,5.4-11   c-1.2-7.6-2.1-15.2-3.1-22.7c-0.5-4-2.9-5.1-6.7-5.1c-7,0.1-14,0-21,0C819.2,803.1,819.2,803.5,819.2,804z M649.9,890.9   c-11.1-1.3-22.5,10.6-22,22.1c0.5,12,10,21.9,21.9,21.9c12.5-0.1,22.2-9.7,22.1-22C672,900.3,662.5,890.9,649.9,890.9z    M422.7,914.1c9.9,1.5,22.5-9.3,22.2-22c-0.3-12.1-9.8-21.4-22-22c-11.2-0.5-22.6,11.1-22.1,21.8C401.4,904.7,410,914,422.7,914.1z    M899.1,892.1c1.3-11-10.8-22.5-21.7-22.1c-12.5,0.5-22.3,9.9-22.2,22.2c0.1,12.3,9.6,21.8,21.9,21.8   C889.8,914.1,899.1,904.8,899.1,892.1z M217.3,871.7c0-12.8-9-22-21.9-22c-12.6,0-21.1,9.1-21.8,21.6c-0.7,11.5,10.9,22.8,22,22.1   C208.2,892.7,217.3,884.2,217.3,871.7z M1104.7,849.7c-12.1-1.5-22.7,11.5-22.2,21.3c0.7,13,9.1,21.7,21.7,22.4   c11.6,0.7,22.8-11,22.2-22C1125.7,859,1117.1,849.7,1104.7,849.7z"
   id="path6"
   style="fill:#255ec6;fill-opacity:1" />
	<path
   d="M669.6,313.1c0,5.2-0.1,10.3,0,15.5c0.1,2.9-0.9,4.3-4,4.3c-10.5-0.1-21-0.1-31.5,0c-2.7,0-3.8-1.1-3.8-3.9   c0.1-10.5,0.1-21,0-31.5c0-3.2,1.4-4,4.2-4c10.3,0.1,20.6,0.1,31,0c3,0,4.2,1.1,4.1,4.2C669.5,302.8,669.6,307.9,669.6,313.1z"
   id="path8"
   style="fill:#255ec6;fill-opacity:1" />
	<path
   d="M669.6,1429.5c0,5-0.1,10,0.1,15c0.1,3.1-0.8,4.6-4.2,4.5c-10.3-0.1-20.6-0.1-30.9,0c-2.9,0-4.2-1-4.1-4.1   c0.1-10.1,0.2-20.3,0-30.4c-0.1-3.4,1.3-4.4,4.4-4.3c10.1,0.1,20.3,0.1,30.4,0c3.2,0,4.5,1.1,4.4,4.4   C669.4,1419.5,669.6,1424.5,669.6,1429.5z"
   id="path10"
   style="fill:#255ec6;fill-opacity:1" />
	<path
   d="M506.7,664.3c0-5.2,0.2-10.3-0.1-15.5c-0.1-2.7,1-3.6,3.4-3.6c10.6,0,21.3,0,31.9,0c2.8,0,3.7,1.3,3.7,4   c-0.1,10.3-0.1,20.6,0,30.9c0,2.8-1.1,3.9-3.8,3.9c-10.5,0-20.9,0-31.4,0c-2.7,0-3.8-0.8-3.7-3.8   C506.9,675,506.8,669.6,506.7,664.3C506.7,664.3,506.7,664.3,506.7,664.3z"
   id="path12"
   style="fill:#255ec6;fill-opacity:1" />
	<path
   d="M981.8,974.9c0-5.3,0.2-10.7-0.1-16c-0.1-2.7,0.9-3.6,3.4-3.6c10.7,0,21.3,0,32,0c2.9,0,3.6,1.5,3.6,4.1   c-0.1,10.2-0.1,20.3,0,30.5c0,3.1-1.2,4.2-4.1,4.1c-10.3-0.1-20.7-0.1-31,0c-3.1,0-4-1.2-3.8-4.2C982,985,981.8,979.9,981.8,974.9   C981.8,974.9,981.8,974.9,981.8,974.9z"
   id="path14"
   style="fill:#255ec6;fill-opacity:1" />
	<path
   d="M1167.7,1222.4c0-5.1,0.1-10.3-0.1-15.4c-0.1-2.7,0.9-3.6,3.4-3.6c10.6,0,21.3,0,31.9,0c2.8,0,3.7,1.2,3.7,4   c-0.1,10.3-0.1,20.6,0,30.9c0,2.8-1.1,3.9-3.8,3.9c-10.5,0-20.9-0.1-31.4,0c-3.2,0-3.8-1.4-3.7-4.3   C1168,1232.7,1167.8,1227.6,1167.7,1222.4C1167.8,1222.4,1167.7,1222.4,1167.7,1222.4z"
   id="path16"
   style="fill:#255ec6;fill-opacity:1" />
	<path
   d="M132.3,1388.5c0,5.2-0.2,10.3,0.1,15.5c0.2,2.9-0.9,3.9-3.6,3.9c-10.5,0-21-0.1-31.4,0c-3,0-4-1.3-4-4.3   c0.1-10.1,0.1-20.3,0-30.4c0-3,1.1-4.2,4.1-4.1c10.3,0.1,20.6,0.1,30.9,0c2.9,0,4.2,0.8,4,4C132,1378.1,132.2,1383.3,132.3,1388.5   C132.3,1388.5,132.3,1388.5,132.3,1388.5z"
   id="path18"
   style="fill:#255ec6;fill-opacity:1" />
	<path
   d="M772.8,1016.3c0,5-0.1,10,0.1,15c0.1,3.2-1,4.5-4.3,4.5c-10.1-0.1-20.3-0.1-30.4,0c-2.9,0-4.2-1-4.2-4.1   c0.1-10.1,0.1-20.3,0-30.4c0-3.3,1.5-4.3,4.6-4.3c10,0.1,20,0.1,29.9,0c3.2,0,4.5,1.2,4.4,4.4   C772.6,1006.3,772.8,1011.3,772.8,1016.3z"
   id="path20"
   style="fill:#255ec6;fill-opacity:1" />
	<path
   d="M980.3,1394c-1.2-0.9-2.2-1.5-3-2.3c-7.2-7.2-14.3-14.4-21.6-21.5c-1.9-1.9-2.3-3.2-0.2-5.3c7.3-7.1,14.5-14.3,21.5-21.5   c2.5-2.5,4.2-2.3,6.6,0.1c6.8,7,13.8,14,20.8,20.8c2.2,2.2,2.6,3.8,0.2,6.2c-7.2,7-14.1,14.1-21.2,21.1   C982.5,1392.5,981.4,1393.2,980.3,1394z"
   id="path22"
   style="fill:#255ec6;fill-opacity:1" />
	<path
   d="M140.6,602.4c-7.3,7.2-13.7,13.6-20.3,19.9c-8.6,8.4-6.3,8.6-15,0c-5.6-5.5-11-11.1-16.7-16.6c-2.4-2.3-2.3-3.9,0-6.1   c7.2-7,14.1-14.2,21.3-21.1c1-1,4.1-1.6,4.8-0.9C123.3,585.6,131.6,593.7,140.6,602.4z"
   id="path24"
   style="fill:#255ec6;fill-opacity:1" />
	<path
   d="M959.7,691.3c-1-0.8-2-1.4-2.8-2.2c-7.2-7.2-14.3-14.4-21.6-21.5c-2.2-2.2-2-3.7,0.1-5.8c7.3-7.1,14.4-14.3,21.5-21.5   c2.2-2.2,3.7-2,5.8,0.1c7,7.1,14.1,14.2,21.2,21.2c2,2,2.4,3.7,0.2,5.9c-7.4,7.2-14.6,14.6-21.9,21.9   C961.5,690.1,960.6,690.6,959.7,691.3z"
   id="path26"
   style="fill:#255ec6;fill-opacity:1" />
	<path
   d="M271.1,995.2c6-5.8,11.3-11,16.7-16.1c3.6-3.4,7.2-8.9,11.1-9.1c3.4-0.2,7.1,5.6,10.6,9c4.7,4.5,9.1,9.2,13.8,13.7   c2,1.9,2.1,3.3,0.1,5.4c-7.4,7.2-14.6,14.6-22,21.8c-0.9,0.9-3.7,1.2-4.5,0.5C288.4,1012.4,280.2,1004.2,271.1,995.2z"
   id="path28"
   style="fill:#255ec6;fill-opacity:1" />
	<path
   d="M304.7,1429.3c-0.8,1-1.4,2-2.2,2.8c-7.2,7.2-14.4,14.3-21.5,21.6c-2.1,2.1-3.7,2.1-5.8,0c-7.1-7.3-14.3-14.4-21.6-21.5   c-2-2-2.1-3.4,0-5.3c7.4-7.2,14.6-14.7,22-21.8c1-0.9,4-1.2,4.9-0.4c7.7,7.3,15.2,14.9,22.7,22.5   C303.7,1427.7,304.1,1428.5,304.7,1429.3z"
   id="path30"
   style="fill:#255ec6;fill-opacity:1" />
</g>
</svg>