<?xml version="1.0" encoding="utf-8"?>
<!-- Generator: Adobe Illustrator 21.1.0, SVG Export Plug-In . SVG Version: 6.00 Build 0)  -->
<svg version="1.1" id="Layer_1" xmlns="http://www.w3.org/2000/svg" xmlns:xlink="http://www.w3.org/1999/xlink" x="0px" y="0px"
	 viewBox="0 0 1296 1728" style="enable-background:new 0 0 1296 1728;" xml:space="preserve">
<g>
	<path d="M70.7,875c3.4-159.3,58.5-298,171.9-411.3c113.2-113,251.7-167.5,410.9-171.2c159.2,3.9,297.6,58.9,410.6,172
		c113.2,113.3,167.6,252.1,171.4,411.5c-4,159-58.5,297.5-171.4,410.5c-113.3,113.5-252,168.2-411.6,172
		c-158.8-4.1-297.1-58.5-409.9-171.3C129.3,1173.8,73.9,1035.2,70.7,875z M114.6,875.4c-1.8,295.5,242.5,538.8,537.4,539.3
		c296.6,0.6,539.5-243.5,539.8-538.7c0.3-296-243.1-539.6-538.2-539.8C357.8,335.9,112.7,580,114.6,875.4z"/>
	<path d="M1065.1,870.7c-1.8-18.1-3.1-40.4-6.4-62.4c-4.4-29-12.6-57-23.5-84.4c-15.2-38.4-35.8-73.6-61.6-105.7
		c-29.3-36.4-63.6-67.2-103.3-91.9c-22.1-13.8-45.2-25.3-69.5-34.8c-21.9-8.6-44.4-15.2-67.3-19.8c-37.1-7.4-74.6-10-112.3-6.6
		c-20,1.8-40.1,4.5-59.6,9.1c-20.3,4.7-40.4,11.2-59.9,18.7c-52.5,20.1-98.3,50.8-138.1,90.4c-10.8,10.8-20.9,22.4-30.7,34.2
		c-8.6,10.3-19.8,10.6-27.7,7.2c-12.9-5.6-14.8-23.6-7.4-31.9c12.9-14.8,25.8-29.7,39.5-43.7c20.5-20.9,43.6-38.7,68.1-54.6
		c24.2-15.7,49.4-29.7,76.5-39.7c19.5-7.2,39.1-14.3,59.1-19.5c18.3-4.8,37.1-7.3,55.8-10.1c22.8-3.5,45.7-4.9,68.7-3.7
		c24.2,1.2,48.4,3.4,72.3,7.9c54.9,10.4,105.9,30.4,153.4,59.6c33.8,20.8,64.4,45.7,91.5,74.6c35.1,37.3,63.3,79.2,84.3,126
		c10.9,24.2,19.8,49.1,26,74.8c4.4,18.4,7.2,37.2,10,55.9c3.6,23.6,4.7,47.4,3.6,71.2c-1.3,28.8-4.5,57.4-11.1,85.5
		c-12.8,55-34.7,106.2-66.4,152.9c-41,60.3-93.3,108.3-157.1,143.6c-23.3,12.9-47.6,23.6-72.9,32.3c-22.1,7.6-44.6,13.6-67.5,17.4
		c-36.9,6.1-74,9.3-111.4,5.3c-14.5-1.5-29.2-2.4-43.6-5c-15.8-2.8-31.6-6.5-47-11c-17.8-5.3-35.5-11.2-52.7-18.2
		c-38.5-15.6-73.7-37-106.2-62.8c-35.5-28.2-66.1-60.9-91.8-98.2c-22.5-32.6-40.4-67.7-53.8-105c-8.7-24.3-15.5-49.2-19.7-74.6
		c-6.2-37.6-9.1-75.4-4.9-113.4c2-17.8,4.3-35.6,6.9-53.4c1.7-12.1,12.7-19.2,25.5-17.4c10.1,1.5,17.8,12.1,16.4,23.4
		c-1.8,14.7-4.3,29.3-5.9,44c-2.7,25.4-2.7,50.9-0.1,76.3c1.5,14.2,3.1,28.5,5.9,42.5c3.1,15.1,7.1,30.1,11.7,44.8
		c11.5,36.9,28.3,71.4,49.9,103.5c27.6,41,61.4,76.1,101.5,105.2c19.6,14.2,40.2,26.6,62,37.2c23.4,11.3,47.7,20.2,72.8,27.1
		c41.5,11.3,83.8,15.5,126.5,13.4c17.5-0.9,35-3.9,52.4-6.4c23.4-3.4,46.1-10.1,68.2-18.3c47.5-17.5,90.3-43,128.4-76.3
		c47.3-41.4,83.3-90.9,108.3-148.6c10.5-24.3,18.8-49.4,23.8-75.5c2.8-14.3,5.2-28.8,6.8-43.3
		C1063.4,903.9,1063.9,889.4,1065.1,870.7z"/>
	<path d="M440.9,993c0-41.5-0.1-83,0.1-124.5c0-5.3-1.6-8.8-5.7-12.4c-23-19.7-36.5-44.6-39.1-75c-0.6-7-0.9-14-0.9-20.9
		c-0.1-48.5-0.1-97,0-145.5c0-6.9,0.8-13.6,6.3-18.9c6.8-6.5,14.3-8.3,22.8-4.8c8.6,3.5,13.6,10.5,13.6,19.6
		c0.1,35.8,0,71.7,0,107.5c0,7.9,0.1,8,8.2,8c11.2,0,22.3,0,33.5,0c6,0,6.6-0.6,6.6-6.6c0-34.8,0-69.7,0-104.5
		c0-6.7,0.7-13.3,5.8-18.6c6.4-6.6,14.7-8.8,22.2-5.8c9.7,3.8,14.7,10.5,14.7,20.4c0.1,35.8,0,71.7,0,107.5c0,7.5,0.2,7.7,7.5,7.7
		c11.3,0,22.7,0,34,0c6.2,0,6.8-0.6,6.8-6.9c0-34.2,0-68.3,0.1-102.5c0-3.8,0.3-7.7,1.1-11.4c2-9.8,12-16.8,22.4-15.9
		c9.8,0.8,18.6,9.7,19.2,19.4c0.1,1.3,0.1,2.7,0.1,4c0,52.7,0.2,105.3-0.1,158c-0.2,34.8-14,63.6-40.5,86.1c-3.6,3-4.9,6.1-4.9,10.7
		c0.1,82.8,0.2,165.7,0,248.5c-0.1,29-13.5,50.6-40,62.7c-36.6,16.7-79-3.4-90.3-40.5c-2.4-7.8-3.2-16.4-3.3-24.6
		C440.7,1073.3,440.9,1033.2,440.9,993z M483.6,1002.8c0,35.2,0,70.3,0,105.5c0,3.3,0,6.7,0.1,10c0.5,18,20.5,29.2,35.9,20
		c9.1-5.4,12.3-13.9,12.3-24.1c0-75.5,0-151,0-226.5c0-6.1-1.1-6.7-7.1-6.5c-10.8,0.3-21.6,0.6-32.4,0.2c-8.9-0.3-8.8-0.8-8.8,8.3
		C483.6,927.5,483.6,965.1,483.6,1002.8z M507.6,769c-21,0-42,0-63,0c-6.2,0-7.5,0.9-6.5,7c1.3,7.5,2.8,15.1,5.8,22.1
		c13.9,32.4,52.7,51.3,88.7,37.4c23.8-9.2,43.2-34.3,44.3-59.7c0.3-5.9-0.4-6.7-6.4-6.7C549.6,769,528.6,769,507.6,769z"/>
	<path d="M729.2,984.2c0-44.7-0.1-89.3,0.1-134c0-5-1.7-7.7-5.8-10.4c-24.2-16-39.8-38.1-47-66.4c-5.6-22.2-4.5-44.1-0.3-66.2
		c5.6-29.5,16.4-56.8,32.5-82c12.5-19.6,27.6-36.7,48.4-48c30.9-16.7,60.6-13.5,88.7,6.3c23.9,16.9,39.5,40.6,52,66.6
		c9.5,19.7,16.2,40.4,19.7,62c5.3,32.5,3,64.1-14.5,93.1c-8.5,14.1-19.6,25.7-33.6,34.3c-4.4,2.7-6,5.7-6,10.9
		c0.1,87.3,0.1,174.6,0.1,261.9c0,17.6-3.9,34.2-15.8,47.8c-16.8,19.3-38,27.6-63.4,22.9c-26.3-4.9-43.4-20.7-51.8-45.8
		c-2.2-6.7-3.2-14-3.2-21.1C729,1072.2,729.2,1028.2,729.2,984.2z M876.7,740.8c0-4.8,0.6-9.7-0.1-14.5c-3.7-25.6-11.9-49.7-25.1-72
		c-8.4-14.1-18.2-27.2-31.9-36.6c-14.5-10-29.9-11.8-44.6-1.1c-8.5,6.2-16.9,13.4-23.1,21.8c-24.3,32.9-38,69.5-36.3,111.1
		c0.6,13.9,4.7,26.5,12.9,37.7c14.3,19.5,34.8,27.9,58,29.8c10,0.8,20.3-0.4,30.2-1.8c16.4-2.4,30.8-9.5,42.1-21.9
		C872.6,778.4,877.7,760.5,876.7,740.8z M772.2,992.5c0.2,0,0.3,0,0.5,0c0,42.5,0,85,0,127.5c0,12.9,15.6,26.9,33.1,19.5
		c9.8-4.1,14.5-12.1,14.5-23c-0.1-57.5,0-115,0-172.5c0-26.3,0-52.7,0-79c0-3.7-0.2-6.5-5.2-6.4c-12.5,0.3-24.9,0.2-37.4,0
		c-3.6,0-5.3,1.3-5.4,4.8c0,2.2-0.1,4.3-0.1,6.5C772.2,910.9,772.2,951.7,772.2,992.5z"/>
	<path d="M260.7,671.3c11.9,0.1,21.2,9.7,20.9,21.9c-0.2,11.9-9.1,20.7-21,20.7c-12.1,0-21.4-9.4-21.3-21.5
		C239.4,680.7,249,671.2,260.7,671.3z"/>
</g>
</svg>
