<?xml version="1.0" encoding="utf-8"?>
<!-- Generator: Adobe Illustrator 21.1.0, SVG Export Plug-In . SVG Version: 6.00 Build 0)  -->
<svg version="1.1" id="Layer_1" xmlns="http://www.w3.org/2000/svg" xmlns:xlink="http://www.w3.org/1999/xlink" x="0px" y="0px"
	 viewBox="0 0 1232 786" style="enable-background:new 0 0 1232 786;" xml:space="preserve">
<style type="text/css">
	.st0{fill:#FB4E4E;}
</style>
<g>
	<path class="st0" d="M75.6,232.9c5.3,5.7,9.8,11.8,14.7,17.6c28.3,32.7,63,56,103.2,71.3c37.9,14.4,77.3,20.7,117.7,21.4
		c75.3,1.3,148.9-9.7,221.4-29.4c52.1-14.1,102.9-32,154-49.2c35.6-12,71.2-23.9,107.8-32.5c32.3-7.6,65-13.6,98.1-16.8
		c24.3-2.4,48.7-4.1,73.2-3.5c63.4,1.6,125,12.6,183.6,37.7c3.3,1.4,4.4,3.1,4.3,6.7c-0.1,151.6-0.1,303.3,0,454.9
		c0,3.7-0.7,4.8-4.7,4.8c-356.2-0.1-712.5-0.1-1068.7,0c-3.8,0-4.8-0.8-4.8-4.7c0.1-158.1,0.1-316.3,0.1-474.4
		C75.6,235.5,75.6,234.2,75.6,232.9z"/>
</g>
</svg>
