<?xml version="1.0" encoding="UTF-8" standalone="no"?>
<!-- Generator: Adobe Illustrator 21.1.0, SVG Export Plug-In . SVG Version: 6.00 Build 0)  -->

<svg
   xmlns:dc="http://purl.org/dc/elements/1.1/"
   xmlns:cc="http://creativecommons.org/ns#"
   xmlns:rdf="http://www.w3.org/1999/02/22-rdf-syntax-ns#"
   xmlns:svg="http://www.w3.org/2000/svg"
   xmlns="http://www.w3.org/2000/svg"
   xmlns:sodipodi="http://sodipodi.sourceforge.net/DTD/sodipodi-0.dtd"
   xmlns:inkscape="http://www.inkscape.org/namespaces/inkscape"
   version="1.1"
   id="Layer_1"
   x="0px"
   y="0px"
   viewBox="0 0 1296 1728"
   style="enable-background:new 0 0 1296 1728;"
   xml:space="preserve"
   sodipodi:docname="evento.svg"
   inkscape:version="0.92.4 5da689c313, 2019-01-14"><metadata
   id="metadata51"><rdf:RDF><cc:Work
       rdf:about=""><dc:format>image/svg+xml</dc:format><dc:type
         rdf:resource="http://purl.org/dc/dcmitype/StillImage" /></cc:Work></rdf:RDF></metadata><defs
   id="defs49" /><sodipodi:namedview
   pagecolor="#ffffff"
   bordercolor="#666666"
   borderopacity="1"
   objecttolerance="10"
   gridtolerance="10"
   guidetolerance="10"
   inkscape:pageopacity="0"
   inkscape:pageshadow="2"
   inkscape:window-width="1680"
   inkscape:window-height="996"
   id="namedview47"
   showgrid="false"
   inkscape:zoom="0.44887765"
   inkscape:cx="-210.26038"
   inkscape:cy="953.11114"
   inkscape:window-x="0"
   inkscape:window-y="28"
   inkscape:window-maximized="1"
   inkscape:current-layer="Layer_1" />
<g
   id="g44"
   style="fill:#255ec6;fill-opacity:1"
   inkscape:export-filename="/home/victor/Desktop/dulceria-valdez/photos/evento.png"
   inkscape:export-xdpi="10.644979"
   inkscape:export-ydpi="10.644979">
	<path
   d="M731.7,1150c-3.9-1.5-7.8-3-11.8-4.4c-26.9-9.3-51.5-23.4-75.8-37.9c-68.7-41.1-129.3-92-183.8-150.5   c-27.8-29.9-54.4-60.9-78.5-93.9c-27.4-37.7-52.3-76.9-69.3-120.4c-6.6-17-11.8-34.7-15.6-52.5c-4.1-19.2-3.7-38.8,3.6-57.5   c8.2-20.9,24.3-32.7,45-39.3c13.1-4.2,26.5-4.6,40-2.2c8.5,1.5,13.3,8.5,12.7,18.6c-0.5,7.5-6.6,13.7-14.4,13.9   c-5.3,0.2-10.7-0.5-16-0.2c-25.6,1.6-38.7,15.1-39.7,39.1c-0.9,22.7,5.6,43.8,13.7,64.5c15.5,39.5,37.6,75.3,62.1,109.7   c31.2,43.8,66.8,83.8,104.7,121.9c44.6,44.9,93.6,84.1,147.7,117c21.9,13.3,43.9,26.5,67.9,35.9c22.2,8.7,44.8,16.4,69.1,15.4   c14.6-0.6,27.8-5.3,34.1-20.1c3.9-9.3,5.2-19.2,4-29.3c-2-17.8-6.7-34.9-12.9-51.6c-3.7-10.1,0.5-20.1,9.5-23.1   c9.4-3.2,18.1,1.6,22,11.9c6.5,16.8,11.6,34.1,13.7,52c2.7,23.2,1.8,46.1-12.5,66.1c-9.5,13.3-22.7,21-38.4,25.2   c-8.1,2.2-15.9,5.8-23.8,8.8c-44.5,16.8-89,33.5-133.5,50.4c-41.8,15.8-83.6,31.8-125.4,47.7c-40.3,15.2-80.6,30.3-120.9,45.5   c-38.1,14.4-76.2,29-114.3,43.4c-36.5,13.8-73.2,27.5-109.7,41.3c-15.7,5.9-31.4,11.9-47.1,18c-12.4,4.8-22.2,0.5-25.4-11.6   c-0.5-2-0.4-4.3,0.1-6.3c6-25.4,12.1-50.7,18.3-76.1c5.6-23.1,11.3-46.2,17-69.2c2.3-9.3,10.6-14,20.5-12   c8.2,1.7,13.7,10,11.8,19.1c-3.1,14.5-6.7,28.8-10.1,43.2c-3.2,13.6-6.5,27.2-9.8,40.7c-1.6,6.8-3.4,13.5-5.1,20.3   c-0.2,1-0.6,1.9-0.7,2.9c-0.9,5.3,0.5,6.7,5.5,4.8c8.1-3,16.2-6.1,24.2-9.2c25.2-9.6,50.3-19.1,75.5-28.6   c13.8-5.2,27.7-10.4,41.5-15.7c5.4-2.1,5.6-3.3,1.1-7.5c-25.7-23.8-46.5-51.3-62.1-82.6c-17.5-35-27.1-72.1-29.7-111.1   c-1.4-20.4-3.8-40.8-5.5-61.2c-1-11.3-1.8-22.6-2.3-33.9c-0.3-8.7,5.5-15.6,13.4-16.7c9.7-1.4,16.7,3.1,19.2,12.4   c0.6,2.1,1,4.2,1.1,6.4c2.2,25.7,4.4,51.4,6.5,77.1c0.9,11.1,1.2,22.3,2.7,33.3c2.9,20.1,7.9,39.8,15.5,58.7   c15.9,39.5,40.1,73,72.3,100.9c7.1,6.1,12.1,7.7,21,4.1c30.5-12.3,61.5-23.5,92.3-35.1c33.3-12.5,66.6-25,99.8-37.7   c2.4-0.9,4.5-2.8,6.8-4.2c-2.2-1.6-4.1-3.7-6.5-4.8c-56.1-27.3-106.3-62.8-150.2-107.2c-51.4-51.9-90.9-111.6-118.4-179.3   c-13.1-32.3-23.3-65.5-29.7-99.7c-1.4-7.7-3.1-15.3-3.7-23.1c-0.6-8.3,5.5-15.2,13.2-16.2c10.2-1.3,17.2,2.9,19.3,12.2   c2.8,12.6,4.7,25.5,8,38c4.8,18.3,9.8,36.6,15.9,54.5c11.5,33.8,27.2,65.8,45.8,96.3c16.2,26.5,34.7,51.3,55.4,74.4   c32.2,36,68.8,66.8,109.7,92.5c27.4,17.2,56.2,31.7,86.4,43.3c2.6,1,6.3,0.8,9-0.2c25-9.2,49.8-18.7,74.7-28.1   c14.3-5.4,28.6-10.8,42.9-16.3c2.1-0.8,4-2,6-3C731.6,1151.2,731.6,1150.6,731.7,1150z"
   id="path2"
   style="fill:#255ec6;fill-opacity:1" />
	<path
   d="M1193.9,1345.9c0,21.7-5.9,41.5-15.9,60.3c-4.6,8.7-14.1,11.7-22.9,7.5c-7.7-3.7-10.8-13.2-7.3-21.8   c3.2-7.8,7.1-15.5,9.3-23.6c6.7-24.2,2.7-47.1-10-68.6c-0.8-1.3-2.3-2.1-3.4-3.2c-0.6,1.6-1.6,3.1-1.8,4.7   c-2.5,22-8.2,42.6-25.5,58c-17.6,15.7-38.1,22-61.4,17.2c-27.6-5.6-46-22.2-54.2-48.8c-7.2-23.6-2.7-45.7,12.7-65.4   c14.2-18,32.4-29.9,54.2-36.5c2.2-0.7,4.6-0.7,6.8-1.4c3.2-1,4.5-2.7,1.7-5.7c-26.1-28.3-56.7-49.9-93-62.8   c-14.3-5.1-29.4-8.1-44.1-12.3c-9.5-2.7-14.3-10.8-12.2-19.3c2.4-9.7,10.2-14.8,20.4-12.9c72.8,13.8,131.3,50.3,174.7,110.7   c2.8,3.9,5.3,8.1,8.3,11.9c2.6,3.2,5.3,6.4,8.7,8.7c26.7,18.4,43.7,43.6,51.3,74.9C1192.6,1326.6,1192.8,1336.3,1193.9,1345.9z    M1108.5,1296.4c0.1-13.1-0.8-22.2-5.7-30.3c-4.4-7.3-10.7-10.7-19.3-9.3c-18.8,2.9-33.3,12.8-44.7,27.6   c-7.6,9.9-9.5,21.2-6.3,33.1c3.7,13.6,17.1,24.9,29.7,26.5c19.2,2.4,32.7-7,39.3-19.6C1106.8,1314.4,1108.8,1303.8,1108.5,1296.4z"
   id="path4"
   style="fill:#255ec6;fill-opacity:1" />
	<path
   d="M220.6,334.4c6.1,0,11.6,3.1,14.9,9.7c7,14.2,14.1,28.3,21,42.6c1.8,3.8,4.4,5.1,8.5,5.6c15.8,2,31.6,4.3,47.4,6.9   c6.4,1,11.6,4.5,13.5,11.2c1.9,6.9,0.6,13.1-4.8,18.3c-10.6,10.1-20.7,20.8-31.7,30.5c-5.3,4.7-6.2,9.7-5.1,15.9   c2.6,14,5.2,28.1,7.6,42.2c2.1,12.5-6.1,22.5-17.7,21.4c-3-0.3-6.1-1.7-8.8-3.1c-13.6-7-27.1-14.1-40.6-21.4   c-3.4-1.9-6.2-1.9-9.7,0c-13.7,7.5-27.6,14.6-41.4,22c-6.5,3.5-13,4.1-19.3-0.3c-6.3-4.3-7.6-10.6-6.4-17.7   c2.6-15.6,5.1-31.1,8-46.6c0.7-3.9-0.1-6.6-2.9-9.3c-11.3-10.8-22.4-21.9-33.6-32.8c-5.7-5.6-8.4-11.8-5.2-19.8   c2.9-7.3,8.7-9.8,16-10.8c15.6-2.1,31.3-4.2,46.8-7c2.6-0.5,5.4-3.7,6.7-6.3c6.8-13.1,13.2-26.5,19.7-39.8   C206.5,338.8,211.4,334.5,220.6,334.4z M186.8,486.6c0.1,2.2,1.5,3.4,4.7,1.8c6.4-3.3,12.7-6.6,19.1-9.9c5.9-3.1,11.9-3.1,17.7-0.2   c6.1,3,12.1,6.3,18.2,9.4c4.8,2.4,6.1,1.7,5.4-3.8c-0.7-6.1-1.6-12.2-3-18.2c-1.9-8,0.3-14.4,6.1-19.9c4.7-4.5,9.4-8.9,14-13.5   c1-1,1.9-2.7,1.7-3.8c-0.2-0.9-2.2-1.8-3.5-2c-5.7-1-11.5-1.8-17.3-2.5c-8.7-1-15.4-4.6-19-13.2c-2.2-5.2-4.8-10.2-7.5-15.2   c-0.9-1.6-2.3-3-3.5-4.4c-1.4,1.6-3.1,2.9-4,4.7c-2.9,5.4-5.5,11-8.2,16.5c-2.7,5.6-6.7,9.5-13,10.5c-7.6,1.2-15.1,2.4-22.7,3.6   c-1.2,0.2-2.3,0.9-3.5,1.4c0.5,1.3,0.8,2.9,1.7,3.8c4.2,4.3,8.3,8.7,12.9,12.6c8.2,6.8,9,15.3,6.9,24.9   C188.8,474.6,188,480,186.8,486.6z"
   id="path6"
   style="fill:#255ec6;fill-opacity:1" />
	<path
   d="M689.9,891.3c-8-0.5-14.7-5.6-16.4-12.8c-1.9-8.3,1.6-15.8,9.8-19.8c9-4.4,18-8.5,27-12.8   c81.2-38.7,162.4-77.4,243.7-116.1c35.3-16.8,70.6-33.6,105.9-50.4c7.2-3.4,14.1-3.7,20.6,1.6c7.3,6,8.2,21.7-3.6,27.4   c-14.5,7.1-29.1,14-43.6,20.9c-42.2,20.1-84.4,40.2-126.6,60.3c-69.5,33.1-139.1,66.1-208.7,99.1   C695.4,890,692.6,890.5,689.9,891.3z"
   id="path8"
   style="fill:#255ec6;fill-opacity:1" />
	<path
   d="M563.1,572.5c-2.1,25-3.3,50.2-6.5,75.1c-3.8,30-9.8,59.7-20.2,88.3c-10.5,28.9-22,57.4-33.2,86c-2.8,7.3-6,14.5-9.1,21.6   c-4.2,9.6-13.3,13.7-21.9,10.2c-9.2-3.8-13-12.7-8.9-22.8c8.7-21.6,17.7-43.1,26.6-64.6c11.6-28.2,20.4-57.2,27.1-87   c7.5-33.6,11-67.7,11.4-101.9c0.3-24.6-0.8-49.3-5.1-73.6c-2.2-12.4-4.3-24.9-6.4-37.3c-0.5-3.1-0.9-6.3-0.8-9.4   c0.2-8.4,6.7-14.7,15.4-15.5c7.3-0.7,15.5,5.3,17.1,12.7c8.4,39,13.3,78.3,13.1,118.3C562.2,572.5,562.6,572.5,563.1,572.5z"
   id="path10"
   style="fill:#255ec6;fill-opacity:1" />
	<path
   d="M812.8,961.8c-24.2,1.8-47.8,2.8-71.2,5.7c-24.1,3-47.9,7.8-71.9,11.8c-4.6,0.8-9.2,1.7-13.8,2.3c-8,1.1-16.5-5-18.4-13   c-1.9-8.1,2.5-16.7,10.5-19.2c5.7-1.8,11.6-2.9,17.5-3.7c34.2-5,68.3-11,102.7-14.3c34.8-3.3,69.9-3.1,104.7,1.4   c24.5,3.2,49.1,6.8,73.2,12.4c24.5,5.7,48.5,13.9,72.6,21.3c10.3,3.2,15.4,12.5,12.3,21.1c-3.5,10-13.1,14.5-23.5,10.5   c-24.4-9.3-49.5-16.7-75-22c-19.2-4-38.6-6.9-58.1-9.1C853.9,964.5,833.1,963.4,812.8,961.8z"
   id="path12"
   style="fill:#255ec6;fill-opacity:1" />
	<path
   d="M843.4,532c14.8,0,29.7,0,44.5,0c10.7,0,17,6.3,17,17.1c0.1,30,0.1,60,0,90c0,9.9-6.1,16.5-16.1,16.5   c-30.5,0.2-61,0.2-91.5,0c-9.8-0.1-16.1-6.7-16.1-16.6c-0.1-30-0.1-60,0-90c0-10.8,6.4-17,17.2-17C813.4,532,828.4,532,843.4,532z    M872,594c0-7.5-0.1-15,0-22.5c0.1-4.4-1.6-6.5-6.1-6.4c-15.2,0.1-30.3,0.1-45.5,0c-4.7,0-6.5,2.1-6.4,6.7   c0.2,14.8,0.1,29.6,0,44.5c0,4.6,1.8,6.7,6.5,6.7c15.2-0.1,30.3-0.1,45.5,0c4.2,0,6.1-1.8,6.1-6C872,609.3,872,601.6,872,594z"
   id="path14"
   style="fill:#255ec6;fill-opacity:1" />
	<path
   d="M565.3,873.2c-9.3-0.9-14.6-3.9-17.5-10.6c-3.2-7.3-1.1-13.6,4.1-18.7c7.4-7.2,15.2-14,22.9-20.9   c24.7-22.2,49.3-44.3,74-66.5c27.6-24.8,55.2-49.8,82.9-74.5c10.7-9.5,25.6-4.8,28.6,9.1c1.4,6.6-1.8,12-6.6,16.3   c-15.9,14.4-31.9,28.8-47.9,43.1c-27.4,24.6-54.7,49.3-82.1,73.9c-15.7,14.1-31.3,28.4-47.3,42.3   C572.7,870,567.9,871.7,565.3,873.2z"
   id="path16"
   style="fill:#255ec6;fill-opacity:1" />
	<path
   d="M671.7,583.5c-31.2-0.1-53.2-24-53-52.9c0.2-30.4,23.7-52.7,53.3-52.5c29.7,0.2,53.4,24,52.5,53.9   C723.6,561.3,701.2,583.4,671.7,583.5z M652.6,530.5c-0.1,11,8.1,19.6,18.9,19.7c10.6,0.1,19.1-8.6,19.1-19.5   c0-10.3-8.8-19.3-18.9-19.4C661.7,511.1,652.7,520.2,652.6,530.5z"
   id="path18"
   style="fill:#255ec6;fill-opacity:1" />
	<path
   d="M1052.9,1036.8c-1-28,22.4-52.7,52.9-52.8c29.1,0,52.4,23.7,52.3,53.1c-0.1,29.6-23.5,52.7-53.1,52.7   C1076.9,1089.8,1051.8,1066.4,1052.9,1036.8z M1105.4,1017.8c-10.4,0-19.1,8.5-19.3,18.8c-0.2,10.6,8.4,19.4,19.1,19.5   c10.5,0.1,19.7-8.7,19.7-19C1124.9,1026.8,1115.9,1017.8,1105.4,1017.8z"
   id="path20"
   style="fill:#255ec6;fill-opacity:1" />
	<path
   d="M508.5,402.9c-19.1-0.1-34.6-15.6-34.3-34.9c0.4-23.8,17.8-34.1,34.8-35.3c18.1-1.3,34.7,16.5,34.7,35.5   C543.8,387.5,528,403,508.5,402.9z"
   id="path22"
   style="fill:#255ec6;fill-opacity:1" />
	<path
   d="M1032.2,359.5c-0.3,4.3,0.1,8.8-1,12.9c-2.4,8.7-9.4,13-18.1,12.1c-8.2-0.9-14-6.8-14.7-15.7c-0.5-6.5-0.5-13,0-19.5   c0.6-8.6,7.3-15.3,15.6-16.6c7.6-1.2,17.4,7.7,17.9,16.3c0.2,3.5,0,7,0,10.5C1031.9,359.5,1032,359.5,1032.2,359.5z"
   id="path24"
   style="fill:#255ec6;fill-opacity:1" />
	<path
   d="M1032.1,450c-0.2,4.1,0.2,8.4-0.7,12.4c-1.8,7.7-8.2,12.5-15.9,12.7c-8.1,0.1-15.1-4.2-16.2-12.5   c-1.2-8.9-1.1-18.2,0.3-27.1c1.3-8.4,9.6-12.6,18.9-11.3c6.9,1,13,7.9,13.4,15.3c0.2,3.5,0,7,0,10.5   C1031.9,450,1032,450,1032.1,450z"
   id="path26"
   style="fill:#255ec6;fill-opacity:1" />
	<path
   d="M1168.4,710.7c-5.1-0.7-10.3-0.6-15.2-2.1c-7-2.2-10.4-8.5-9.9-16.1c0.4-7.4,4.3-13.6,11.4-14.4c9.1-1.1,18.6-1.3,27.6-0.1   c8.1,1.1,13.3,9.7,12.1,17.1c-1.4,8.9-7.8,14.9-16.5,15.1c-3.2,0.1-6.3,0-9.5,0C1168.4,710.3,1168.4,710.5,1168.4,710.7z"
   id="path28"
   style="fill:#255ec6;fill-opacity:1" />
	<path
   d="M970.3,387.1c5.7,0.9,11.6,1.1,16.9,3c5.9,2.2,9.4,10.1,8.6,16.1c-1,7-6.3,13.3-13.1,13.9c-8.4,0.7-17,0.8-25.4,0.1   c-8.5-0.8-13.5-8.6-12.8-17.9c0.6-8,7-14,15.2-14.3c3.5-0.1,7,0,10.5,0C970.2,387.7,970.2,387.4,970.3,387.1z"
   id="path30"
   style="fill:#255ec6;fill-opacity:1" />
	<path
   d="M1103.9,774.8c0,3.5,0.1,7,0,10.5c-0.3,7.9-6.9,14.3-15.2,15.1c-8.1,0.8-16.2-4.3-17-12.1c-0.9-8.9-0.9-18,0-26.8   c0.8-7.9,8.9-13,16.9-12.1c8.6,0.9,14.9,7,15.3,15C1104,767.8,1103.9,771.3,1103.9,774.8z"
   id="path32"
   style="fill:#255ec6;fill-opacity:1" />
	<path
   d="M1060.6,421.2c-4.6-0.3-9.1-0.3-13.5-1c-7.6-1.3-13.2-9.1-12.6-16.9c0.7-8.5,7-15,15-15.2c7.1-0.2,14.3-0.2,21.5,0   c7.9,0.2,13.9,6.4,14.7,14.8c0.8,8.3-4.2,15.8-11.8,17.3C1069.5,420.9,1065,420.8,1060.6,421.2z"
   id="path34"
   style="fill:#255ec6;fill-opacity:1" />
	<path
   d="M1168.8,630.5c-2.1,3.8-3.6,8.1-6.3,11.4c-3.5,4.4-7.8,8.2-11.9,12.1c-7.4,6.9-17.6,6.8-24.2,0c-6.2-6.4-5.9-17,0.8-23.8   c4.3-4.4,8.5-9,13.1-13c5.4-4.6,11.7-5.6,18.1-2.2C1164.4,618.1,1167.7,623,1168.8,630.5z"
   id="path36"
   style="fill:#255ec6;fill-opacity:1" />
	<path
   d="M1104.7,612.2c-0.8,5.5-0.9,11.3-2.7,16.5c-2.2,6.3-10.3,10.2-16.7,9.2c-7.3-1.1-13.2-6-13.8-13.1   c-0.7-8.2-0.9-16.7,0-24.9c1-9.3,8-13.7,18.5-12.9c7.6,0.5,13.7,7.4,13.9,15.6c0.1,3.2,0,6.3,0,9.5   C1104.2,612.1,1104.4,612.1,1104.7,612.2z"
   id="path38"
   style="fill:#255ec6;fill-opacity:1" />
	<path
   d="M1025.2,612.7c2.5,1.3,6.8,2.6,10,5.1c4.7,3.7,8.7,8.2,12.8,12.6c6.5,7.1,6.5,16.4,0.2,23c-6.5,6.8-16.1,7.4-23.3,1   c-5.1-4.5-10-9.3-14.3-14.6c-4.4-5.3-4.6-11.8-1.6-17.9C1011.8,616.2,1017.2,613.7,1025.2,612.7z"
   id="path40"
   style="fill:#255ec6;fill-opacity:1" />
	<path
   d="M1167.9,756.1c-0.5,8.1-3.4,13.1-9.9,16.2c-6.5,3.1-12.5,2-17.6-2.4c-5-4.3-9.6-9.2-14.2-14c-5.2-5.6-5.4-15.2-0.7-21.2   c4.6-5.9,14.7-8.9,20.6-4.4c7.3,5.6,13.4,12.7,19.7,19.5C1167.4,751.5,1167.4,754.6,1167.9,756.1z"
   id="path42"
   style="fill:#255ec6;fill-opacity:1" />
</g>
</svg>