<?xml version="1.0" encoding="utf-8"?>
<!-- Generator: Adobe Illustrator 22.1.0, SVG Export Plug-In . SVG Version: 6.00 Build 0)  -->
<svg version="1.1" id="Layer_1" xmlns="http://www.w3.org/2000/svg" xmlns:xlink="http://www.w3.org/1999/xlink" x="0px" y="0px"
	 viewBox="0 0 612 792" style="enable-background:new 0 0 612 792;" xml:space="preserve">
<style type="text/css">
	.st0{fill-rule:evenodd;clip-rule:evenodd;fill:#FFFFFF;stroke:#808FC2;stroke-width:1.0001;stroke-miterlimit:22.9256;}
	.st1{fill-rule:evenodd;clip-rule:evenodd;fill:#BF0811;stroke:#8190C3;stroke-width:0.216;stroke-miterlimit:22.9256;}
	.st2{fill-rule:evenodd;clip-rule:evenodd;fill:#00377C;}
	.st3{fill-rule:evenodd;clip-rule:evenodd;fill:#00377C;stroke:#FFFFFF;stroke-width:1.0001;stroke-miterlimit:22.9256;}
	.st4{fill-rule:evenodd;clip-rule:evenodd;fill:#FFFFFF;stroke:#00377C;stroke-width:1.0001;stroke-miterlimit:22.9256;}
	.st5{fill-rule:evenodd;clip-rule:evenodd;fill:#FFFFFF;}
	.st6{fill-rule:evenodd;clip-rule:evenodd;fill:none;stroke:#00377C;stroke-width:1.0001;stroke-miterlimit:22.9256;}
</style>
<polygon class="st0" points="46.8,191.4 46.8,191.4 50.6,199 52.8,201.9 55.2,204 57.8,205.8 60.6,206.8 63.5,207.7 66.7,208 
	69.9,208.1 73.2,208 76.6,207.7 80.2,207.2 83.7,206.7 87.2,206.2 90.8,205.8 94.4,205.5 97.9,205.4 101.4,205.5 104.8,206 
	108.2,206.8 111.5,208.1 114.6,209.9 117.6,212.3 120.4,215.2 123.2,218.8 125.6,223.3 127.9,228.4 130,234.5 131.8,241.3 
	133.3,249.4 134.6,258.4 135.5,268.4 136.5,257.2 139.4,246.7 144,236.8 150.4,227.8 158.3,219.2 167.4,211.4 177.9,204.5 
	189.6,198.2 202.3,192.7 215.9,187.8 230.1,183.8 245.1,180.4 260.5,177.6 276.4,175.8 292.5,174.5 308.8,174 325,174.2 
	341.1,175.3 357,177.1 372.4,179.5 387.5,182.7 401.8,186.8 415.4,191.6 428.1,197 439.8,203.3 450.4,210.4 459.7,218.1 
	467.6,226.6 473.9,235.9 478.8,246 481.7,256.8 482.8,268.4 484.9,261.4 486.8,255.2 488.6,249.5 490.3,244.4 492,240 493.6,236.1 
	495.2,232.8 496.7,229.9 498.3,227.4 499.9,225.3 501.4,223.6 503.1,222.1 504.7,221 506.6,220 508.5,219.1 510.3,218.4 512.5,218 
	514.7,217.2 517.1,216.8 519.6,216.2 522.3,215.5 525.3,214.8 528.5,213.7 531.9,212.5 535.4,211.1 539.4,209.4 543.6,207.3 
	548,205 552.9,202 558,198.7 563.5,194.8 569.2,190.5 569.2,193.4 569.2,196.8 569.2,200.7 569.1,205 569,209.8 569,214.9 
	568.9,220.3 568.8,226.1 568.6,232.2 568.5,238.5 568.4,245 568.3,251.6 568.2,258.5 568.1,265.4 567.9,272.4 567.8,279.4 
	567.6,286.5 567.5,293.4 567.2,300.4 567.1,307.3 567,314 566.9,320.6 566.8,326.9 566.6,333.1 566.6,338.8 566.5,344.4 
	566.4,349.6 566.3,354.4 566.3,358.9 566.3,362.9 566.2,366.5 566.2,369.5 560.6,366.1 555.4,363.5 550.7,361.5 546.3,360.1 
	542.4,359.2 538.6,358.6 535.3,358.5 532.1,358.6 529.3,358.9 526.7,359.5 524.3,360.2 522.1,360.9 520.2,361.7 518.3,362.3 
	516.6,362.8 514.9,363.1 513.4,363.1 511.9,362.8 510.3,362.1 508.9,361.1 507.3,359.4 505.9,357.2 504.2,354.3 502.4,350.8 
	500.7,346.4 498.7,341.2 496.5,335.2 494.3,328.1 491.7,320.1 489,310.9 486.1,300.7 482.8,289.2 481.2,301.1 477.8,312.4 
	472.8,322.7 466,332.2 457.9,341 448.4,348.9 437.7,356.1 425.9,362.3 413,367.9 399.5,372.6 385.1,376.5 370.2,379.8 354.7,382.2 
	338.9,383.9 322.9,384.8 306.8,384.9 290.6,384.3 274.8,382.9 259.1,380.9 243.8,378.1 228.9,374.5 214.8,370.3 201.4,365.3 
	188.9,359.6 177.3,353.1 167,346.2 157.9,338.3 150.1,329.9 143.9,320.6 139.3,310.8 136.5,300.3 135.5,289.2 134.6,299.5 
	133.5,308.7 132,317.1 130.3,324.4 128.3,330.9 126.2,336.5 123.7,341.3 121.2,345.5 118.4,349 115.5,351.8 112.3,354.1 
	109.1,355.9 105.8,357.2 102.4,358.1 99,358.8 95.5,359.2 91.8,359.3 88.3,359.2 84.6,358.9 81.1,358.7 77.6,358.5 74.1,358.2 
	70.6,358.1 67.3,358.1 64,358.3 60.9,358.8 57.9,359.6 55.1,360.8 52.5,362.5 50,364.6 47.8,367.3 45.8,370.5 45.8,367.5 45.8,364 
	45.8,360 45.8,355.6 45.8,350.8 45.8,345.6 45.9,340 46,334.1 46,328 46,321.7 46,315.2 46.1,308.3 46.1,301.5 46.2,294.7 
	46.2,287.6 46.2,280.4 46.4,273.5 46.4,266.5 46.5,259.5 46.5,252.7 46.6,246.1 46.6,239.6 46.6,233.2 46.7,227.2 46.7,221.4 
	46.7,215.8 46.7,210.7 46.7,206 46.8,201.6 46.8,197.7 46.8,194.3 "/>
<polygon class="st1" points="140.6,277.2 140.6,277.2 139.3,288.5 140.1,299.3 142.9,309.4 147.6,318.9 154.1,327.7 162.2,336 
	171.8,343.6 182.7,350.5 194.7,356.7 207.9,362.2 222,367.1 236.8,371.1 252.2,374.5 268.1,377.1 284.4,378.9 300.9,380 
	317.4,380.2 333.9,379.6 350,378.2 365.9,375.9 381.2,372.9 395.9,368.9 409.8,364 422.8,358.3 434.7,351.6 445.4,344 454.8,335.5 
	462.6,326.1 468.9,315.6 473.3,304.1 475.9,291.7 476.4,278.2 477.9,267.2 477.2,256.6 474.6,246.8 470,237.4 463.7,228.8 
	455.7,220.8 446.1,213.5 435.4,206.8 423.4,200.8 410.3,195.5 396.4,190.9 381.6,187 366.3,183.9 350.3,181.4 334.1,179.8 
	317.7,178.8 301.1,178.7 284.7,179.3 268.5,180.7 252.6,183 237.2,186 222.4,190.1 208.4,194.7 195.3,200.2 183.3,206.7 172.5,214 
	163,222.3 154.9,231.4 148.6,241.5 144,252.4 141.3,264.3 "/>
<polygon class="st1" points="54.1,209.7 54.1,209.7 54.1,211.9 54,214.2 53.7,216.6 53.5,219.1 53.1,221.7 52.8,224.4 52.4,227.1 
	52.1,230 51.8,232.8 51.5,235.6 51.4,238.4 51.2,241.3 51.4,244 51.5,246.7 51.7,249.3 52.2,251.9 52.9,254.3 53.7,256.6 
	54.8,258.8 56.1,260.9 57.6,262.7 59.5,264.3 61.6,265.8 63.9,266.9 66.8,267.9 69.8,268.6 73.3,268.9 77.1,269.1 81.5,268.8 
	86.1,268.4 91.2,267.4 96.8,266.2 96.5,267.6 95.9,268.7 95.2,269.6 94.5,270.6 93.5,271.3 92.5,271.9 91.4,272.2 90.1,272.7 
	88.8,273 87.4,273.1 86,273.2 84.3,273.3 82.7,273.4 81.1,273.4 79.4,273.4 77.6,273.4 75.9,273.4 74.1,273.4 72.3,273.6 
	70.5,273.6 68.7,273.8 66.9,274 65.3,274.4 63.5,274.8 61.8,275.4 60.2,276.2 58.7,276.9 57.1,277.9 55.7,279 54.4,280.4 
	53.1,281.8 51.9,283.6 53.8,285.4 55.8,286.9 58,288.4 60.2,289.7 62.6,291 64.9,292.1 67.4,293.2 70,294.1 72.4,294.8 75,295.6 
	77.6,296.4 80.2,297 82.7,297.4 85.3,298 87.7,298.5 90.1,299 92.5,299.3 94.7,299.8 96.8,300.1 98.7,300.6 100.6,301 102.2,301.4 
	103.8,301.9 105.2,302.4 106.3,303 107.2,303.6 107.9,304.2 108.4,305 108.6,305.8 108.5,306.6 108.1,307.6 107.5,308.6 
	102.9,308.9 98.5,308.6 94.2,308.2 90.2,307.5 86.5,306.6 82.7,305.6 79.3,304.4 76,303.2 73,301.9 70.1,300.6 67.4,299.6 
	64.9,298.4 62.6,297.4 60.4,296.6 58.5,296.1 56.8,295.8 55.2,295.8 53.8,296 52.6,296.7 51.6,297.9 50.8,299.4 50.2,301.4 
	49.7,304 49.5,307.2 49.5,311.1 49.5,315.6 49.8,320.7 50.3,326.6 51,333.3 51.8,340.8 52.9,349.3 54.1,358.5 56.5,356.3 59,354.7 
	61.7,353.4 64.3,352.7 67,352.2 69.8,352.1 72.7,352.2 75.5,352.6 78.4,353 81.3,353.6 84.2,354.1 87.2,354.7 90,355.2 92.8,355.6 
	95.6,355.8 98.5,355.7 101.2,355.3 103.9,354.7 106.5,353.7 109,352.1 111.4,350.2 113.8,347.6 116,344.6 118.1,340.8 120.1,336.3 
	122,331 123.8,324.8 125.3,318 126.7,310.1 128,301.3 129.1,291.4 130,280.4 129.2,269.6 128.2,259.8 126.8,251.1 125.6,243.3 
	123.9,236.4 122.1,230.4 120.3,225.2 118.2,220.8 116,217.2 113.8,214.1 111.3,211.6 108.8,209.9 106.3,208.4 103.5,207.5 
	100.8,206.9 98,206.8 95.1,206.9 92.2,207.4 89.3,208 86.5,208.7 83.5,209.5 80.6,210.3 77.6,211.2 74.8,212 72,212.6 69.1,213 
	66.4,213.4 63.8,213.4 61.2,213 58.8,212.5 56.3,211.3 "/>
<polygon class="st1" points="563.8,199.2 563.8,199.2 561.3,201.5 558.6,203.6 556,205.4 553.3,207.1 550.6,208.5 547.8,209.8 
	545,210.9 542.1,211.8 539.3,212.8 536.5,213.6 533.6,214.4 530.8,215.2 528,216.1 525.3,217 522.6,218.1 519.9,219.2 517.2,220.4 
	514.6,222 512,223.7 509.6,225.6 507.1,227.9 504.8,230.2 502.5,233.2 500.4,236.4 498.4,239.9 496.5,244 494.8,248.3 493.1,253.2 
	491.6,258.7 490.2,264.6 489,271.1 487.8,278.2 489.2,288.1 490.5,297.3 491.9,305.5 493.4,312.9 494.9,319.7 496.3,325.6 
	497.9,330.9 499.5,335.5 501.3,339.5 502.9,343.1 504.7,346.1 506.5,348.5 508.4,350.7 510.4,352.3 512.5,353.6 514.6,354.6 
	516.7,355.3 518.9,355.6 521.3,355.9 523.6,355.9 526.1,355.9 528.6,355.6 531.3,355.4 534,355.1 536.8,354.9 539.8,354.8 
	542.7,354.8 545.9,354.8 549.1,355.1 552.4,355.6 555.8,356.3 559.3,357.4 558.6,355.7 558,354 557.8,351.8 557.6,349.6 
	557.6,347.3 557.7,344.9 557.9,342.3 558.2,339.5 558.5,336.8 559,334.1 559.3,331.3 559.8,328.5 560.2,325.7 560.5,323 
	560.7,320.4 561,317.9 561.1,315.5 561,313.1 560.7,311 560.3,309.1 559.7,307.3 558.9,305.8 557.8,304.5 556.3,303.4 554.7,302.7 
	552.6,302.3 550.4,302.2 547.7,302.5 544.5,303.2 541.1,304.2 537.1,305.6 532.7,307.7 536.6,304.8 540.1,302.8 543.5,301.4 
	546.6,300.4 549.3,299.9 551.8,299.5 553.9,299.3 555.9,298.9 557.4,298.4 558.9,297.5 559.8,296.2 560.6,294.2 561,291.5 
	561.1,287.7 561,283.1 560.5,277.2 558.5,276 556.6,275 554.7,274.1 552.8,273.1 550.8,272.3 549,271.6 547.1,270.9 545.2,270.2 
	543.3,269.5 541.4,268.8 539.4,267.9 537.5,267.2 535.5,266.3 533.6,265.3 531.6,264.3 529.6,263.2 528.7,261.1 528.1,259.7 
	527.9,258.6 527.9,258 528.1,257.9 528.6,258 529.4,258.4 530.3,259 531.5,259.8 532.8,260.7 534.2,261.8 535.9,262.7 537.5,263.7 
	539.3,264.5 541.2,265.2 543.1,265.7 545.1,265.9 547,265.7 549,265.2 550.8,264.3 552.6,262.8 554.4,260.8 556.2,258.2 557.7,255 
	559.2,251.2 560.5,246.4 561.5,240.9 562.4,234.5 563.2,227.2 563.7,218.9 563.8,209.6 "/>
<path class="st2" d="M101.4,440c0,2.2-0.4,4-0.8,5.1c-0.6,1.6-1.8,3-3.5,4.2c-0.4,0.5-1.6,1.6-3.3,3.2c-2.4,2.6-5.1,4-8,4
	c-5.3,0-10.1-1.6-14-4.4c-3.3-2.4-5-4.8-5-6.8c0-0.6,0.4-1.4,0.8-1.8c0.6-0.4,1.6-0.8,2.4-0.8c2.1,2,4.5,4,6.6,5.6
	c2.5,1.6,5.1,2.6,7.6,2.6c1.7,0,3.5-0.8,5.1-2.2c1.2-1.2,2.9-2.8,4.1-4c0.6-0.6,1.2-1.4,1.4-2.2c0.4-0.8,0.6-1.8,0.6-2.6
	c0-3.8-2.1-7-6-9c-3.7-1.4-7.4-3-11.1-4.6c-3.7-1.8-5.7-4.4-5.7-7.6c0-2.6,1.2-4.8,3.3-6.2c2.1-1.4,5.1-2.2,8.4-2.2
	c2.4,0,4.9,0.4,6.9,0.8c2.1,0.6,3.1,1.4,3.1,1.7c0,0.8-0.2,1.8-0.4,2.6c-0.4,0.8-1,1.4-1.7,1.4c-0.8-0.4-2.3-0.8-3.9-1.2
	c-1.6-0.4-3.3-0.6-4.7-0.6c-1.4,0-2.9,0.4-3.7,0.8c-0.8,0.4-1.5,1.4-1.5,2.2c0,1.8,2.1,3.6,5.8,5c5.7,2.2,9.6,3.9,10.9,4.8
	C99.4,430.8,101.4,434.8,101.4,440L101.4,440z M137.4,432.6c-0.5,3.6-0.8,7.2-1,10.4c-0.5,3.2-0.6,6-0.6,7.6c0,1.2,0.2,2.4,0.2,3.6
	c0,1.2,0.5,2.6,0.5,4c0,0.2-0.8,0.4-2.3,0.4c-0.8,0-1.7,0-2.1,0c-0.6,0-1.3-0.4-1.3-0.4c0-0.2-0.4-1.2-0.4-2.6
	c0-1.4-0.2-2.6-0.2-3.2c-1.2,1.6-2.9,3-4.3,3.6c-1,0.4-2.4,0.8-3.9,0.8c-3.7,0-6.8-1.6-8.8-4.6c-2.4-3.6-3.9-9.8-3.9-17.7
	c0-2,0.3-4.4,0.3-6.8c0-0.8,0.4-1.8,0.4-3c0.2-0.6,0.8-1.2,1.4-1.6c0.6-0.4,1.5-0.6,2.3-0.6c0.6,0,1.3,0.2,1.7,0.6
	c0.4,0.5,0.8,1,0.8,1.6c0,0-0.2,1.4-0.2,3.6c0,2.2-0.3,4-0.3,4.8c0,4.4,0.5,8.4,1.2,11.6c0.8,4,2.5,6,4.1,6c2.3,0,4.6-1,6.2-2.8
	c1.2-1.4,2.4-3.4,3.1-5.6c0.4-3.2,0.8-6.6,1-9.8c0-0.2,0.4-0.6,0.8-0.6c0.4,0,1.2-0.2,1.6-0.2c0.8,0,1.9,0.2,2.4,0.2
	c0.8,0.2,1.3,0.6,1.3,1V432.6L137.4,432.6z M134.7,414.8c0,1-0.8,2-2.3,2.8c-0.8,0.4-2.1,1-2.9,1c-1,0-2.3,0.6-3.1,1
	c-0.8,0.4-2,1.2-2.8,1.6c-0.5,0-0.8-0.5-1.2-0.8c-0.4-0.4-0.8-1.2-0.8-1.6c0-0.8,0.6-1.8,1.9-2.6c1.2-1,2.4-2,3.7-2.4
	c0.2,0,1-0.6,2.3-1.2c1.2-0.6,2.1-1,2.4-1c0.8,0,1.7,0.4,2.1,1C134.3,413.3,134.7,414.1,134.7,414.8L134.7,414.8z M176.3,437.4
	c0,1.4-0.5,3-1.2,4.4c-0.6,0.8-1.5,2-1.9,3c-1,3-3.1,5.8-5.5,8c-2.9,2.2-6,3.4-9.3,3.4c-2.3,0-4.7-0.8-6.9-2c-1.7-1-3.3-2.4-4.3-3.8
	c0,0.8-0.2,2.6-0.5,4.8c-0.4,2.4-0.6,4.2-0.6,5c0,0.6,0.2,1.4,0.2,1.8c0.4,1.6,0.6,2.8,0.6,3c0,0.8-0.4,1.6-0.8,2
	c-0.6,0.6-1.5,1-2.1,1c-1.2,0-2.1-0.8-2.4-2.4c-0.5-1.6-0.8-3.6-0.8-5.4c0-2,0.4-4.8,0.8-8c0.6-3.2,1-5.8,1-7
	c-0.4-0.4-0.8-0.8-0.8-1.2c-0.2-0.4-0.5-1.2-0.5-1.6s0.3-1,0.3-1.2c0-0.4,0.6-1,1-1.4c0-5-0.3-8.6-0.3-10.6c-0.2-2-0.4-3.7-0.4-5.1
	c0-0.4,0.2-0.8,0.6-1c0.4-0.2,1-0.4,1.6-0.4c0.6,0,1.4,0.2,1.9,0.4c0.6,0.3,1,0.6,1,0.8l0.2,4.6c1.2-1.6,3.3-3,5.5-3.8
	c2.3-0.8,4.7-1.4,6.8-1.4c4.1,0,7.8,1.4,11.1,4.2C174.5,430.2,176.3,433.6,176.3,437.4L176.3,437.4z M170.6,437.4
	c0-1.6-1.2-3.4-3.3-5.2c-2.4-2.2-5.1-3.4-7.8-3.4c-2.8,0-5.5,1-8,3c-2.1,1.6-3.5,3.2-3.7,4.6l-0.4,5.8c1.6,2.4,3.1,4.4,4.1,5.6
	c2.1,1.8,4.3,2.8,6.6,2.8c3.3,0,6.4-2.4,9.2-6.8c1-1.6,2.3-3.6,3.3-5.2V437.4L170.6,437.4z M216.1,456.3c0,1.2-1,2-2.7,2.4
	c-1.6,0.4-4.9,0.8-9,0.8c-4.1,0-8-0.6-11.3-1.8c-4.1-1.6-7.6-4.6-10-8.4c-0.2,0-0.6,0-0.6,0c-0.5,0-1-0.4-1.5-1
	c-0.4-0.8-0.8-1.6-0.8-2.2c0-0.8,0.3-1.4,0.6-1.6c-0.2-0.8-0.4-1.6-0.4-2c0-0.4-0.3-1.2-0.3-2c0-4.6,1.5-8.7,3.9-12
	c3.1-3.8,7.8-5.8,13.6-5.8c3.9,0,7.8,1.8,11.1,5c3.3,2.8,5,5.3,5,7.6c0,2-1.3,3.5-3.5,4.4c-3.1,0.6-6.4,1.4-9.2,2
	c-5,1-9.5,2.8-13.1,5c1.2,2.6,3.7,4.6,6.9,5.8c2.6,1,6,1.6,9.5,1.6c1.6,0,3.5-0.2,4.7-0.2c1.5-0.2,3.1-0.6,4.3-1
	c0.8,0,1.7,0.4,2.1,1c0.4,0.6,0.8,1.4,0.8,2.2V456.3L216.1,456.3z M206.9,434.6c-0.8-1.2-1.8-2.4-2.4-3c-2.1-2.2-4.7-3.4-7.4-3.4
	c-3.1,0-5.9,1.4-8,3.8c-2.3,2.4-3.5,5.4-3.5,8.4v1.4c2.5-1.2,5.8-2.4,9.5-3.6c3.9-1.2,8-2.4,11.9-3.4V434.6L206.9,434.6z M242,424.6
	c0,0.6-0.2,1.2-0.2,1.2c-0.2,0.6-0.6,1-1,1c-1,0-3.3,1.4-6.2,3.8c-3.1,2.6-5.1,5-5.5,7c0,2.2-0.2,4.2-0.6,5.3
	c-0.4,3.2-0.8,5.6-0.8,7c0,2.8-0.3,4.6-0.5,5c-0.2,0.4-1,0.8-2.3,0.8c-1.2,0-2.3-0.4-2.4-0.8c-0.5-0.6-0.6-2.2-0.6-4.2
	c0-1.2,0.2-3,0.2-5c0-0.8,0.3-1.6,0.3-2.2c0-0.4,0-1,0-1.4c0-0.6-0.3-1.2-0.3-1.6c0-1.6,0.5-3.4,1.3-5.1c0-2.4-0.3-4.6-0.4-6
	c-0.4-1.6-0.8-3.2-1-4.8c0-0.4,0.4-0.8,1-1.2c0.6-0.5,1.4-0.8,2.3-0.8c1,0,1.9,0.4,2.1,1c0.5,0.8,0.8,2.6,1,5.1
	c1.2-1.4,3.1-3,5.1-4.6c2.6-2,4.9-3,6.4-3c0.6,0,1.2,0.4,1.4,1c0.4,0.8,0.6,1.8,0.6,2.6L242,424.6L242,424.6z M303.3,436.2
	c0,4.8-1.9,9.4-5.1,13.4c-3.1,3.5-6.4,5.5-9.6,5.5c-0.2,0-1.2-0.2-2.6-0.2c-1.5,0-2.9-0.2-3.9-0.2c-1.6,0-3.7,0.2-5.7,0.4
	c0,0-1.9,0.5-5.5,1c0,0.8-0.5,1.4-1,1.8c-0.6,0.4-1.7,0.6-2.5,0.6c-1.2,0-2.3-0.4-2.3-1c-0.2,0-0.6,0.2-0.6,0.2c-0.5,0-0.8,0-1,0
	c-0.6,0-1.2-0.4-1.7-1c-0.4-0.6-0.6-1.6-0.6-2.4c0-0.8,0.4-1.8,1.2-2.2c0.4-0.2,1.4-0.6,2.6-0.8c0.2-2.6,0.8-6.4,1.2-10.7
	c0.5-3.2,0.8-6.9,1.3-10.5c0.4-3.8,0.8-6.8,0.8-8.4c0-1.6-0.4-3.6-1-5.8c-0.2-1-0.4-2-0.4-2.4c0-0.6,0.4-1.4,0.8-1.8
	c0.6-0.6,1.4-1,2.3-1c1.6,0,2.9,1.4,3.5,4c0.4,1.8,0.8,4.8,0.8,8.4c0,3.6-0.8,9.4-2.3,17.4c-0.6,4-1,7.2-1,9.4
	c1.4,0,3.3-0.5,5.1-0.5c1.8,0,3.9-0.2,5.7-0.2c0.4,0,1.4,0,2.4,0c1,0,2.1,0,2.7,0c2.1,0,4.3-1.2,6.4-3.3c2.6-2.6,4.1-6,4.1-9.8
	c0-5-2-9.4-5.7-13c-3.7-3.5-8.4-5.5-13.3-5.5c-1.2,0-2.1,0-2.5,0c-0.8-0.2-1.4-1.2-1.4-2.4c0-1.2,0.4-2,0.8-2.4
	c0.6-0.4,1.9-0.8,3.5-0.8c6.6,0,12.3,2.4,17.2,7.1c5,4.8,7.4,10.8,7.4,17.4V436.2L303.3,436.2z M339.4,432.6
	c-0.5,3.6-0.8,7.2-1,10.4c-0.5,3.2-0.6,6-0.6,7.6c0,1.2,0.2,2.4,0.2,3.6c0,1.2,0.5,2.6,0.5,4c0,0.2-0.8,0.4-2.3,0.4
	c-0.8,0-1.6,0-2,0c-0.6,0-1.3-0.4-1.3-0.4c0-0.2-0.4-1.2-0.4-2.6c0-1.4-0.2-2.6-0.2-3.2c-1.2,1.6-2.9,3-4.3,3.6
	c-1,0.4-2.4,0.8-3.9,0.8c-3.7,0-6.8-1.6-8.8-4.6c-2.4-3.6-3.9-9.8-3.9-17.7c0-2,0.3-4.4,0.3-6.8c0-0.8,0.4-1.8,0.4-3
	c0.2-0.6,0.8-1.2,1.4-1.6c0.6-0.4,1.5-0.6,2.3-0.6c0.6,0,1.3,0.2,1.7,0.6c0.4,0.5,0.8,1,0.8,1.6c0,0-0.3,1.4-0.3,3.6
	c0,2.2-0.2,4-0.2,4.8c0,4.4,0.5,8.4,1.2,11.6c0.8,4,2.5,6,4.1,6c2.3,0,4.5-1,6.2-2.8c1.2-1.4,2.4-3.4,3.1-5.6c0.4-3.2,0.8-6.6,1-9.8
	c0-0.2,0.4-0.6,0.8-0.6c0.4,0,1.2-0.2,1.6-0.2c0.8,0,1.9,0.2,2.4,0.2c0.8,0.2,1.3,0.6,1.3,1V432.6L339.4,432.6z M353.8,451.3
	c0,1.2-0.2,2.4-0.6,3c-0.4,0.8-1.2,1.2-2.1,1.2c-0.8,0-1.8-0.5-2.4-0.8c-0.6-0.6-1-1.6-1-2.4c0-1.6-0.4-4.2-1-7.8
	c-0.6-4.4-1.2-8.2-1.6-10.5c-0.5-5-0.8-9.8-0.8-14c0-0.6,0-1.8,0-3.2c0-1.4,0.2-2.4,0.2-2.4c0-1.2,0.4-2.2,0.8-2.8
	c0.4-0.6,1.2-1,2.1-1c0.8,0,1.8,0.4,2.4,0.8c0.6,0.6,1,1.4,1,2.2v5.3c0,5,0.4,10.4,0.8,15.8c0.6,5.4,1.4,11.2,2.3,16.8V451.3
	L353.8,451.3z M395.6,446.9c0,2-2.3,4.4-6.2,6.6c-4.5,2.4-10,3.5-16,3.5c-4.9,0-9.2-2.2-12.5-6.2c-3.1-3.8-4.8-8.2-4.8-12.9
	c0-4.4,1.5-8.4,3.9-11.2c2.8-3.2,7.6-5,13.3-5c2.4,0,5,0.6,6.8,1.6c2,1,3,2.4,3,4c0,0.8-0.4,1.5-0.8,2c-0.6,0.6-1.5,1-2.3,1
	c-0.5,0-1.9-0.6-3.9-1.6c-1-0.6-2.1-1-2.9-1c-3.7,0-6.4,1-8,2.6c-1.7,1.6-2.7,4.4-2.7,7.6c0,2.8,1,5.6,2.7,8
	c2.3,3.2,5.5,4.8,9.6,4.8c3.7,0,7.1-1.2,10-3.6c2.9-2.4,5.1-3.7,6.4-3.7c1,0,2.1,0.4,2.6,1c0.8,0.6,1.3,1.6,1.3,2.6H395.6
	L395.6,446.9z M436.7,456.3c0,1.2-1,2-2.7,2.4c-1.6,0.4-4.9,0.8-9,0.8c-4.1,0-8-0.6-11.3-1.8c-4.1-1.6-7.6-4.6-10.1-8.4
	c-0.2,0-0.6,0-0.6,0c-0.5,0-1-0.4-1.5-1c-0.4-0.8-0.8-1.6-0.8-2.2c0-0.8,0.2-1.4,0.6-1.6c-0.2-0.8-0.4-1.6-0.4-2
	c0-0.4-0.2-1.2-0.2-2c0-4.6,1.4-8.7,3.9-12c3.1-3.8,7.8-5.8,13.6-5.8c3.9,0,7.8,1.8,11.1,5c3.3,2.8,5,5.3,5,7.6c0,2-1.2,3.5-3.5,4.4
	c-3,0.6-6.3,1.4-9.2,2c-5,1-9.5,2.8-13.1,5c1.2,2.6,3.7,4.6,6.9,5.8c2.7,1,6,1.6,9.5,1.6c1.6,0,3.5-0.2,4.7-0.2
	c1.5-0.2,3.1-0.6,4.3-1c0.8,0,1.7,0.4,2.1,1c0.5,0.6,0.8,1.4,0.8,2.2V456.3L436.7,456.3z M427.4,434.6c-0.8-1.2-1.8-2.4-2.4-3
	c-2.1-2.2-4.7-3.4-7.4-3.4c-3.1,0-5.9,1.4-8,3.8c-2.3,2.4-3.5,5.4-3.5,8.4v1.4c2.4-1.2,5.7-2.4,9.4-3.6c3.9-1.2,8-2.4,11.9-3.4
	V434.6L427.4,434.6z M462.5,424.6c0,0.6-0.2,1.2-0.2,1.2c-0.2,0.6-0.6,1-1,1c-1,0-3.3,1.4-6.2,3.8c-3.1,2.6-5.1,5-5.5,7
	c0,2.2-0.2,4.2-0.6,5.3c-0.4,3.2-0.8,5.6-0.8,7c0,2.8-0.3,4.6-0.5,5c-0.2,0.4-1,0.8-2.3,0.8c-1.2,0-2.3-0.4-2.4-0.8
	c-0.4-0.6-0.6-2.2-0.6-4.2c0-1.2,0.3-3,0.3-5c0-0.8,0.2-1.6,0.2-2.2c0-0.4,0-1,0-1.4c0-0.6-0.2-1.2-0.2-1.6c0-1.6,0.4-3.4,1.2-5.1
	c0-2.4-0.3-4.6-0.5-6c-0.4-1.6-0.8-3.2-1-4.8c0-0.4,0.5-0.8,1-1.2c0.6-0.5,1.5-0.8,2.3-0.8c1,0,1.9,0.4,2.1,1c0.5,0.8,0.8,2.6,1,5.1
	c1.2-1.4,3.1-3,5.1-4.6c2.6-2,5-3,6.4-3c0.6,0,1.2,0.4,1.4,1c0.4,0.8,0.6,1.8,0.6,2.6L462.5,424.6L462.5,424.6z M475.6,428
	c0,2-0.4,4.4-1,6.8c-1.2,5.6-1.8,9.4-1.8,11c0,0.4,0.2,1.4,0.4,2.2c0.2,1,0.4,2,0.4,2.6c0,0.8-0.4,1.6-1,2c-0.6,0.4-1.6,0.8-2.4,0.8
	c-1.4,0-2.6-0.6-3.3-1.7c-0.6-1.2-1-3-1-4.8c0-1,0.6-4.4,1.4-9.8c0.4-2.8,0.8-5,0.8-6.4l-0.4-4c0-1.6,0.4-2.8,1-3.3
	c0.6-0.8,1.6-1.2,2.6-1.2c1.5,0,2.7,0.8,3.3,2.2c0.6,1,1,2.4,1,4V428L475.6,428z M481.6,412.6c0,1-0.8,2-2.3,2.8
	c-0.8,0.4-2.1,1-2.9,1c-1,0-2.3,0.6-3.1,1c-0.8,0.4-2.1,1-2.9,1.4c-0.4,0-0.8-0.2-1.2-0.6c-0.4-0.4-0.8-1.2-0.8-1.6
	c0-0.8,0.6-1.8,1.8-2.6c1.2-1,2.5-1.8,3.7-2.2c0.2,0,1-0.6,2.3-1.2c1.2-0.6,2.1-1,2.4-1c0.8,0,1.7,0.4,2.1,0.8
	c0.4,0.6,0.8,1.6,0.8,2.4V412.6L481.6,412.6z M514,455.1c0,1.6-1.2,2.4-3.3,2.4c-0.8,0-1.9-0.5-2.3-1.2c0,0-0.6-1-1.2-2.6
	c-1.5,1.4-3.5,2.6-5.8,3.3c-2.4,0.8-4.9,1.2-7.4,1.2c-5.3,0-9.6-2.2-12.7-6.4c-2.3-3.2-3.5-6.6-3.5-9.6c0-0.4,0-0.8,0-1.2
	c0-0.4,0.5-0.8,0.6-1.2c1.6-3,3.7-6.2,5.3-9.4c2.4-2.4,6.2-3.6,10.5-3.6h1.8c0,0,0.5-0.4,0.8-0.6c0.4-0.4,0.8-0.6,1-0.6
	c0.6,0,1.7,0.2,2.4,0.6c0.8,0.4,2.1,1.2,3.1,1.8l0.4-1.8c0.4-1.6,1.6-2.4,3.3-2.4c0.8,0,1.6,0.4,2.4,0.8c0.8,0.4,1.4,1.4,1.4,2.2
	c0,0.6-0.2,1.8-0.6,3.4c-0.3,0.8-0.4,1.6-0.4,2c0,0.8,0.4,2.8,1.2,5.4c0.8,2.6,1.5,4.8,1.5,6c0,1-0.2,2.6-0.4,4.6
	c0.3,0.8,0.6,1.8,0.8,2.4C513.6,452.3,514,453.9,514,455.1L514,455.1z M505.8,443.4c0-1.6-0.4-3.4-1-5.4c-0.6-2-1.4-3.2-1.8-3.2
	c0,0-0.6,0-1,0c-0.5,0-1,0.2-1.2,0.2c-1.3-0.6-2.7-1.4-3.7-1.8c-1.2-0.6-2.3-1-3.1-1c-1.6,0-3.3,0.6-4.9,1.4c-1.7,1-3.1,2.6-3.5,4.2
	c0,0.4-0.6,1-1,1.8c-0.4,0.8-0.8,1.8-0.8,2.4c1.6,7.6,5.1,11.3,10.4,11.3c3.3,0,6.2-1.2,8.4-3.3c2.1-2,3.3-4.4,3.3-6.4V443.4
	L505.8,443.4z M546,445.6c0,1.2-0.3,2.2-0.5,2.8c-0.4,0.8-1.6,2-2.8,3c-1.5,1.4-2.7,2.6-3.5,3.4c-1.6,1.2-3.5,2-5.5,2
	c-3.9,0-7.6-1-10.7-3c-2.6-1.8-4.1-3.6-4.1-5.2c0-0.6,0.4-1.4,1-2c0.6-0.6,1.5-1,2.1-1c1.7,1.5,3.3,3.2,5,4.4
	c1.6,1.2,3.7,1.8,5.5,1.8c1.2,0,2.4-0.6,3.7-1.6c1.2-1,2.4-2.2,3.7-3.4c0.4-0.4,0.8-1,0.8-1.4c0-1.2-1-3-3.1-5
	c-2.1-2-4.5-3.6-6.6-4.4c-3.3-1-5.5-2-6.4-2.4c-1.9-1.2-2.9-3-2.9-5.2c0-2,0.6-3.6,1.9-4.6c1.4-1.4,3.9-2.2,7.2-2.2
	c4.5,0,7.8,0.4,9.4,0.8c1,0.2,1.7,0.8,1.7,1.4c0,0.6-0.2,1.4-0.6,2.2c-0.4,0.8-0.8,1.4-1,1.4c-2.1-0.3-3.9-0.6-5.3-0.6
	c-1.6-0.2-3-0.4-3.9-0.4c-1.2,0-2.3,0.2-2.9,0.4c-0.6,0.2-1,0.8-1,1.2c0,0.8,1,1.8,2.7,2.6c1.4,0.4,3,1,4.3,1.4
	c4.1,1.8,7.3,4.4,9.4,7.4C545.2,441.6,546,443.8,546,445.6z"/>
<path class="st3" d="M195.8,230c13.4-3.2,31.5,0.3,43.9,6.4c0-12.7-8.5-21.2,6.4-31.9c5.6-1.4,7.8-1.5,12.6,0c2.3,0,6.4-1.9,8.6-2.5
	c15,0,29.9,8.9,31.4,24.4c0,2.9-0.4,6.2-0.6,9.2c5.8-4.7,16.1-8.3,23.7-5.8c-2.2-10.9-2.5-20.1,8.6-25.2c9.5-3.8,20.2-0.9,30.3-0.9
	c11.6,1.5,20.7,7.8,21.9,20.5c0.1,2.3,0.1,4.8-0.4,7c8.1-6.1,22.6-8.5,31.8-3.9c9.9,3.9,21.6,6.4,30,13.4
	c11.6-9.8,25.9-10.3,39.9-12.3c20.5,0,33.1,10.9,37.8,30.1c2.7,7.5,1.8,15.6-5.5,20.7c-0.3,0.3-0.9,1-1.3,1.4
	c3.4,1.7,6.7,8.5,7.9,12.1c4.1,22.6-16.4,24.4-32.4,26.2c-9,0.5-18.4,0.5-27.5,0.5c-6-2.3-10.4-4.7-16.1-8.1
	c-7.1,5.1-14.8,6.9-23.4,7.8c-15,1.1-32.4,0.4-45.4-7.8c-3.8,10.3-28.7,9-37.9,9c-3.4-1.1-6.2-2.4-8.9-4.8
	c-13.5,2.2-23.7,0-36.1-4.6c-4.3,8.8-27,8.6-34.8,7.1l0.1,0.8c-13.9,0.1-32,3.2-45.9-1l-2.9-1.5l-1.3-0.9
	c-13.7,4.6-33.4,2.3-42.3-10c-6.7,13.5-18.8,16.8-32.7,14.4c-19.6-3.1-27.7-21.6-31.2-39c-3.1-12.6-5.7-29.6-10.3-41.2
	c-5.1-7.6-7.9-15-4.2-24.3c3.8-7.8,10.8-10.4,18.8-10.4l10.7,2c13.2,0,22.8-1.7,30.5,10c6.2-10.4,18.4-16.7,30.4-12.6
	C190.4,208.1,195.8,219.2,195.8,230z"/>
<path class="st4" d="M183.3,227.9c0,1.3-1.2,3.8-2.3,7.1c-0.8,1.7-1.6,3.8-2.3,5.4l-18,44.5c-1.2,4.6-2.7,9.6-3.9,14.1
	c-2.3,5.9-7.3,8.8-13.4,8.8c-1.5,0-3.4-0.5-5.7-0.9c-0.8,0-1.9-0.8-3.4-1.2c-5,0-9.6-5-13.5-14.1c-1.2-3-2.7-7.9-4.2-14.2l-9.9-40.7
	c-0.4-2.1-1.9-4.6-3.5-6.7c-1.5-1.6-2.3-4.1-2.3-7.5c0-1.6,0.8-3.3,2-4.1c1.1-0.8,3-1.3,4.6-1.3l10.7,2.1h13.4c2.7,0,5,0.8,6.6,2.5
	c0.8,1.3,1.9,3.8,2.7,6.7l5.3,27c0.8-3.3,2.3-7.1,3.5-10.4c2.7-7.5,6.2-14.1,9.2-19.1c4.6-7.1,9.2-10.8,13.4-10.8
	c3.1,0,6.2,1.6,8.1,4.5c1.5,2.5,2.7,5.9,2.7,8.3H183.3L183.3,227.9z M244.7,306l-1.9-8.7l1.5-28.7c0-1.3-0.8-4.2-1.5-7.5
	c0-0.8-0.8-2.9-1.2-4.6c-1.2-5.8-7.7-10.4-18.4-12.9c-3.5-0.8-9.2-1.6-16.1-2.5c-4.6,0-11.1,1.7-18,4.6c-8.5,3.3-12.7,7.5-12.7,11.7
	c0,5,1.9,7.4,5.3,7.4c0.8,0,5-1.2,12.7-3.7c3.1-1.2,6.2-2.1,8.5-2.1c3.1,0,6.1,0.9,8,1.7c1.6,0.8,2.7,2.1,2.7,2.9
	c0,0.4-0.4,0.4-1.2,0.4c-0.8,0-2.3-0.4-4.2-0.8c-2.3,0-5.3,0.4-8.8,1.2c-6.2,1.3-11.9,3.8-15.7,6.7c-5.3,4.1-8.4,9.5-8.4,16.2
	c0,7.5,3.4,12.9,10,15.4c2.3,0.8,5.7,1.6,9.9,1.6c3.9,0,6.9-0.4,9.2-0.8c5.4-1.7,8.8-2.5,10.4-2.5c1.5,2.5,3.4,4.2,4.6,4.6
	c0.8,0.4,3.1,0.8,5.7,0.8L244.7,306L244.7,306z M215.6,283.6c0,1.2-0.8,2.9-2.3,3.7c-1.9,1.2-4.6,2.1-6.9,2.1c-1.2,0-2.3,0-2.7-0.9
	c-0.4-0.4-0.8-1.6-0.8-2.5c0-1.6,1.5-4.1,3.8-5.8c2.3-1.2,3.8-2.1,4.6-2.1c0.8,0,2.3,0.9,3.1,1.7
	C215.2,280.7,215.6,282.4,215.6,283.6L215.6,283.6z M286.2,227.1c0,1.7-0.4,3.8-0.4,4.6c-0.3,4.6-0.8,7.5-0.8,7.9
	c-0.4,4.1-1.2,11.6-1.5,22c-0.4,10.4-0.8,18.7-0.8,23.7c0,1.7,0,3.8,0,5c0,1.3,0.4,2.9,0.4,3.7c0,0.9,0.4,2.1,0.8,3.4
	c0.8,1.6,1.6,2.9,1.6,3.7c0,1.7-1.2,3.3-3.1,3.8c-1.9,0.4-6.9,0.8-13.8,0.8c-5.4,0-9.6-0.8-11.5-2.5c-1.9-1.7-3.5-4.2-3.5-7.5
	c0-0.8-0.4-2.1-0.4-2.9c0-0.8-0.3-2.1-0.3-3.3c0-0.9,0-2.1,0-2.5c0-6.7,0-14.6,0-22.9c0-8.3,0-15.8,0-22c0-6.3-0.4-9.6-0.4-9.6
	c0-1.2-0.3-3.3-0.8-5.8c-0.4-2.5-1.2-5-1.5-7.5c0-2.1,1.1-3.3,2.7-3.3c0.3,0,1.5,0.4,2.3,0.8c0.8,0.4,1.9,0.9,1.9,0.9
	c0.3,0,1.9,0,4.2-0.5c5.4-1.6,8.5-2.5,8.5-2.5c3.4,0,7.3,1.3,10.7,3.8C284.2,220.9,286.2,224.2,286.2,227.1L286.2,227.1z
	 M370.2,226.3c0,0.8-0.8,4.6-2.3,11.2c-0.8,3.3-1.2,6.7-1.2,8.7c-0.4,3.4-0.8,9.2-0.8,16.3c0,6.6,0.3,14.9,0.8,24.1
	c0,2.9,0.4,7,0.8,11.6c0,0.8,0,1.7,0,2.1c0,2.1-0.3,3.7-0.8,4.6c-0.8,0.8-2.7,1.6-5,1.6c0,0-2.3,0.4-5.7,0.4
	c-3.8,0.4-6.9,0.9-8.8,0.9c-2.7,0-4.6-0.5-4.6-0.5c-2.7-0.8-4.6-3.3-5.4-6.6c-2.3,0.8-4.6,1.7-6.2,1.7c-4.6,0.8-8.4,1.2-11.1,1.2
	c-3.1,0-6.6-0.8-10.4-1.7c-0.8,0-2.7-0.8-4.6-1.6c-4.6-0.9-8.1-2.9-9.6-5c-2.3-2.9-3.9-7.5-3.9-12.5c0-7.9,1.9-16.6,5.8-24.9
	c4.6-10.8,11.1-16.2,18.8-16.2c2.3,0,5.8,0.8,8.8,1.6c3.5,1.3,7.3,2.9,10.4,3.8c0-0.9,0.4-3.4,0.4-5.9c0-3.3,0-5.8,0-7.4
	c0-1.7-0.8-3.4-0.8-4.2l-1.9-9.1c0-1.3,0.4-2.5,1.2-3.4c0.8-0.8,2.3-1.6,4.2-1.6c0.3,0,1.9-0.4,3.4-0.4c1.9,0,4.2,0.4,5.7,0.4
	c1.9,0,5,0.8,8.1,1.2c0.4,0,1.2-0.4,1.6-0.4c0.8,0,1.5,0,1.9,0c2.7,0,5.3,0.8,6.9,1.7c2.7,1.6,4.2,4.5,4.2,8.7V226.3L370.2,226.3z
	 M336.8,268.7c0-0.4,0-1.3,0-1.7c0-1.6-1.1-2.9-3-2.9c-2.7,0-5.8,2.9-8.5,8.7c-2.3,5-3.8,9.2-3.8,11.3c-0.4,1.6,0,3.3,1.2,3.3
	c1.5,0,3.4,0.4,5,0.4c2.7,0,5-0.8,6.5-2.1c1.6-1.6,2.7-5.4,2.7-10.4c0-0.8,0-2.5,0-3.3c0-0.8,0-2.1,0-2.9V268.7L336.8,268.7z
	 M444.2,272c0,3.3-1.5,6.2-3.1,7.5c-1.9,1.2-6.2,2.5-11.9,2.9c-4.6,0-8.8,0.8-11.1,0.8c-7.7,0.5-11.9,1.3-12.3,1.3
	c0,0-0.4,0.4-0.4,1.2c0,2.1,1.6,4.2,3.9,5.4c1.5,0.9,4.2,1.3,7.3,1.3c0.8,0,4.2-0.8,10-2.5c1.9,0,5-1.3,8.8-2.5
	c3.1,0,5.4,2.1,6.2,6.2c0,0.4,0,1.3,0,1.7c0,7.5-9.6,11.2-28.8,11.2c-13.8,0-24.1-2.9-30.3-7.9c-5-4.6-7.7-11.2-7.7-19.1
	c0-11.6,2.7-21.6,7.3-29.5c4.6-8.3,11.6-12.5,19.2-12.5c0.3,0,1.2,0,1.5,0c1.2,0,2.7,0.4,3.5,0.4c1.2,0,3.4,1.3,6.1,2.1l19.6,7.5
	c3.8,1.6,6.9,5.4,9.2,11.2c1.6,4.6,2.7,9.6,2.7,13.7L444.2,272L444.2,272z M422,261.6c0-0.8-0.8-2.1-1.6-2.9
	c-0.8-0.8-2.3-1.7-3.4-1.7c-0.8,0-2.7,1.7-5,4.6c-2.3,3.3-3.8,6.3-3.8,8.7c4.6,0,8.1-0.8,10-2c1.9-1.3,3.4-3.8,3.4-6.3L422,261.6
	L422,261.6z M511,298.1c0,2.9-3.4,5.4-9.6,6.2c-6.5,1.3-15.7,2.1-27.2,2.1c-0.8,0-1.6,0-1.6,0c-2.7,0-5,0-6.5,0
	c-1.6,0-3.5-1.2-5.4-2.1l-10-5.8c-1.1-0.8-2.3-2.5-2.7-3.3c-0.8-0.8-1.2-2.9-1.2-5c0-1.7,0.4-3.7,0.8-4.6c0-0.4,1.5-2,3-3.7
	c2.3-2.9,5.4-5.8,7.7-7.5c4.2-3.7,9.2-7.9,14.6-11.2h-4.2c-7.7,0-13.1-0.8-15-1.7c-2.3-1.2-3.4-3.7-3.4-6.6c0-5,5.7-9.2,17.2-11.7
	c3.8-0.8,9.6-1.6,17.3-2.5c9.6,0,16.8,3.8,20.7,10.4c1.5,2.1,3,5.8,3.8,10.4c0.8,1.7,1.2,2.9,1.2,3.8c0,1.2-0.8,2.9-2.3,3.7
	c-0.8,0.4-1.6,1.2-2.3,2.1c-0.3,0.8-3.1,3.3-7.3,6.2c-5,3.3-8.5,6.7-9.6,8.3c0.4,0,1.2,0,1.2,0c0.8,0,1.6-0.4,2.3-0.4
	c4.6,0,8.8,1.3,11.9,3.3c4.2,2.1,6.5,5.9,6.5,10V298.1z"/>
<path class="st5" d="M243,357.8c0,1.6-1.6,3.5-4.6,5.2c-3.5,1.8-7.6,2.7-12.1,2.7c-3.5,0-6.8-1.6-9.4-4.7c-2.3-2.9-3.5-6.4-3.5-10
	c0-3.5,1-6.4,2.9-8.5c2.3-2.6,5.9-3.9,10.2-3.9c2,0,3.7,0.5,5.2,1.1c1.5,0.8,2.3,2,2.3,3.3c0,0.6-0.3,1.3-0.8,1.6
	c-0.5,0.3-1.1,0.6-1.6,0.6c-0.3,0-1.3-0.5-3-1.2c-0.8-0.5-1.6-0.8-2.1-0.8c-2.7,0-4.9,0.7-6.2,2c-1.3,1.3-1.9,3.4-1.9,5.8
	c0,2.1,0.6,4.2,1.9,6.2c1.8,2.4,4.4,3.8,7.3,3.8c2.9,0,5.5-1,7.6-3c2.1-1.9,3.9-2.9,4.8-2.9c0.7,0,1.5,0.3,2,0.8
	c0.6,0.5,1,1.3,1,2.1V357.8L243,357.8z M274.7,364.1c0,1.3-0.9,2-2.6,2c-0.8,0-1.6-0.3-2-0.8c0,0-0.3-0.8-0.8-2.1
	c-0.9,1.1-2.6,2.1-4.4,2.7c-1.8,0.6-3.7,1-5.5,1c-3.9,0-7.3-1.8-9.5-5.1c-1.6-2.6-2.6-5.2-2.6-7.4c0-0.3,0-0.8,0-1
	c0-0.3,0.3-0.6,0.3-0.9c1.3-2.3,3-4.9,4.2-7.3c1.9-2,4.7-2.9,8-2.9h1.3c0.2,0,0.5-0.3,0.6-0.5c0.3-0.1,0.6-0.3,0.8-0.3
	c0.5,0,1.2,0.2,1.8,0.5c0.6,0.3,1.6,1,2.3,1.5l0.5-1.5c0.2-1.1,1.2-1.8,2.4-1.8c0.6,0,1.3,0.3,2,0.7c0.6,0.3,0.9,0.9,0.9,1.6
	c0,0.6-0.1,1.6-0.5,2.7c-0.2,0.5-0.3,1.1-0.3,1.5c0,0.6,0.3,2.3,1,4.2c0.6,1.9,1.2,3.5,1.2,4.5c0,0.8-0.2,2.1-0.5,3.5
	c0.3,0.6,0.6,1.5,0.6,1.8c0.3,1.3,0.7,2.6,0.7,3.5L274.7,364.1L274.7,364.1z M268.3,355.2c0-1.3-0.3-2.7-0.8-4.2
	c-0.5-1.6-1.2-2.4-1.5-2.4c0,0-0.3,0-0.6,0c-0.3,0-0.8,0-1,0c-1-0.5-2.1-1.2-2.8-1.5c-0.8-0.5-1.6-0.8-2.3-0.8
	c-1.3,0-2.6,0.5-3.7,1.2c-1.3,0.8-2.3,2-2.6,3.3c0,0.3-0.5,0.8-0.8,1.5c-0.3,0.6-0.7,1.5-0.7,1.9c1.2,5.9,3.9,8.9,7.8,8.9
	c2.4,0,4.7-1,6.5-2.6c1.6-1.6,2.4-3.4,2.4-5V355.2L268.3,355.2z M302.3,360.7c0,1-0.3,1.7-0.7,2.1c-0.5,0.5-1.3,0.8-1.9,0.8
	c-1.3,0-2.4-1-3.1-2.6c-0.5-1.5-0.8-3.4-0.8-5.3c0-0.5,0-1.5,0-2.7c0-1.3,0.2-2.4,0.2-2.8c0-1.3-0.5-2.4-1.5-3.4
	c-1-1-2.3-1.5-3.6-1.5c-2.1,0-4.4,0.9-6.6,2.6c0,0.7,0,1.5,0,2c0.2,3.9,0.3,6.4,0.3,7.4c0,2.6-0.2,4.4-0.2,5.1
	c-0.2,1.6-1.2,2.4-2.4,2.4c-0.6,0-1.5-0.2-2-0.3c-0.5-0.2-0.8-0.6-0.8-1.2c0-0.1,0.2-1.9,0.5-4.8c0-1.6,0.2-3.3,0.2-4.2
	c0-0.6,0-1.5,0-2.3c0-0.8-0.2-1.6-0.2-2.3c-0.3,0-0.8-0.2-1.2-0.5c-0.5-0.3-0.8-0.8-0.8-1.3c0-0.5,0.2-0.9,0.3-1.3
	c0.2-0.3,0.5-0.8,0.6-1c0-0.1-0.3-0.6-0.6-1.3c-0.3-1.2-0.5-1.9-0.5-2.3c0-0.6,0.3-1.3,0.6-2c0.5-0.6,1.3-0.9,1.9-0.9
	c0.8,0,1.6,0.5,2.3,1.5c0.5,0.6,1,1.5,1.2,2.4c2.6-1.3,5.3-2.1,8.1-2.1c2.8,0,5.1,0.8,6.7,2.3c1.7,1.5,2.7,3.9,2.7,7.1
	c0,0.5,0,1.2,0,1.8c0,0.6-0.2,1.6-0.2,2.3c0,0.8,0.2,1.8,0.3,2.7c0.6,2.1,1,3.4,1,3.8V360.7L302.3,360.7z M333.7,359.7
	c0,1-0.3,1.8-0.8,2.1c-0.5,0.5-1.3,0.8-2.1,0.8c-0.7,0-1.2-0.3-1.5-0.6c-0.3-0.5-0.7-1.3-0.7-2.1c-0.9,1-2.3,1.9-3.9,2.6
	c-1.6,0.7-3.4,1-5.2,1c-3.5,0-6.6-1.1-8.6-3.4c-2.1-2.3-3.3-5.5-3.3-9.4c0-3.3,1.2-6.3,3.1-8.9c2-2.6,4.7-4,7.7-4c0.6,0,1.3,0,1.7,0
	c0.5,0,1.2,0.3,1.8,0.3c0.3-0.2,0.8-0.3,1.2-0.3c0.5,0,1.1,0.1,1.7,0.5c0.6,0.3,1.5,1.2,2.4,1.9c0-0.8-0.2-1.6-0.2-2.3
	c-0.2-2.1-0.3-3.4-0.3-3.7c0-2.7,0.1-4.7,0.5-5.6c0.3-1,1.3-1.6,2.3-1.6c0.6,0,1.5,0.3,2,0.8c0.6,0.6,0.9,1.5,0.9,2.1
	c0,1-0.1,1.9-0.1,2.4c0,2.6-0.2,4.2-0.2,4.5c0,2.9,0.2,5.7,0.3,7.6c0.3,2.1,0.6,4.4,1,6.5c0,0.5-0.2,1.3-0.3,2.1c0,0,0,0.3,0,0.5
	c0,0.3,0.2,1.8,0.3,3.9C333.5,358.5,333.7,359.4,333.7,359.7L333.7,359.7z M328.5,353.8c0-1.2-0.2-2.3-0.2-3.1
	c-0.2-1-0.5-2.1-0.8-3.1H327c-0.6,0-1.7-1-3.1-2.8c-1.5-1.9-3.2-2.9-5.2-2.9c-1.9,0-3.5,1-4.5,2.9c-1.1,2-1.8,4.2-1.8,6.7
	c0,1.6,0.8,3.5,2.1,5.2c1.5,1.8,3.4,2.7,5.3,2.7c1.6,0,3.4-0.6,5-1.6c1.6-1.2,2.9-2.6,3.6-3.9V353.8L328.5,353.8z M344.4,331.7
	c0,1.2-0.3,2.3-0.6,3c-0.3,0.8-1.2,1.3-2,1.3c-0.6,0-1.3-0.5-1.7-1.3c-0.7-1-1-1.8-1-2.3c0-0.7,0.5-1.3,1.3-2c1-0.6,2-1.1,2.6-1.1
	c0.6,0,1.1,0.5,1.3,1.1c0,0.3,0.2,0.8,0.2,1.5V331.7L344.4,331.7z M344.4,343.2c0,1.5-0.3,3.3-0.6,5.2c-1,4.4-1.5,7.3-1.5,8.4
	c0,0.5,0.1,1.3,0.3,1.9c0.2,0.6,0.3,1.5,0.3,2c0,0.6-0.3,1.1-0.8,1.5c-0.5,0.3-1.3,0.6-2,0.6c-1.1,0-2.1-0.5-2.4-1.5
	c-0.5-1-0.8-2.3-0.8-3.5c0-0.8,0.5-3.4,1.1-7.7c0.3-2.1,0.6-3.9,0.6-5l-0.1-3.1c0-1.2,0.3-2.1,0.6-2.6c0.5-0.6,1.3-0.9,1.9-0.9
	c1.2,0,2.1,0.6,2.6,1.6c0.3,0.8,0.6,2,0.6,3.3V343.2L344.4,343.2z M373.2,365.3c0,1-0.8,1.6-2.1,1.9c-1.3,0.3-3.7,0.5-6.8,0.5
	c-3.3,0-6.2-0.5-8.4-1.5c-3.3-1.3-5.8-3.6-7.8-6.5c-0.2,0-0.3,0.2-0.3,0.2c-0.3,0-0.8-0.3-1.2-0.8c-0.3-0.6-0.6-1.3-0.6-1.8
	c0-0.6,0.2-1.1,0.5-1.3c-0.2-0.6-0.3-1.3-0.3-1.6c0-0.3-0.2-1-0.2-1.5c0-3.5,1-6.8,2.9-9.2c2.3-2.9,5.9-4.5,10.4-4.5
	c2.9,0,5.6,1.3,8.2,3.7c2.4,2.3,3.7,4.4,3.7,6c0,1.6-1,2.8-2.7,3.4c-2.3,0.5-4.7,1.1-7,1.5c-3.6,0.8-7,2.3-9.9,3.9
	c0.9,1.9,2.9,3.7,5.3,4.7c1.9,0.6,4.5,1.1,7.1,1.1c1.3,0,2.8-0.2,3.7-0.2c1-0.1,2.3-0.5,3.3-0.6c0.5,0,1.2,0.3,1.5,0.8
	c0.3,0.5,0.7,1.2,0.7,1.6V365.3L373.2,365.3z M366.1,348.2c-0.6-1-1.5-1.8-2-2.3c-1.6-1.6-3.5-2.6-5.5-2.6c-2.3,0-4.4,1-6,2.9
	c-1.6,2-2.6,4.2-2.6,6.5v1c1.7-1,4.2-2,7.1-2.8c3-0.8,6-1.7,8.9-2.6V348.2L366.1,348.2z M398,356.7c0,1-0.1,1.8-0.3,2.3
	c-0.3,0.6-1.3,1.6-2.3,2.4c-1,1-2,1.9-2.6,2.6c-1.1,0.9-2.6,1.5-4.2,1.5c-3,0-5.9-0.8-8.1-2.4c-1.9-1.3-3.1-2.8-3.1-3.7
	c0-0.5,0.3-1.2,0.8-1.6c0.5-0.5,1.2-0.8,1.5-0.8c1.3,1.3,2.6,2.4,3.9,3.3c1.3,0.9,2.8,1.5,4.1,1.5c1,0,1.9-0.5,2.9-1.2
	c1-0.8,2-1.7,2.9-2.6c0.3-0.3,0.5-0.8,0.5-1.2c0-1-0.8-2.4-2.4-4.1c-1.6-1.6-3.4-2.7-5.1-3.2c-2.4-0.8-4-1.5-4.7-1.8
	c-1.5-1-2.3-2.4-2.3-4.2c0-1.5,0.5-2.7,1.3-3.5c1.1-1,3.1-1.6,5.5-1.6c3.5,0,6,0.3,7.3,0.6c0.6,0.2,1.2,0.6,1.2,1.2
	c0,0.5-0.2,1.1-0.3,1.7c-0.3,0.7-0.6,1-1,1c-1.3-0.2-2.7-0.5-3.9-0.5c-1.3-0.2-2.4-0.3-3.1-0.3c-0.9,0-1.7,0.2-2.1,0.3
	c-0.5,0.2-0.8,0.6-0.8,0.9c0,0.7,0.8,1.5,2.1,2c1,0.3,2.3,0.8,3.3,1.1c3.1,1.3,5.5,3.4,7.1,5.7c1.3,1.6,1.9,3.4,1.9,4.9V356.7z"/>
<path class="st6" d="M479.8,343.6c5.4,0,9.7,3.8,9.7,8.5c0,4.7-4.4,8.5-9.7,8.5s-9.7-3.8-9.7-8.5
	C470.1,347.4,474.4,343.6,479.8,343.6z"/>
<path class="st2" d="M476.9,353.3l1.5-3.7h2.3v0.2h-0.2c-0.2,0-0.3,0-0.4,0.1c-0.1,0-0.1,0.1-0.2,0.2c0,0.1,0,0.2,0,0.5v3.7
	c0,0.3,0,0.5,0,0.5c0,0.1,0.1,0.1,0.2,0.2c0.1,0.1,0.2,0.1,0.4,0.1h0.2v0.2h-2.9V355h0.2c0.2,0,0.3,0,0.4-0.1c0.1,0,0.1-0.1,0.2-0.2
	c0-0.1,0-0.2,0-0.5v-4.2l-2.1,5.1h-0.1l-2.2-5.1v3.9c0,0.3,0,0.4,0,0.5c0,0.1,0.1,0.3,0.2,0.3c0.1,0.1,0.3,0.1,0.6,0.1v0.2h-1.9V355
	h0.1c0.1,0,0.2,0,0.3-0.1c0.1,0,0.2-0.1,0.2-0.2c0.1-0.1,0.1-0.2,0.1-0.3c0,0,0-0.2,0-0.4v-3.5c0-0.3,0-0.5,0-0.5
	c0-0.1-0.1-0.1-0.2-0.2c-0.1-0.1-0.2-0.1-0.4-0.1h-0.2v-0.2h2.3L476.9,353.3L476.9,353.3z M483.1,352.6v1.6c0,0.3,0,0.5,0.1,0.6
	c0,0.1,0.1,0.1,0.2,0.2c0.1,0,0.3,0.1,0.5,0.1v0.2h-2.9V355c0.3,0,0.4,0,0.5-0.1c0.1,0,0.2-0.1,0.2-0.2c0-0.1,0.1-0.3,0.1-0.6v-3.6
	c0-0.3,0-0.5-0.1-0.6c0-0.1-0.1-0.1-0.2-0.2c-0.1,0-0.3-0.1-0.5-0.1v-0.2h2.6c0.7,0,1.2,0,1.5,0.1c0.3,0.1,0.6,0.3,0.8,0.5
	c0.2,0.3,0.3,0.5,0.3,0.9c0,0.4-0.1,0.8-0.4,1c-0.2,0.2-0.5,0.3-0.8,0.4l1.3,1.9c0.2,0.2,0.3,0.4,0.4,0.5c0.1,0.1,0.2,0.1,0.4,0.1
	v0.2h-1.8l-1.8-2.6H483.1L483.1,352.6z M483.1,349.9v2.5h0.2c0.4,0,0.7,0,0.9-0.1c0.2-0.1,0.3-0.2,0.4-0.4c0.1-0.2,0.2-0.4,0.2-0.7
	c0-0.4-0.1-0.7-0.3-0.9c-0.2-0.2-0.5-0.3-1-0.3H483.1z"/>
</svg>
