<?xml version="1.0" encoding="utf-8"?>
<!-- Generator: Adobe Illustrator 21.1.0, SVG Export Plug-In . SVG Version: 6.00 Build 0)  -->
<svg version="1.1" id="Layer_1" xmlns="http://www.w3.org/2000/svg" xmlns:xlink="http://www.w3.org/1999/xlink" x="0px" y="0px"
	 viewBox="0 0 1296 1728" style="enable-background:new 0 0 1296 1728;" xml:space="preserve">
<style type="text/css">
	.st0{fill:#FEFEFE;}
	.st1{fill:#ECF6FD;}
	.st2{fill:#07019E;}
	.st3{fill:#B75205;}
	.st4{fill:#C0E9F4;}
	.st5{fill:#EAF5FC;}
	.st6{fill:#C1E6F2;}
	.st7{fill:#FEFAFA;}
	.st8{fill:#FD0507;}
	.st9{fill:#FC0205;}
	.st10{fill:#02031C;}
	.st11{fill:#060087;}
	.st12{fill:#0B0B0C;}
	.st13{fill:#94DBF1;}
	.st14{fill:#EABCD0;}
</style>
<g>
	<path class="st0" d="M-198.8,1631.2c523.7,0,1047.4,0,1571.1,0c6.9,0,6.9,0,6.9-6.9c0-521.4,0-1042.8,0-1564.3c0-6.9,0-6.9-6.9-6.9
		c-523.7,0-1047.4,0-1571.1,0c0.2-0.3-0.5-1.1,0.5-1.1c1.4,0,2.8,0,4.2,0c523.1,0,1046.3,0,1569.4-0.1c4.5,0,5,1.1,5,5.2
		c-0.1,523.3-0.1,1046.6,0,1569.9c0,4.1-0.6,5.2-5,5.2c-523.1-0.1-1046.3-0.1-1569.4-0.2C-195.6,1632.2-197.7,1633.4-198.8,1631.2z"
		/>
	<path class="st1" d="M522.3,459.2c0-1,0-2,0-3c6.9-12.8,2.7-24.9-2.6-36.9c-0.1-0.6-0.1-1.2-0.2-1.7c0-1,0.3-2.2,0.1-3.1
		c-3.7-13.8-7.3-27.6-11.4-41.2c-3-9.8-6.4-19.6-9.1-29.5c-4.9-18-10.2-35.9-14.8-54c-4.5-17.6-9.3-35-13.3-52.7
		c-5.3-23.4-6.9-47-5.8-70.9c0.4-9.4,3.2-17.9,11.5-23.6c4.1-0.4,6.3,3.7,10.1,4c12.3,1.1,24.7,2.7,37,3.1c30.8,1,61.5-0.7,92.2-3.9
		c15.3-1.6,30.6-2.9,45.9-4.3c1.4,1.5,1.8,0.4,2.3-0.8c1.7-0.1,3.4-0.1,5.1-0.2c2.1,1.3,4,2,5.3-1c0.7,0,1.3,0,2-0.1
		c1.8,1.7,4.2,1.4,6,0.8c11.2-4.1,23.2-3.2,34.7-6.6c11.7-3.5,24.3-4.5,36.5-6.7c19.2-3.5,38.5-6.8,57.1-12.6
		c3.7-1.1,5.5-0.7,7.3,2.9c8.8,17.6,11.2,36.8,11.8,55.9c1,32.9,0.6,65.8-1.7,98.6c-1.2,17.9-1.4,36-2.3,53.9
		c-0.6,11.3-1.3,22.7-2.3,33.9c-1.5,18.2-2.5,36.5-4.9,54.7c-1.8,13.8-2.8,27.7-4.5,41.6c-2.5,19.7-5.3,39.4-8.3,59
		c-0.8,5.5-0.4,11.5-3.4,16.3c-7.1,11.4-14.3,22.8-22.6,33.3c-8.6,10.9-15.2,23.6-29.6,29.4c-17.1,7-33.1,16.4-51.7,19.6
		c-27.7,4.8-55.5,9.1-83.8,5.8c-2.2-0.3-4.6-0.6-6.7,0.7c-1.7-0.3-3.4-0.5-5.1-0.8c0,0,0,0,0,0c-0.4-0.3-0.7-0.7-1.1-1
		c-5.8-2.6-8.8-8.8-14.5-11.6c-0.8-0.5-1.3-1.1-1.3-2c-0.4-2.8-1.5-5.4-2.9-7.8c-6.5-11.9-13-23.9-19.5-35.8
		c-0.8-1.5-1.3-3.4-3.3-3.8c-0.6-1.1-1.1-2.1-1.7-3.2c-0.4-3.8-1.4-7.2-4.9-9.4c-0.1-0.4-0.2-0.7-0.4-1.1c0.3-1.7-0.5-3.1-1.2-4.5
		c-6.6-14-13.6-27.8-18.9-42.3c-4-11-9.7-21.7-9.4-33.9C523.9,461.3,524,459.8,522.3,459.2z M683.9,561.4
		c5.2-9.6,8.2-20.1,10.6-30.7c2-8.9,4.9-17.6,4.9-26.8c0-8.7-5.7-14.1-14.1-14.1c-6.5,0-12.9,0.7-19.1,2.8
		c-9.8,3.3-19.8,5.9-30.3,5.5c-5.6-0.2-11.2-0.3-16.8,0.2c-10.2,0.8-15,8.2-12,17.8c0.8,2.5,1.5,5,2.3,7.5
		c5.5,17.8,16.6,32.5,27.1,47.4c4.6,6.5,10.4,12.1,16.2,17.4c7.1,6.3,16.4,4.1,20.8-4.5c2.6-5.1,5.1-10.3,7.9-15.3
		C682.7,566.3,684.1,564.2,683.9,561.4z M717.7,401.8c1-17.2-1.7-33.2-11.1-47.5c-4.6-7-10.3-13.7-19.4-13.5
		c-9.7,0.3-15.6,7-19.4,15.5c-3.9,8.9-6.8,18-6.3,27.9c0.5,11.2,1.3,22.4,4.1,33.3c2.7,10.5,4.7,21.4,13,29.3
		c5.3,5.1,11.4,9.7,19.2,6.7c8.8-3.5,15.5-9.7,17.1-19.7C716.6,423.1,718.5,412.4,717.7,401.8z M629.7,408.8
		c0.5-19.4-3.5-34-12.4-47.1c-10.9-16.1-31-11.7-37.8,1c-5.2,9.6-7.2,19.7-7.1,30.3c0.3,18,7.3,34.2,15.7,49.5
		c8.8,15.9,25.1,15.2,34-0.6C628.6,430.4,630,418.1,629.7,408.8z"/>
	<path class="st2" d="M825.7,922.2c-0.1,1.8-0.3,3.5-0.4,5.3c-1.2,0.4-1.9,0.9-0.6,2c-1.8,18.7-6,36.9-16.9,52.4
		c-6.2,8.8-7.8,18-8.2,28c-2.2,58.5-0.9,117-1.1,175.6c-0.1,22.4,1.1,44.8,2.4,67.2c0.9,16,2,32.2,5.3,47.9
		c5.8,27.7,9.4,55.8,14.8,83.6c3.1,15.8,5.6,31.7,8.3,47.5c-2.9,0.3-5.9,0.7-8.8,1c-9.9,1.3-19.9,2.3-29.3,6.4
		c-1.4,0.1-2.8,0.3-4.2,0.4c-0.8-1.8-2.5-1.5-4-1.7c-13.4-1.8-26.3-5.2-38.7-10.7c-2.2-1-3.4-2.3-3.8-5.1
		c-2.5-21.6-5.9-43.1-8.8-64.6c-2.6-19.7-4.1-39.4-6.7-59.1c-2.3-17.4-3.1-35-4.4-52.6c-1.2-18.1-2.9-36.2-3-54.3
		c-0.2-18.5-2-37.1-1-55.6c0.6-11.5,0.5-23.1,0.9-34.6c0.4-14.9-0.2-29.7,0.8-44.6c1.1-16.2,0.5-32.5-0.9-48.7
		c-0.3-3.3-1.2-6.5-2.9-9.5c-3.6-6.2-7.8-8.1-14.8-6.9c-2.6,0.5-5.1,0.2-7.7-0.8c-3.6-1.5-7.4-2.1-10.8,0.9c-1.1,1-2.5,1.4-3.9,0.9
		c-7.4-2.1-15.1-3-22.2-6.1c-7.3-3.2-11.7-1-14.7,7c-2.1-0.8-4.2-1.6-6.3-2.3c-1.3-0.4-2.9-0.8-3.6,0.9c-0.7,1.5,0.2,2.6,1.4,3.5
		c1.6,1.1,3.1,2.1,4.7,3.2c-8.4,18.7-16,37.8-23.1,57.1c-7.6,20.7-14.2,41.6-20.5,62.7c-6.2,20.7-11.5,41.7-16.6,62.7
		c-5.3,21.7-9.9,43.5-14.6,65.3c-2.4,10.9-4.6,21.8-6.5,32.8c-2.9,17-5.5,34-8.2,51c-2.8,17.9-4.6,35.9-6.7,53.9
		c-0.8,6.7,0.1,14.3-6.8,19c-3,2-5.8,4.5-8.7,6.7c-11,8.3-23.6,13.5-36.2,18.6c-1.7-0.5-3.4-0.9-5-1.5c-17-7.2-34.3-13.8-52.3-18.3
		c-4.2-1.1-8.8-0.2-12.8-2.3c-0.1-5.9,3.7-10.3,6.8-14.5c9.6-13.2,17-27.7,25.6-41.4c13.4-21.4,24.8-43.8,36.6-66.1
		c5.2-9.7,6.7-20.6,9.5-31c9-34.2,18.5-68.2,27.7-102.3c8-29.7,16.9-59.2,26.8-88.4c0.4-1.3,0.4-2.7,0.6-4.1
		c9.8-1.4,19.4-3.9,25.5-12.4c6.9-9.6,12.8-19.8,18.3-30.2c0.8-0.3,1.3-0.8,1.4-1.7c4.9-3.9,9.9-7.8,14-12.7l0.4,0l0.2-0.4
		c8.9-6.8,16.7-14.8,22.9-24.1c1.1-0.4,1.9-1.1,2.3-2.3c5.7-4.8,11.5-9.6,17.2-14.3c0.4,0.1,0.6-0.1,0.7-0.5c1.2,0.1,2-0.5,2.3-1.7
		c1-0.8,2-1.6,3-2.5c1.2,0,2-0.6,2.3-1.7c0.6-0.4,1.3-0.9,1.9-1.3c3.8-1.6,7.1-3.9,9.9-7c0.4,0.1,0.6,0,0.6-0.4
		c4.1-1.6,7.7-4,10.9-7c0.4,0.1,0.6,0,0.7-0.4c1.3,0.1,2.1-0.5,2.7-1.6c0.9-0.3,1.7-0.7,2.6-1c0.4,1.5,1.5,1.8,2.9,1.6
		c10.8-1.7,21.8-1.5,32.7-2.9c15.7-2,31.4-3.7,47.1-5.8C791.8,925.9,808.9,924.9,825.7,922.2z"/>
	<path class="st3" d="M830.8,1436.9c18.6-1.1,37.2-1.2,55.1,5c14.5,5,25.4,14,31.1,28.9c8.6,22.8,9.6,46,5.7,69.7
		c-0.9,5.5-4.3,9.5-7.5,13.6c-7.4,9.5-16.5,16.3-28,20.5c-14.8,5.4-29.6,10.9-45.4,12.1c-33.5,2.5-66.8,2.3-99.2-8.5
		c-14.1-4.7-27.7-11.5-38.4-21.2c-11.7-10.6-20.5-24.3-21.5-41.4c-0.9-14.7-1.6-29.4,1.9-43.9c1.1-4.4,2.8-8.3,5.8-11.6
		c0.7-0.3,1.4-0.5,2.1-0.8c8.3-0.9,16.4-0.2,24.6,1.9c9.4,2.4,19.1,3.4,28.8,3.4c3.3-0.3,5.8-2.3,8.6-3.7
		c13.3-7.1,27-13.3,41.4-17.4C807.3,1440.2,819.1,1438.8,830.8,1436.9z"/>
	<path class="st3" d="M569,1459.4c3.7,6.8,4.3,14.5,4.8,21.9c0.9,13.1,1.5,26.2-0.6,39.3c-1.9,11.9-8.5,20.2-18.3,26.9
		c-11.8,8.1-24,15-37.6,19.4c-18.9,6.1-38.3,6-57.7,4.9c-15.3-0.8-30.2-3.4-44.9-7.8c-21.1-6.3-40.6-15.8-59.2-27.5
		c-12-7.6-16.2-18.9-17.3-31.7c-2-21.5,0.8-42.3,11.4-61.5c12.4-22.6,31.7-33.8,57.5-33.4c7.3,0.8,14.7,0.4,21.8,2.2
		c34.6,8.3,66.6,22.1,94.7,44.1c4.5,3.5,9.2,4.6,15,4C548.7,1459.2,558.8,1454.8,569,1459.4z"/>
	<path class="st4" d="M607.9,620c2.1-1.3,4.5-0.9,6.7-0.7c28.3,3.3,56-1,83.8-5.8c18.6-3.2,34.6-12.7,51.7-19.6
		c14.4-5.8,21-18.6,29.6-29.4c8.3-10.5,15.5-22,22.6-33.3c3-4.7,2.6-10.8,3.4-16.3c3-19.6,5.8-39.3,8.3-59
		c1.8-13.8,2.7-27.8,4.5-41.6c2.4-18.2,3.4-36.4,4.9-54.7c1-11.3,1.7-22.6,2.3-33.9c1-18,1.1-36,2.3-53.9
		c2.3-32.9,2.7-65.8,1.7-98.6c-0.6-19.1-2.9-38.3-11.8-55.9c-1.8-3.6-3.6-4.1-7.3-2.9c-18.7,5.8-37.9,9.1-57.1,12.6
		c-12.2,2.2-24.7,3.3-36.5,6.7c-11.5,3.4-23.5,2.5-34.7,6.6c-1.8,0.7-4.2,0.9-6-0.8c2-2.2,5-0.1,7.7-2.1c-2.9,0-5.1-0.1-7.4,0
		c-14.2,1-28.5,1.9-42.7,3.1c-9.5,0.8-19.1,1.4-28.7,2.3c-17.3,1.6-34.7,3.2-52.1,3.9c-19.6,0.8-39.1-0.1-58.5-3.3
		c-5.4-0.9-11.3,0.2-16.2-3c0,0,0.1,0.1,0.1,0.1c3.6-0.2,6.5-2.1,9.3-4c0.6-0.1,1.2-0.2,1.8-0.4c3-0.8,6.5-0.3,8.8-3.2
		c1-1,2.3-1.1,3.7-1c3.4-0.6,7-0.8,10-3c0.8-0.2,1.5-0.4,2.3-0.6c2,0.6,3.5-0.4,5-1.4c0.5-0.1,1.1-0.2,1.6-0.3
		c5.8-1.3,11.9-1.4,17.3-4.1c0.8-0.2,1.5-0.4,2.3-0.6c7.4-0.9,14.9-1.6,21.9-4.6c1-0.8,2.1-0.8,3.3-0.6c3.8,0.8,7-0.8,10.3-2.3
		c0.9-0.1,1.9-0.2,2.8-0.3c3.1,0.3,6.2,0.2,8.8-2c0.8-0.2,1.5-0.4,2.3-0.6c8.2-0.3,16.2-2,24-4.7c0.8-0.2,1.6-0.3,2.4-0.5
		c3,1.1,5.5-0.5,8.1-1.4c1-0.1,2-0.2,2.9-0.3c9.9-0.7,19.8-1.1,29.7-2.3c6-0.8,12.1-0.5,17.9-2.7c1.3-0.6,2.7-0.6,4.1-0.2
		c6.5,0,12.9,0.2,19.4,0c4.5-0.1,9,1.1,13.4-0.8c1.4-0.4,2.9-0.5,4.3,0c3.1,1.4,6.2,1.4,9.3,0c1.1,0,2.2,0,3.3,0
		c3.3,1.8,6.8,0.9,10.2,0.8c7.8-0.3,15.6,1.2,23.3-0.8c1.1,0,2.2,0,3.3,0c3.1,1.4,6.2,1.4,9.3,0c0.7,0,1.5,0,2.2,0
		c3.9,1.7,8,0.6,12.1,0.7c1.3-0.4,2.5-0.2,3.7,0.2c2.3,1.5,4.7,1.2,7.2,0.3c1.5-0.3,3-0.4,4.4,0.5c2.5,2.3,5.4,1.1,8.1,0.8
		c1.2-0.4,2.4-0.4,3.5,0.5c3.9,1.3,7.8,2.2,12,1.9c0.6,0.1,1.2,0.2,1.8,0.4c2.5,2.7,7.2,2.1,9.1,5.7c3.9,7.1,7.8,14.2,9.9,22.2
		c1.2,4.7,1.6,9.8,4.5,14c0.6,2.2,0.7,4.3,0,6.5c-0.8,3.1-1.1,6.1,0.2,9.1c1.8,16.2,1,32.5,0.7,48.8c-0.3,16.3-1,32.5-1.9,48.8
		c-2.3,40.5-3.7,81.1-8,121.5c-4.9,45.6-12.6,90.8-18.1,136.3c-2.3,19.2-5.7,38.4-11.8,57c-4.7,14.5-13.7,25.5-27.7,31.9
		c-1.1-0.2-1.9,0.1-2.3,1.2c-1.8,1-3.6,2.1-5.8,2.1c-1.4-0.3-2.8-0.7-3.7,1c-1.1,0.6-2.2,0.8-3.4,0.2c-1.7-0.9-3.4-0.5-5.1-0.2
		c-8.9,1.7-17.8,3.6-26.7,5c-18.7,2.9-37.5,6.1-56.3,8.1c-8.1,0.9-16.5,2.4-24.5,1c-10.4-1.7-20.6,0.6-30.8,0.4
		c-1.5,0-2.2,0.8-2.5,2.2c-4.7,0.5-8.9-2.8-13.6-2.3C612.4,621.3,609,621.8,607.9,620z"/>
	<path class="st5" d="M240.8,985.4c-1.1-1.3-1.7-2.7-1.7-4.4c1.1-1,0.5-1.6-0.6-2.1c-4.2-12.1,1.7-21.7,7.8-31.3
		c8.1-13,17.4-25,28.2-35.8c0.7-0.7,1.7-1.6,1.1-2.7c-0.6-1.2-1.8-0.6-2.8-0.5c-10.2,1.3-20.3,1.1-30.4-0.5
		c-8.1-1.2-15.5-4.1-21.8-9.5c-5.8-5-6.6-9.6-2.5-16.1c7.8-12.3,20-16.8,33.5-19.1c8.1-1.4,16.4-1.4,24.1-4.8c1.7-0.8,3.7-1.1,5.1-3
		c-1.1-1.7-3-1.4-4.5-1.7c-8.9-1.7-15.9-6.2-20.7-14c-7.5-12.3-0.3-25.7,14.1-26.2c4.5-0.2,9,0.6,12.7,2.9
		c12.3,7.8,26.2,9.5,40.1,11.2c1.2,0.2,2.6,0.1,3.6,0.6c7.8,4,14,0.7,20.8-3.4c57.2-34.4,113.4-70.3,169.4-106.6
		c1-0.6,2.3-1,2.7-2.3c1.1-0.1,2.3-0.1,3.4-0.2c1.6,2.4,3.2,4.8,4.8,7.3c1.9,3.6,3.7,7.2,5.6,10.9c-0.4,2-1.5,3.3-3.3,4.5
		c-20.8,13.2-41.2,26.7-60.7,41.9c-22.2,17.4-45,34.1-69.6,48.2c-13.5,7.7-26.6,16-39.7,24.3c-11.7,7.4-22.4,16.1-30.9,27.2
		c-6.1,8-13.5,14.5-21.2,21c-11.8,9.9-22.7,21-31.5,33.6c-10.2,14.6-19.1,30.1-28.7,45.1C245.7,982.3,244,984.8,240.8,985.4z"/>
	<path class="st6" d="M596.3,1015.8c-5.5,10.5-11.4,20.7-18.3,30.2c-6.1,8.5-15.7,11-25.5,12.4c-13.4-5.9-18.6-18.6-13.5-33.4
		c3.2-9.5,7-18.7,11.9-27.5c0.6-1.1,2.3-2.3,1-3.6c-1.1-1.2-2.7-0.1-3.9,0.3c-15.3,5.7-30.9,10.4-47.2,12.1
		c-10.1,1.1-20,0.3-29.2-4.2c-13-6.4-15.3-18.3-5.7-29.2c12.1-13.8,28.4-18.4,45.7-21c11.6-1.8,23.2-3.6,34.1-8.2
		c1.7-0.7,4.6-1,4.2-3.1c-0.4-2.4-3.2-1.2-4.9-1.2c-7.2,0-14.4,0.5-21.5,0.1c-8.8-0.5-16.8-2.9-22.6-10.5
		c-4.3-5.6-4.4-11.3-1.3-17.2c5.3-10.1,13.9-15.9,25-18.3c1.8-0.4,3.9-0.1,5.3-1.9c1.4,0.4,2.8,0.7,4.2,1.1c7.7,1.3,14.7,4.4,21.5,8
		c1.4,0.7,2.9,1.3,4.4,1.8c0.8,0.3,1.7,0.9,2.4,0.1c0.7-0.7,0.5-1.7,0-2.4c-3.5-5.9-2.7-12.5-2.7-18.9c0-5.2,2.7-8.5,7.2-10.6
		c10.1-4.8,19.9-1.1,25.7,10.8c5,10.2,12.3,18.2,20.1,26c7.4,7.4,5.8,8.5,15.1,1.5c1.7-1.3,3.6-2.2,5.3-3.3
		c15.2-9.7,30.5-19.3,45.6-29c2.6-1.6,5.6-3.2,6.1-6.8c1.3-1.2,2.9-2.1,3.8-3.5c7.2-12.7,12-26.3,15.4-40.5c2.1-1.6,2.5-4.1,3.2-6.4
		c4-12.1,8-24.2,12-36.3c0.6-1.8,0.8-4.9,3.9-3.3c6.3,3.2,13.4,3.8,19.8,6.3c-5.8,27.2-13.7,53.9-23.1,80c-3.3,9.3-5.6,20-14.5,26.7
		c-3.6,2.7-7,5.8-10.8,8.2c-27.7,17.5-57,31.9-87.5,43.6c-23.8,9.2-48.1,16.9-72,25.7c-18.4,6.8-36.1,15-51.7,27.3
		c-1.5,1.2-3,2.1-2.3,4.2c0.7,2,2.5,2.3,4.3,2.4c8.8,0.4,17.5-0.1,26.1-1.6c12.3-2.1,24-6.2,35.7-10.4c2-0.7,4-1.4,6.1-1.6
		c2.8-0.3,4.1,0.8,2.3,3.7c-2,3.3-4.1,6.5-5.8,10c-5.5,11.1-11.3,22.1-10,35.3c0.8,8.7,5.9,16.1,12.9,16c7.1-0.1,14.2-1.4,19.9-6.7
		c9-8.2,13-19.8,20-29.3C593.5,1018.1,593.9,1015.8,596.3,1015.8z"/>
	<path class="st4" d="M240.8,985.4c3.3-0.6,5-3.1,6.5-5.6c9.5-15.1,18.5-30.5,28.7-45.1c8.8-12.6,19.7-23.6,31.5-33.6
		c7.6-6.4,15.1-13,21.2-21c8.5-11.1,19.3-19.7,30.9-27.2c13.1-8.3,26.2-16.6,39.7-24.3c24.6-14.1,47.4-30.9,69.6-48.2
		c19.5-15.2,39.9-28.8,60.7-41.9c1.8-1.1,2.8-2.5,3.3-4.5c3,4,5.7,8.3,9.8,11.4c3,2.3,2.7,4.5,0.3,6.8c-0.9,0.7-1.9,1.3-2.8,2
		c0,0-0.4-0.2-0.4-0.2l-0.2,0.4c-2.1,0.3-3.8,1.2-4.8,3.1c-0.8,0.4-1.6,0.8-2.4,1.2c-3.3,0.7-6,2.3-8.1,5c0,0-0.3-0.2-0.3-0.2
		l-0.1,0.4c-7.7,3.6-13.8,9.4-20.7,14.2c-16.4,11.2-32.1,23.2-47.2,36.1c-21.7,18.6-44.9,35-69.2,50c-11.8,7.3-17.8,18.3-19.9,31.9
		c-2.9,18.9-4.4,37.9-3.8,57.1c0.3,11.3-4.6,20.4-11.8,28.4c-6.8,7.6-15.8,9.4-25.5,7.3c-7.9-1.7-12.6-8.6-13.1-18.2
		c-0.5-10,1.7-19.5,5-28.8c1-2.9,1.9-5.8,3.2-9.9c-4.7,2.9-7.2,5.9-9.5,9.1c-8.6,12.1-17.1,24.4-25.8,36.5
		c-3.7,5.2-8.1,9.7-12.8,13.9c-7.4,6.6-16.3,5.2-24.8,3.8C243.5,994.3,242.2,989.3,240.8,985.4z"/>
	<path class="st7" d="M794.4,717.3c1.1,1.2,1.6,2.6,1.6,4.3c-0.3,12.3,1.8,24.2,6,35.7c-22.8,2.6-45.4,0.4-67.8-3.5
		c-8.8-1.5-17.5-3.4-26.2-5.6c-3-0.7-4.1,0-4.7,2.8c-2.1,8.8-4.6,17.6-6.4,26.5c-0.6,3.2-1.8,3.9-4.6,4c-10,0.4-20,0.2-29.9-0.5
		c-19.2-1.3-38.3-3.1-56.7-9.1c-1.3-1-0.5-2.4-0.7-3.5c3.9-5.6,1.8-12,2.6-18c0.1-0.4-1.2,0.2-1.8,0.4c-6.5-4.4-13.1-8.8-19.5-13.3
		c-22.5-15.7-42.5-33.7-56.6-57.6c12.1-9.3,24.4-18.3,37.1-26.8c8.3,15.2,19.6,27.6,33.3,38c3.5,2.7,7,5.3,10.5,7.9
		c2.2,1.7,3.3,3.5,2.7,6.7c-1.2,6-1.7,12.1-2.8,18.1c-0.7,3.6,0.5,5.1,4,5.8c6,1.1,11.9,2.8,17.9,3.9c23,4.3,46.2,5.4,69.5,4
		c3.4-0.2,4.8-1.5,5.3-4.9c1.1-7.8,2.9-15.5,4-23.2c0.6-4.1,2.2-5.2,6.2-3.9c7.1,2.2,14.5,3.7,21.9,5
		C757.6,713.3,775.7,717.6,794.4,717.3z"/>
	<path class="st8" d="M605.6,771.9c18.4,6.1,37.5,7.9,56.7,9.1c9.9,0.7,19.9,0.9,29.9,0.5c2.8-0.1,4-0.8,4.6-4
		c1.7-8.9,4.3-17.7,6.4-26.5c0.7-2.8,1.7-3.6,4.7-2.8c8.7,2.1,17.4,4,26.2,5.6c22.4,3.9,45,6.1,67.8,3.5c2.5,5.4,6.2,10,9.9,14.5
		c3.7,4.6,2.7,7.3-2.7,9.3c-0.7,0.2-1.3,0.5-1.9,0.8c-9.9,3.6-9.9,3.6-3.8,12.6c2.8,4.2,5.8,8.3,8.7,12.4
		c-14.8,4.2-29.4,8.7-44.5,11.6c-7.6,1.4-7.8,1.5-6.2-5.7c3.3-6.9,5.3-14.3,7.3-21.6c0.8-2.9-0.4-3.6-2.7-3.3
		c-7.8,1-15.4-1-23.1-1.8c-6.5-2.5-13.6-3.1-19.8-6.3c-3.1-1.6-3.3,1.5-3.9,3.3c-4,12.1-8,24.2-12,36.3c-0.8,2.3-1.1,4.8-3.2,6.4
		c-26.3,1.3-52.5,0.5-78.5-3.3c-11.8-1.7-23.3-4.4-34.3-9c0.5-2.5,2-4.6,3.5-6.7c2.4-0.4,2.6-2.4,3.2-4.2
		C600.9,792.5,603.3,782.2,605.6,771.9z"/>
	<path class="st8" d="M794.4,717.3c-18.7,0.3-36.8-4-55-7c-7.4-1.2-14.7-2.8-21.9-5c-4.1-1.3-5.6-0.2-6.2,3.9
		c-1.2,7.8-2.9,15.5-4,23.2c-0.5,3.5-1.9,4.7-5.3,4.9c-23.3,1.4-46.5,0.3-69.5-4c-6-1.1-11.9-2.8-17.9-3.9c-3.5-0.7-4.7-2.2-4-5.8
		c1.1-6,1.6-12.2,2.8-18.1c0.6-3.1-0.5-5-2.7-6.7c-3.5-2.6-7-5.3-10.5-7.9c-13.7-10.4-25-22.9-33.3-38c5.5-5.5,12.2-9.5,18.7-13.7
		c0.1,0.3,0.3,0.4,0.6,0.3c6.9,10.5,16.9,17.6,27.2,24.3c3.2,2.1,7.9,3.1,9.4,6c1.8,3.4-1.9,7.5-3.1,11.2c-0.9,2.8-0.3,3.8,2.1,4.5
		c4.7,1.4,9.3,3,14.1,4.1c24.9,5.8,50.1,4.8,75.3,3.7c2.7-0.1,4.1-1.4,4.6-4.1c1.2-6.2,2.5-12.3,3.8-18.5c0.8-3.8,2.7-5.2,6.8-3.6
		c22.3,8.9,45.7,13.3,69.3,16.2C796.5,694.9,795,706.1,794.4,717.3z"/>
	<path class="st7" d="M795.6,683.6c-23.7-2.9-47.1-7.3-69.3-16.2c-4.1-1.6-6-0.2-6.8,3.6c-1.4,6.2-2.6,12.3-3.8,18.5
		c-0.5,2.6-1.9,3.9-4.6,4.1c-25.2,1.1-50.5,2-75.3-3.7c-4.8-1.1-9.4-2.7-14.1-4.1c-2.4-0.7-2.9-1.8-2.1-4.5
		c1.2-3.8,4.9-7.8,3.1-11.2c-1.5-2.9-6.3-3.9-9.4-6c-10.3-6.8-20.2-13.9-27.2-24.3c8.7-5.1,17.5-10.2,26.2-15.2
		c4.8-0.5,8.9,2.8,13.6,2.3c5.2,3.3,10.9,1.6,16.5,2.1c2.4,1.7,1,3.3-0.1,4.9c-1.8,2.5-3.8,5-5.6,7.5c-2,2.7-1,3.6,2,4.4
		c19.3,5.1,39,5.5,58.8,4.9c7.5-0.2,15-0.7,22.5-1c4.3-0.2,7.1-2,8.1-6.5c1.1-4.8,3.5-9.1,5.8-13.4c1.6-3,3.4-4.3,7.1-3
		c16.8,5.9,34.1,10.3,51.8,12.5c2,4.4,2.5,9.1,2.7,13.8C795.9,663,796.8,673.3,795.6,683.6z"/>
	<path class="st9" d="M843,839.3c10.6,7.6,21.5,14.9,31.9,22.8c5.6,4.2,5.4,8.4,0,12.9c-11,9.3-22.8,17.3-36.6,22
		c-3.5,1.2-7,2.1-10.2,4.1c-3.4,1.3-7.3,0.6-10.6,2.4c-15.6,2.7-30.9,6.5-46.2,10.4c-18.4,2.6-36.9,4.1-55.4,5.4
		c0.6-2,2.6-2.6,3.9-3.9c1.7-1.7,4.9-2,5.2-5.2c1.7-1.2,2.6-2.8,2.8-4.9c1.5-1.1,2.3-2.7,2.4-4.5c2.1-1.9,3.1-4.3,3.6-7
		c1.4-2.3,2-4.8,2-7.5c2-3.2,2.6-6.8,3.2-10.4c0.7-0.9,1.1-2,0.9-3.2c1.5-5.2,5.1-7.1,10.5-7.3c4.7-0.2,9.3-1.4,13.9-2.3
		C791.4,857.8,817.7,850.1,843,839.3z"/>
	<path class="st7" d="M591,813.4c11,4.6,22.5,7.3,34.3,9c26.1,3.8,52.2,4.6,78.5,3.3c-3.4,14.2-8.2,27.8-15.4,40.5
		c-0.8,1.4-2.5,2.4-3.8,3.5c-15,0-30.1,0-45.1-1.4c-27.1-2.6-53.7-6.8-77.6-21.2C574.4,838.3,582.5,825.7,591,813.4z"/>
	<path class="st10" d="M569,1459.4c-10.2-4.6-20.3-0.2-30.3,0.7c-5.9,0.5-10.5-0.5-15-4c-28.2-22-60.2-35.8-94.7-44.1
		c-7.1-1.7-14.5-1.3-21.8-2.2c3.1-4,7.8-2.8,11.8-3.6c4,2.1,8.5,1.2,12.8,2.3c18,4.5,35.2,11.1,52.3,18.3c1.6,0.7,3.3,1,5,1.5
		c4.6,2.5,9.2,5,13.8,7.5c9.1,4.9,17.2,11.3,25.5,17.4c2.1,1.5,4,3.7,6.9,3.3c8.6-1.1,17.3-2.3,25.9-3.5c2.9-0.4,4-2,3.9-5.1
		c-0.2-4.9-0.1-9.8,0.3-14.7c1-13.7,1.3-27.5,3.6-41.1c1.4-8.4,1.4-17.1,2.8-25.5c2.5-15.3,4-30.8,5.9-46.2
		c1.9-15.2,3.2-30.6,5.8-45.7c3.2-18.4,4.5-37,7.5-55.4c2-12.5,2.3-25.2,5.3-37.7c4.2-17.5,10.3-34.4,16.3-51.3
		c4.5-12.7,9.9-25,13.8-37.9c4.8-16,9.4-32.2,16-47.7c4.7-10.9,8.7-22.2,15.4-32.1c1.3-2,3.7-5.1-0.7-6.1
		c-7.3-1.7-13.5-5.8-20.4-8.2c-1.6-1.1-3.1-2.1-4.7-3.2c-1.2-0.9-2.1-2-1.4-3.5c0.7-1.7,2.3-1.3,3.6-0.9c2.1,0.6,4.2,1.5,6.3,2.3
		c4.6,4.3,10.5,6.1,16.3,7.8c15,4.6,30.4,4.1,45.7,1.7c2.4-0.4,5-1.1,5.3,2.1c0.4,3.3-2.5,2.9-4.7,3.5c-6.5,1.7-13.3,0.5-19.8,1.6
		c-2.8,0.5-3.9,1.5-3.3,4.5c3.4,18.5,2.6,37.3,3.5,55.9c1.3,25.2-0.6,50.4-1,75.6c0,0.7-0.1,1.4-0.1,2.1c-1.9,19.3-3.1,38.5-2.3,58
		c1.2,27.9,3.6,55.9,2.5,83.9c-0.1,1.9,0.5,3.9-0.7,5.6c-1-0.7-1.3-1.6-1.2-2.7c0.7-7-1.4-13.8-1.1-20.8c0.1-2.3-0.2-4.5-2.3-6.1
		c0-2,0-4,0-6c-0.1-2.8,0.7-5.6-0.5-8.3c-0.4-6.8-1-13.6-1.2-20.4c-0.6-13.8-0.7-27.6-0.8-41.4c-0.3-26.7,1.6-53.4,3.4-80.1
		c1.1-16.4-0.4-32.9-1.2-49.3c-0.3-5.4-0.5-10.8-0.5-16.2c-0.1-10.2-0.7-20.3-2-30.3c-0.3-2.2-0.4-4.5-3.3-4.3
		c-2.9,0.1-6.2-1.7-8.3,2.2c-7.2,13.2-13,27.1-18.4,41.1c-8.7,22.7-13.9,46.6-23,69.1c-0.2,0.3-0.4,0.7-0.6,1
		c-0.1,0.4-0.1,0.7-0.2,1.1c-0.8,0.5-1,1.3-1,2.2c0,0.2,0,0.5-0.1,0.7c-3.9,7.1-5.8,14.9-8.5,22.5c-6.4,17.8-11.6,35.8-13.6,54.7
		c-1.6,15.4-3.5,30.8-5.5,46.2c-2.2,17.1-5,34.2-7.1,51.3c-3.4,26.8-6.4,53.7-9.7,80.5c-2.7,21.7-5.3,43.3-5.1,65.2
		c0,3.7,0,7.3-0.9,10.9C569.1,1458.8,569.1,1459.1,569,1459.4z"/>
	<path class="st8" d="M562.1,847.2c23.9,14.4,50.5,18.5,77.6,21.2c15,1.5,30,1.5,45.1,1.4c-0.5,3.6-3.5,5.1-6.1,6.8
		c-15.1,9.8-30.4,19.4-45.6,29c-1.8,1.1-3.7,2.1-5.3,3.3c-9.3,7-7.7,5.9-15.1-1.5c-7.8-7.8-15.1-15.8-20.1-26
		c-5.8-11.9-15.6-15.6-25.7-10.8c-4.5,2.1-7.2,5.4-7.2,10.6c0,6.5-0.8,13,2.7,18.9c0.4,0.7,0.7,1.7,0,2.4c-0.8,0.8-1.6,0.2-2.4-0.1
		c-1.5-0.5-3-1.1-4.4-1.8c-6.8-3.6-13.9-6.7-21.5-8c-6.3-7.1-6.3-8.1,0.3-15.4c3.2-3.6,6.5-7.3,9.7-10.9c0,0,0,0.1,0,0.1
		c0.6-0.2,0.9-0.6,0.9-1.2c0,0,0-0.1,0-0.1s0.4-0.2,0.4-0.2l-0.2-0.4C548.9,857,554.2,850.8,562.1,847.2z"/>
	<path class="st7" d="M843,839.3c-25.3,10.8-51.6,18.6-78.6,23.9c-4.6,0.9-9.3,2.1-13.9,2.3c-5.4,0.2-8.9,2.1-10.5,7.3
		c-0.8-6.3,4.5-10.2,6-15.7c3.6-13.2,10.4-25.4,12.1-39.3c0.2-1.9,0.6-4.3,3.2-5c-1.5,7.2-1.4,7.2,6.2,5.7
		c15.1-2.9,29.8-7.4,44.5-11.6c6,6.5,11.9,13.1,18,19.5C834.3,830.8,838.7,835,843,839.3z"/>
	<path class="st9" d="M529.7,679.8c14.1,23.9,34.1,42,56.6,57.6c6.5,4.5,13,8.9,19.5,13.3c-3.4,8.7-9.4,15.6-15.4,22.6
		c-1,1.2-2.1,2.3-3.2,3.4c-1.2-0.2-1.8,0.4-1.8,1.6c-1.1-0.4-2.3-0.8-3.4-1.1c-0.5-0.9-1.2-1.5-2.3-1.3l0.1,0
		c-0.7-2-2.7-2.6-4.3-3.6c-6.7-4.5-13.2-9.2-19.2-14.6c-11.4-10.1-19.5-22.9-29-34.5c-1.6-2.4-3.2-4.8-4.8-7.3
		c-3.7-8.2-7.5-16.4-11.2-24.6c0.2-0.8,0.3-1.6,0.5-2.4c0,0,0,0,0,0c1.5-0.7,3-1.4,4.5-2.1c0.6,0.4,1,0.1,1.2-0.5
		C521.4,684.2,525.5,682,529.7,679.8z"/>
	<path class="st8" d="M792.8,639c-17.7-2.2-35-6.6-51.8-12.5c-3.7-1.3-5.5,0-7.1,3c-2.3,4.3-4.7,8.7-5.8,13.4
		c-1.1,4.6-3.8,6.4-8.1,6.5c-7.5,0.3-15,0.7-22.5,1c-19.8,0.7-39.5,0.2-58.8-4.9c-3-0.8-4-1.7-2-4.4c1.9-2.5,3.8-5,5.6-7.5
		c1.1-1.6,2.5-3.2,0.1-4.9c1.5-1.2,3.3-1.1,5-1.3c17-2.4,34.2-1.5,51.2-3.8c23.8-3.3,48-3.9,70.9-12.3
		C780.2,618,789.9,625.6,792.8,639z"/>
	<path class="st11" d="M716,919.3c18.5-1.3,37-2.8,55.4-5.4c11.8-0.7,23.5-1.9,35.1-3.9c4.1-0.7,10,0.1,11.1-6.4
		c3.3-1.8,7.1-1.2,10.6-2.4c-0.3,7.1-0.6,14.2-2.4,21.1c-16.8,2.7-33.9,3.7-50.8,5.9c-15.7,2.1-31.4,3.8-47.1,5.8
		c-10.9,1.4-21.9,1.2-32.7,2.9c-1.4,0.2-2.4-0.1-2.9-1.6C700.1,929.9,708.1,924.6,716,919.3z"/>
	<path class="st11" d="M569.2,1458.5c0.9-3.6,0.9-7.2,0.9-10.9c-0.2-21.9,2.5-43.5,5.1-65.2c3.3-26.8,6.3-53.7,9.7-80.5
		c2.2-17.1,4.9-34.2,7.1-51.3c2-15.4,3.9-30.8,5.5-46.2c2-18.9,7.2-37,13.6-54.7c2.7-7.5,4.7-15.4,8.5-22.5
		c-1.1,10.1-4.9,19.6-7.1,29.5c-5.3,23.7-11.2,47.3-14.7,71.3c-2.8,19.2-6.3,38.2-8.1,57.5c-1.4,14.6-4,29-5.8,43.6
		c-2.2,18-4.6,36-5.6,54.1c-1.1,20.1-1.9,40.1-3.2,60.2C574.8,1448.9,574.3,1454.7,569.2,1458.5z"/>
	<path class="st12" d="M677.3,1266.1c2,1.6,2.4,3.8,2.3,6.1c-0.3,7,1.7,13.8,1.1,20.8c-0.1,1.1,0.3,2.1,1.2,2.7
		c0.2,4.6,0.5,9.1,0.7,13.7c-1,3.9-2.3,7.9,0.7,11.5c0.1,3.9,0.2,7.7,0.4,11.6c-1.1,5.7-2.4,11.3,0.8,16.8
		c0.1,5.2,0.3,10.5,0.4,15.7c-1.8,7.7-1.6,15.4-0.1,23.1c-0.5,8.1-0.9,16.1-1.4,24.2c-1.4,0.5-1.8,1.6-1.6,2.9
		c0.5,5-0.4,10-1.2,14.9c-0.7,3.6,0.9,8-3,10.7c-2-8.2-0.7-16.3,0.3-24.4c0.2-1.2,0.5-2.4,0.5-3.6c0.6-26.1,2.3-52.1,1.1-78.2
		c-1-20.9-2.7-41.9-2.8-62.9C676.7,1269.9,676.3,1267.9,677.3,1266.1z"/>
	<path class="st13" d="M478.6,140.5c5,3.3,10.8,2.1,16.2,3c19.3,3.2,38.9,4,58.5,3.3c17.4-0.7,34.8-2.2,52.1-3.9
		c9.5-0.9,19.1-1.5,28.7-2.3c14.2-1.3,28.5-2.2,42.7-3.1c2.2-0.2,4.5,0,7.4,0c-2.7,2-5.8-0.1-7.7,2.1c-0.7,0-1.3,0-2,0.1
		c-1.8,0-3.8-0.7-5.3,1c-1.7,0.1-3.4,0.1-5.1,0.2c-0.9-0.2-1.7,0-2.3,0.8c-15.3,1.4-30.6,2.7-45.9,4.3c-30.6,3.2-61.4,5-92.2,3.9
		c-12.4-0.4-24.7-2.1-37-3.1c-3.8-0.3-6-4.4-10.1-4c0-0.4,0-0.7,0-1.1C477,140.8,477.7,140.4,478.6,140.5z"/>
	<path class="st6" d="M476.6,141.6c0,0.4,0,0.7,0,1.1c-8.2,5.7-11,14.2-11.5,23.6c-1.1,23.8,0.5,47.4,5.8,70.9
		c4,17.7,8.9,35.1,13.3,52.7c4.6,18.1,9.9,36,14.8,54c2.7,9.9,6.1,19.6,9.1,29.5c4.1,13.7,7.7,27.5,11.4,41.2c0.3,1,0,2.1-0.1,3.1
		c-3.4-5.7-4.1-12.2-5.7-18.4c-6.1-23.6-13.9-46.6-20.4-70.1c-5.4-19.4-10.3-38.9-15.9-58.3c-5.2-18-9.1-36.3-11.9-54.9
		c-3-20.3-4.5-40.7,0.2-61C467.2,148.9,470.6,144.1,476.6,141.6z"/>
	<path class="st13" d="M769.5,611.3c-22.9,8.3-47.1,9-70.9,12.3c-17,2.3-34.2,1.5-51.2,3.8c-1.7,0.2-3.5,0.1-5,1.3
		c-5.5-0.4-11.3,1.2-16.5-2.1c0.3-1.4,1.1-2.2,2.5-2.1c10.3,0.2,20.4-2.1,30.8-0.4c8.1,1.3,16.5-0.2,24.5-1
		c18.9-2,37.6-5.2,56.3-8.1c8.9-1.4,17.8-3.4,26.7-5c1.7-0.3,3.5-0.7,5.1,0.2C771.1,610.5,770.3,610.9,769.5,611.3z"/>
	<path class="st10" d="M830.8,1436.9c-11.7,1.9-23.5,3.4-34.9,6.6c-14.5,4.1-28.2,10.3-41.4,17.4c-2.7,1.5-5.3,3.4-8.6,3.7
		c0.2-1.6,1.2-2.4,2.6-3c8.4-4,16.9-7.9,25.3-12.1c5.7-2.9,11.9-4.6,17.8-6.8c3.8-1.5,1.7-2.6-0.3-3.7c9.3-4.1,19.3-5.1,29.3-6.4
		c2.9-0.4,5.9-0.7,8.8-1C830.3,1433.1,830.7,1435,830.8,1436.9z"/>
	<path class="st12" d="M527.2,723.1c9.5,11.7,17.6,24.4,29,34.5c6,5.4,12.5,10.1,19.2,14.6c1.6,1,3.6,1.6,4.3,3.6
		c-9.9-2.9-17.7-9-25.3-15.6c-2.6-2.3-4.9-4.9-7.4-7.3c-1.2-1.1-2.4-2.8-4.2-0.8c2.5-2.4,2.8-4.5-0.2-6.8c-4-3.1-6.8-7.4-9.8-11.4
		C530.9,730.4,529.1,726.8,527.2,723.1z"/>
	<path class="st10" d="M677.5,1440.8c3.9-2.7,2.3-7.1,3-10.7c0.9-4.9,1.7-9.8,1.2-14.9c-0.1-1.3,0.2-2.4,1.6-2.9
		c0.1,10.8,0.7,21.6,0.1,32.4c-0.3,5.9,2.6,8.1,7.3,9.5c1.5,0.4,3.1,0.5,4.6,0.7c-0.2,2-3.9,1.7-2.9,4.5c-0.7,0.3-1.4,0.5-2.1,0.8
		c-2.7-0.9-5.1-3.1-8.3-1.8c-0.8,0.3-1.6,0.1-1.9-1.1C679,1451.7,677.2,1446.4,677.5,1440.8z"/>
	<path class="st6" d="M522.3,459.2c1.8,0.6,1.6,2.1,1.6,3.5c-0.3,12.2,5.4,22.9,9.4,33.9c5.3,14.5,12.3,28.3,18.9,42.3
		c0.7,1.4,1.4,2.8,1.2,4.5c-4.8-6.3-7.2-13.9-10.6-20.9c-7.3-15.1-13.5-30.7-18.6-46.7C522.5,470.4,521.9,464.9,522.3,459.2z"/>
	<path class="st6" d="M853.7,145.8c-3-4.2-3.3-9.3-4.5-14c-2.1-8-6-15.1-9.9-22.2c-1.9-3.6-6.6-3-9.1-5.7
		c11.4,0.9,15.8,9.4,19.3,18.5C852.3,129.9,853.8,137.7,853.7,145.8z"/>
	<path class="st12" d="M605.6,771.9c-2.3,10.3-4.7,20.6-7.9,30.6c-0.6,1.8-0.8,3.8-3.2,4.2c3.7-15.5,7.7-30.9,10.4-47.5
		c2.2,3.8-0.6,6.4,0,9.2C605.2,769.6,604.3,771,605.6,771.9z"/>
	<path class="st6" d="M560.3,557c2.1,0.4,2.5,2.3,3.3,3.8c6.5,11.9,13,23.9,19.5,35.8c1.3,2.5,2.5,5,2.9,7.8
		c-1.7-0.9-2.2-2.7-2.9-4.3c-6.4-13-13.5-25.7-20.7-38.4C561.6,560.3,561,558.6,560.3,557z"/>
	<path class="st6" d="M675.3,99.6c-5.8,2.2-11.9,1.9-17.9,2.7c-9.8,1.3-19.8,1.6-29.7,2.3c6.1-2.5,12.7-2.1,19-2.6
		C656.3,101.3,665.7,99.1,675.3,99.6z"/>
	<path class="st6" d="M612.3,624.3c-8.7,5.1-17.5,10.2-26.2,15.2c-0.3,0.1-0.5-0.1-0.6-0.3c5.2-5.6,12.4-8.2,18.6-12.4
		c1.6-1.1,4.7-1.2,4.5-3.7c-0.2-2-3-1.9-4.6-2.9c-0.4-0.3-0.7-0.7-1.1-1.1c1.7,0.3,3.4,0.5,5.1,0.8
		C609,621.8,612.4,621.3,612.3,624.3z"/>
	<path class="st12" d="M511.1,691.3c3.7,8.2,7.5,16.4,11.2,24.6c-1.1,0.1-2.3,0.1-3.4,0.2c-2.2-7.1-7-13.2-7.9-20.8
		C510.9,693.9,510.1,692.6,511.1,691.3z"/>
	<path class="st12" d="M543.9,866.4c-3.2,3.6-6.4,7.3-9.7,10.9c-6.5,7.3-6.6,8.3-0.3,15.4c-1.4-0.4-2.8-0.7-4.2-1.1
		c-4-6.1-2.9-11.4,2.4-16.2C535.8,872,538.8,867.8,543.9,866.4z"/>
	<path class="st6" d="M519.7,419.3c5.3,12,9.6,24,2.6,36.9c0-1-0.3-2.2,0.1-3.1c4.5-10.3,0.4-20-2.2-29.8
		C519.8,422,519.1,420.8,519.7,419.3z"/>
	<path class="st6" d="M762.6,98.6c-7.7,2-15.5,0.6-23.3,0.8c-3.4,0.1-6.9,1-10.2-0.8C740.3,98.1,751.5,97.7,762.6,98.6z"/>
	<path class="st6" d="M712.1,98.6c-4.4,1.9-8.9,0.7-13.4,0.8c-6.4,0.2-12.9,0-19.4,0c2.9-2,6.1-1,9.2-1
		C696.4,98.3,704.3,98.5,712.1,98.6z"/>
	<path class="st6" d="M614.3,106.8c-7.8,2.7-15.8,4.4-24,4.7C598.3,109.6,606.1,107.4,614.3,106.8z"/>
	<path class="st6" d="M562.8,117.4c-7,3.1-14.5,3.7-21.9,4.6C548,119.8,555.3,118.1,562.8,117.4z"/>
	<path class="st6" d="M587.3,606.5c5.7,2.8,8.6,9,14.5,11.6c0,0.3,0,0.5,0,0.8C595.1,616.9,591.1,611.8,587.3,606.5z"/>
	<path class="st6" d="M538.6,122.6c-5.5,2.7-11.5,2.9-17.3,4.1C526.8,124.1,532.6,122.8,538.6,122.6z"/>
	<path class="st6" d="M789.6,99.4c-4-0.1-8.1,1-12.1-0.7C781.6,98.4,785.6,97.6,789.6,99.4z"/>
	<path class="st6" d="M828.4,103.6c-4.1,0.3-8.1-0.6-12-1.9C820.6,101.1,824.6,101.8,828.4,103.6z"/>
	<path class="st6" d="M553.7,544.5c3.5,2.1,4.5,5.6,4.9,9.4C556,551.3,554.8,547.9,553.7,544.5z"/>
	<path class="st6" d="M576.4,114.4c-3.3,1.6-6.5,3.1-10.3,2.3C569.5,115.6,572.8,114.1,576.4,114.4z"/>
	<path class="st6" d="M488,136.6c-2.9,1.9-5.7,3.8-9.3,4C481.3,138,484.6,137.1,488,136.6z"/>
	<path class="st6" d="M725.8,98.6c-3.1,1.4-6.2,1.4-9.3,0C719.6,97.8,722.7,98.2,725.8,98.6z"/>
	<path class="st6" d="M775.3,98.6c-3.1,1.4-6.2,1.4-9.3,0C769,97.9,772.1,98,775.3,98.6z"/>
	<path class="st6" d="M853.9,161.5c-1.2-3-1-6.1-0.2-9.1C854.7,155.3,854.6,158.4,853.9,161.5z"/>
	<path class="st6" d="M512.3,129c-3,2.2-6.5,2.4-10,3C505.4,130.3,508.5,128.5,512.3,129z"/>
	<path class="st6" d="M588,112.1c-2.6,2.3-5.6,2.3-8.8,2C582,112.7,584.9,111.7,588,112.1z"/>
	<path class="st6" d="M498.6,133c-2.3,2.9-5.8,2.4-8.8,3.2C492.4,134.1,495.4,133.2,498.6,133z"/>
	<path class="st6" d="M812.9,101.2c-2.8,0.3-5.6,1.5-8.1-0.8C807.6,99.8,810.3,99.8,812.9,101.2z"/>
	<path class="st6" d="M624.8,104.9c-2.6,1-5.1,2.6-8.1,1.4C619.3,105.1,621.9,104.4,624.8,104.9z"/>
	<path class="st6" d="M800.4,99.9c-2.4,1-4.8,1.3-7.2-0.3C795.7,98.8,798.1,98.8,800.4,99.9z"/>
	<path class="st6" d="M519.6,127c-1.5,1-3.1,2-5,1.4C516.1,127.4,517.7,126.4,519.6,127z"/>
	<path class="st12" d="M676.9,1251.8c1.1,2.7,0.4,5.6,0.5,8.3C676.1,1257.4,676.6,1254.6,676.9,1251.8z"/>
	<path class="st12" d="M532.3,758.7c0.8-0.4,1.6-0.8,2.4-1.2C533.9,757.9,533.1,758.3,532.3,758.7z"/>
	<path class="st13" d="M775.3,610c0.9-1.6,2.3-1.3,3.7-1C777.9,610.1,776.8,610.7,775.3,610z"/>
	<path class="st12" d="M523.8,763.8l0.1-0.4c0,0,0.3,0.2,0.3,0.2S523.8,763.8,523.8,763.8z"/>
	<path class="st4" d="M238.5,978.9c1.1,0.4,1.7,1,0.6,2.1C238.3,980.4,238.1,979.8,238.5,978.9z"/>
	<path class="st13" d="M784.7,606.9c0.4-1.1,1.3-1.4,2.3-1.2C786.7,606.7,785.9,607.2,784.7,606.9z"/>
	<path class="st12" d="M539.5,754.4l0.2-0.4c0,0,0.4,0.2,0.4,0.2C539.8,754.2,539.6,754.3,539.5,754.4z"/>
	<path class="st12" d="M517.3,686.3c-0.2,0.6-0.6,0.9-1.2,0.5C516.2,685.9,516.6,685.9,517.3,686.3z"/>
	<path class="st11" d="M824.7,929.5c-1.2-1.1-0.6-1.7,0.6-2C825.6,928.3,825.5,929,824.7,929.5z"/>
	<path class="st12" d="M585.4,778.3c0-1.2,0.6-1.8,1.8-1.6C587,777.7,586.3,778.2,585.4,778.3z"/>
	<path class="st12" d="M579.6,775.9c1.1-0.2,1.8,0.4,2.3,1.3C581,777.2,580,777.1,579.6,775.9z"/>
	<path class="st11" d="M619.7,1126.4c0-0.9,0.2-1.7,1-2.2C620.4,1125,620,1125.7,619.7,1126.4z"/>
	<path class="st4" d="M601.7,618.9c0-0.3,0-0.5,0-0.8c0.4,0.3,0.7,0.7,1.1,1C602.5,619.1,602.1,619,601.7,618.9z"/>
	<path class="st11" d="M620.9,1123.1c0.2-0.3,0.4-0.7,0.6-1C621.3,1122.4,621.1,1122.8,620.9,1123.1z"/>
	<path class="st12" d="M544.9,864.5l0.2,0.4c0,0-0.4,0.2-0.4,0.2C544.7,864.9,544.8,864.7,544.9,864.5z"/>
	<path class="st12" d="M544.7,865.2c0.1,0.7-0.2,1.1-0.9,1.2C544.1,866,544.4,865.6,544.7,865.2z"/>
	<path class="st12" d="M511.6,689C511.6,689,511.6,688.9,511.6,689C511.6,688.9,511.6,689,511.6,689z"/>
	<path class="st12" d="M636.5,571.1c-10.5-15-21.6-29.6-27.1-47.4c-0.8-2.5-1.5-5-2.3-7.5c-3-9.6,1.8-17,12-17.8
		c5.6-0.4,11.2-0.4,16.8-0.2c10.5,0.4,20.5-2.1,30.3-5.5c6.2-2.1,12.6-2.8,19.1-2.8c8.4-0.1,14.1,5.4,14.1,14.1
		c0,9.2-2.9,17.9-4.9,26.8c-2.4,10.6-5.4,21-10.6,30.7c-4.2-4.1-6.3-9.6-9.3-14.4c-6.4-10.1-19.5-12.9-27.5-5.6
		c-3.8,3.5-5.1,8.2-6.4,13C639.2,559.9,639,565.8,636.5,571.1z"/>
	<path class="st12" d="M717.7,401.8c0.9,10.6-1.1,21.3-2.8,32c-1.6,10-8.3,16.2-17.1,19.7c-7.8,3.1-13.9-1.6-19.2-6.7
		c-8.3-7.9-10.3-18.8-13-29.3c-2.8-10.9-3.6-22.1-4.1-33.3c-0.4-9.9,2.4-19,6.3-27.9c3.8-8.5,9.7-15.2,19.4-15.5
		c9.1-0.3,14.8,6.5,19.4,13.5C716,368.6,718.6,384.6,717.7,401.8z M696.6,385.3c-0.1-2.1,0-4.2-0.3-6.3c-1.1-6.9-2.1-14-7.9-18.9
		c-4.9-4.2-9.6-3.7-13.7,1.1c-4.4,5.1-5.6,11.4-5.1,17.7c0.8,9.6,3,18.8,13.1,23.4c5.4,2.4,9.6,0.7,12-4.7
		C696.3,393.6,696.8,389.5,696.6,385.3z"/>
	<path class="st12" d="M629.7,408.8c0.3,9.3-1.1,21.6-7.5,33c-8.9,15.8-25.3,16.5-34,0.6c-8.4-15.3-15.5-31.5-15.7-49.5
		c-0.2-10.5,1.9-20.6,7.1-30.3c6.8-12.7,26.9-17.1,37.8-1C626.1,374.8,630.2,389.4,629.7,408.8z M605.8,383.4
		c0.5-4.4,0.4-8.8-1.6-12.9c-2.2-4.7-5.9-7.4-11-7.9c-4.7-0.4-7.2,2.9-9.3,6.6c-4.8,8.7-6.1,17.7-3.4,27.4
		c1.7,6.1,6.3,10.3,12.2,10.5c5.1,0.1,9.5-3.3,11.5-9.1C605.8,393.2,605.9,388.3,605.8,383.4z"/>
	<path class="st14" d="M636.5,571.1c2.5-5.3,2.7-11.1,4.2-16.6c1.3-4.8,2.7-9.5,6.4-13c8-7.4,21.1-4.6,27.5,5.6
		c3.1,4.8,5.1,10.3,9.3,14.4c0.2,2.8-1.2,4.9-2.5,7.2c-2.8,5-5.3,10.2-7.9,15.3c-4.4,8.6-13.7,10.8-20.8,4.5
		C646.8,583.2,641.1,577.6,636.5,571.1z"/>
	<path class="st4" d="M669.1,140.6c1.5-1.7,3.5-1,5.3-1C673.1,142.5,671.2,141.9,669.1,140.6z"/>
	<path class="st4" d="M661.7,141.6c0.6-0.8,1.3-1,2.3-0.8C663.5,141.9,663.1,143.1,661.7,141.6z"/>
	<path class="st11" d="M695.4,1454.8c-1.5-0.2-3.1-0.2-4.6-0.7c-4.7-1.4-7.6-3.5-7.3-9.5c0.5-10.8,0-21.6-0.1-32.4
		c0.5-8.1,0.9-16.1,1.4-24.2c1.6-7.7,1.9-15.4,0.1-23.1c-0.1-5.2-0.3-10.5-0.4-15.7c0.2-5.6,1.3-11.3-0.8-16.8
		c-0.1-3.9-0.2-7.7-0.4-11.6c0.2-3.9,1.2-7.8-0.7-11.5c-0.2-4.6-0.5-9.1-0.7-13.7c1.2-1.8,0.6-3.7,0.7-5.6c1.1-28-1.3-55.9-2.5-83.9
		c-0.8-19.5,0.4-38.7,2.3-58c0.1-0.7,0.1-1.4,0.1-2.1c0.4-25.2,2.3-50.4,1-75.6c-1-18.7-0.2-37.4-3.5-55.9c-0.6-3,0.6-4,3.3-4.5
		c6.6-1.1,13.3,0.1,19.8-1.6c2.2-0.6,5.1-0.2,4.7-3.5c-0.4-3.2-3-2.5-5.3-2.1c-15.3,2.3-30.7,2.9-45.7-1.7
		c-5.7-1.8-11.6-3.6-16.3-7.8c2.9-7.9,7.3-10.2,14.7-7c7.1,3.1,14.8,4,22.2,6.1c1.4,0.4,2.8,0.1,3.9-0.9c3.3-3.1,7.1-2.5,10.8-0.9
		c2.6,1.1,5.1,1.3,7.7,0.8c7-1.3,11.1,0.7,14.8,6.9c1.7,2.9,2.6,6.2,2.9,9.5c1.4,16.2,2,32.5,0.9,48.7c-1,14.9-0.4,29.7-0.8,44.6
		c-0.3,11.5-0.3,23-0.9,34.6c-0.9,18.5,0.9,37,1,55.6c0.2,18.1,1.8,36.2,3,54.3c1.2,17.5,2.1,35.2,4.4,52.6
		c2.6,19.7,4.1,39.4,6.7,59.1c2.9,21.6,6.3,43,8.8,64.6c0.3,2.7,1.5,4.1,3.8,5.1c12.4,5.5,25.3,9,38.7,10.7c1.6,0.2,3.2-0.1,4,1.7
		c-2.1,2.1-5.1,2.2-7.4,3.7c-1.9,0.3-3.8,0.6-5.2,2.2c-11.9,4.4-22.9,10.4-33.8,16.7c-1,0-2.1,0-3.1-0.1c-10.9-2.3-22-3.9-32.7-7.4
		c-2.1-1.6-4.2-1.7-6.3,0C697.5,1454.7,696.5,1454.8,695.4,1454.8z"/>
	<path class="st1" d="M716,919.3c-7.9,5.3-15.8,10.6-23.8,15.9c-0.9,0.3-1.7,0.7-2.6,1c-1.4-0.4-2.4,0-2.7,1.6
		c-0.1,0.4-0.3,0.5-0.7,0.4c-4.7,0.7-8.2,3.2-10.9,7c-0.1,0.4-0.3,0.5-0.6,0.4c-4.3,0.9-7.8,3-9.9,7c-0.6,0.4-1.3,0.9-1.9,1.3
		c-1.3-0.2-2.2,0.3-2.3,1.7c-1,0.8-2,1.6-3,2.5c-1.3-0.2-2.1,0.3-2.3,1.7c-0.1,0.4-0.3,0.5-0.7,0.5c-6.3,1.3-10.4,5.9-15,9.8
		c-1.4,1.2-2.4,2.5-2.2,4.5c-0.4,1.1-1.1,1.9-2.2,2.3c-1.8,0-2.7,1.4-3.8,2.5c-6,6.3-11.9,12.6-17.9,18.9c-0.7,0.8-1.3,1.6-1.3,2.7
		l-0.2,0.4c0,0-0.4,0-0.4,0c-5.9,2.8-11.4,6.2-14,12.7c-0.1,0.9-0.6,1.4-1.4,1.7c-2.5,0.1-2.8,2.3-3.9,3.8c-7,9.5-11,21.1-20,29.3
		c-5.7,5.2-12.8,6.6-19.9,6.7c-7.1,0.1-12.1-7.3-12.9-16c-1.3-13.1,4.5-24.1,10-35.3c1.7-3.4,3.8-6.7,5.8-10c1.8-2.9,0.5-4-2.3-3.7
		c-2.1,0.2-4.1,0.9-6.1,1.6c-11.7,4.3-23.4,8.3-35.7,10.4c-8.6,1.5-17.3,2-26.1,1.6c-1.8-0.1-3.6-0.4-4.3-2.4
		c-0.7-2.1,0.8-3,2.3-4.2c15.5-12.3,33.2-20.6,51.7-27.3c23.9-8.8,48.2-16.5,72-25.7c30.5-11.8,59.8-26.1,87.5-43.6
		c3.8-2.4,7.2-5.5,10.8-8.2c8.8-6.7,11.1-17.4,14.5-26.7c9.3-26.1,17.3-52.8,23.1-80c7.7,0.8,15.2,2.9,23.1,1.8
		c2.3-0.3,3.5,0.4,2.7,3.3c-2,7.4-4,14.7-7.3,21.6c-2.6,0.7-2.9,3.1-3.2,5c-1.7,13.8-8.5,26.1-12.1,39.3c-1.5,5.5-6.8,9.4-6,15.7
		c0.2,1.2-0.2,2.2-0.9,3.2c-3.2,2.8-3.1,6.6-3.2,10.4c0,2.7-0.6,5.2-2,7.5c-2.9,1.5-3.4,4.1-3.6,7c-0.1,1.9-0.9,3.4-2.4,4.5
		c-2.6,0.7-2.9,2.7-2.8,4.9c-0.3,3.2-3.5,3.5-5.2,5.2C718.5,916.7,716.6,917.3,716,919.3z"/>
	<path class="st11" d="M636.7,998.7c6.9,2.3,13.1,6.5,20.4,8.2c4.4,1,2.1,4.1,0.7,6.1c-6.8,9.9-10.7,21.2-15.4,32.1
		c-6.7,15.4-11.2,31.6-16,47.7c-3.9,12.9-9.3,25.2-13.8,37.9c-6,16.9-12.1,33.8-16.3,51.3c-3,12.5-3.3,25.2-5.3,37.7
		c-3,18.4-4.3,37-7.5,55.4c-2.6,15.1-3.9,30.4-5.8,45.7c-1.9,15.4-3.4,30.8-5.9,46.2c-1.4,8.4-1.4,17.1-2.8,25.5
		c-2.3,13.6-2.6,27.4-3.6,41.1c-0.4,4.9-0.5,9.8-0.3,14.7c0.1,3-1,4.7-3.9,5.1c-8.6,1.2-17.3,2.4-25.9,3.5c-2.9,0.4-4.9-1.8-6.9-3.3
		c-8.3-6.1-16.5-12.4-25.5-17.4c-4.6-2.5-9.2-5-13.8-7.5c12.6-5.1,25.2-10.3,36.2-18.6c2.9-2.2,5.7-4.7,8.7-6.7
		c6.9-4.7,6-12.3,6.8-19c2-18,3.8-36,6.7-53.9c2.7-17,5.3-34,8.2-51c1.9-11,4.1-21.9,6.5-32.8c4.7-21.8,9.4-43.6,14.6-65.3
		c5.1-21,10.4-42,16.6-62.7c6.3-21.1,12.9-42,20.5-62.7C620.7,1036.4,628.3,1017.4,636.7,998.7z"/>
	<path class="st12" d="M704.8,1454.6c10.6,3.5,21.7,5,32.7,7.4c1,1.2,2,1.2,3.1,0.1c10.9-6.4,21.9-12.4,33.8-16.7
		c2.4,0.8,4.2,0.3,5.2-2.2c2.4-1.5,5.4-1.6,7.4-3.7c1.4-0.1,2.8-0.3,4.2-0.4c2,1.1,4.2,2.2,0.3,3.7c-6,2.3-12.1,4-17.8,6.8
		c-8.4,4.2-16.8,8.1-25.3,12.1c-1.3,0.6-2.4,1.4-2.6,3c-9.7,0-19.4-0.9-28.8-3.4c-8.2-2.1-16.3-2.8-24.6-1.9c-1-2.8,2.8-2.4,2.9-4.5
		c1-0.1,2.1-0.2,3.1-0.3C700.6,1456,702.7,1456,704.8,1454.6z"/>
	<path class="st6" d="M612.3,1000.9c-0.1-1.1,0.5-2,1.3-2.7c6-6.3,11.9-12.6,17.9-18.9c1.1-1.1,2-2.5,3.8-2.5
		C628.9,986.2,621.2,994.1,612.3,1000.9z"/>
	<path class="st6" d="M637.5,974.6c-0.3-2,0.8-3.4,2.2-4.5c4.6-3.9,8.8-8.5,15-9.8C648.9,965,643.2,969.8,637.5,974.6z"/>
	<path class="st6" d="M597.8,1014.1c2.6-6.5,8-9.9,14-12.7C607.7,1006.3,602.7,1010.1,597.8,1014.1z"/>
	<path class="st6" d="M675.4,945.2c2.7-3.8,6.3-6.2,10.9-7C683.1,941.2,679.5,943.6,675.4,945.2z"/>
	<path class="st6" d="M664.9,952.5c2.2-4,5.6-6.1,9.9-7C672,948.6,668.7,950.9,664.9,952.5z"/>
	<path class="st6" d="M655.4,959.8c0.2-1.4,1-1.9,2.3-1.7C657.4,959.2,656.6,959.8,655.4,959.8z"/>
	<path class="st6" d="M660.6,955.6c0.1-1.4,1-1.9,2.3-1.7C662.6,955,661.9,955.6,660.6,955.6z"/>
	<path class="st6" d="M687,937.8c0.2-1.6,1.2-2,2.7-1.6C689.1,937.2,688.2,937.9,687,937.8z"/>
	<path class="st10" d="M817.6,903.5c-1.1,6.5-7.1,5.7-11.1,6.4c-11.6,2-23.3,3.3-35.1,3.9C786.7,910,802,906.2,817.6,903.5z"/>
	<path class="st7" d="M735.9,886.3c0.1-3.8,0-7.6,3.2-10.4C738.5,879.5,737.9,883.1,735.9,886.3z"/>
	<path class="st7" d="M730.3,900.8c0.2-2.9,0.7-5.5,3.6-7C733.4,896.5,732.4,898.9,730.3,900.8z"/>
	<path class="st7" d="M725,910.2c0-2.2,0.3-4.2,2.8-4.9C727.6,907.3,726.7,909,725,910.2z"/>
	<path class="st10" d="M684.8,1365c1.8,7.7,1.6,15.4-0.1,23.1C683.2,1380.5,683.1,1372.8,684.8,1365z"/>
	<path class="st10" d="M683.7,1332.5c2.1,5.5,0.9,11.2,0.8,16.8C681.3,1343.8,682.6,1338.2,683.7,1332.5z"/>
	<path class="st10" d="M682.6,1309.4c1.9,3.7,1,7.7,0.7,11.5C680.3,1317.2,681.5,1313.3,682.6,1309.4z"/>
	<path class="st5" d="M696.6,385.3c0.2,4.3-0.3,8.4-2,12.3c-2.4,5.4-6.5,7.1-12,4.7c-10.1-4.5-12.3-13.8-13.1-23.4
		c-0.5-6.3,0.8-12.6,5.1-17.7c4.1-4.8,8.8-5.3,13.7-1.1c5.8,4.9,6.8,12,7.9,18.9C696.6,381,696.5,383.2,696.6,385.3z"/>
	<path class="st5" d="M605.8,383.4c0.1,4.9,0,9.8-1.6,14.5c-2,5.8-6.3,9.3-11.5,9.1c-5.9-0.2-10.5-4.3-12.2-10.5
		c-2.6-9.7-1.3-18.7,3.4-27.4c2-3.7,4.5-7,9.3-6.6c5.1,0.4,8.8,3.2,11,7.9C606.2,374.6,606.3,379,605.8,383.4z"/>
	<path class="st10" d="M704.8,1454.6c-2.1,1.5-4.2,1.5-6.3,0C700.6,1452.8,702.7,1452.9,704.8,1454.6z"/>
	<path class="st10" d="M779.6,1443c-1,2.5-2.8,3-5.2,2.2C775.7,1443.6,777.7,1443.4,779.6,1443z"/>
	<path class="st10" d="M740.6,1462c-1.1,1.1-2.1,1.1-3.1-0.1C738.5,1461.9,739.5,1462,740.6,1462z"/>
</g>
</svg>
