<?xml version="1.0" encoding="UTF-8" standalone="no"?>
<!-- Generator: Adobe Illustrator 21.1.0, SVG Export Plug-In . SVG Version: 6.00 Build 0)  -->

<svg
   xmlns:dc="http://purl.org/dc/elements/1.1/"
   xmlns:cc="http://creativecommons.org/ns#"
   xmlns:rdf="http://www.w3.org/1999/02/22-rdf-syntax-ns#"
   xmlns:svg="http://www.w3.org/2000/svg"
   xmlns="http://www.w3.org/2000/svg"
   xmlns:sodipodi="http://sodipodi.sourceforge.net/DTD/sodipodi-0.dtd"
   xmlns:inkscape="http://www.inkscape.org/namespaces/inkscape"
   version="1.1"
   id="Layer_1"
   x="0px"
   y="0px"
   viewBox="0 0 1296 1728"
   style="enable-background:new 0 0 1296 1728;"
   xml:space="preserve"
   sodipodi:docname="prima.svg"
   inkscape:version="0.92.4 5da689c313, 2019-01-14"><metadata
   id="metadata13"><rdf:RDF><cc:Work
       rdf:about=""><dc:format>image/svg+xml</dc:format><dc:type
         rdf:resource="http://purl.org/dc/dcmitype/StillImage" /></cc:Work></rdf:RDF></metadata><defs
   id="defs11" /><sodipodi:namedview
   pagecolor="#ffffff"
   bordercolor="#666666"
   borderopacity="1"
   objecttolerance="10"
   gridtolerance="10"
   guidetolerance="10"
   inkscape:pageopacity="0"
   inkscape:pageshadow="2"
   inkscape:window-width="1680"
   inkscape:window-height="996"
   id="namedview9"
   showgrid="false"
   inkscape:zoom="0.44887765"
   inkscape:cx="-210.26038"
   inkscape:cy="864"
   inkscape:window-x="0"
   inkscape:window-y="28"
   inkscape:window-maximized="1"
   inkscape:current-layer="Layer_1" />
<g
   id="g6"
   style="fill:#255ec6;fill-opacity:1"
   inkscape:export-filename="/home/victor/Desktop/dulceria-valdez/photos/prima.png"
   inkscape:export-xdpi="9.6272764"
   inkscape:export-ydpi="9.6272764">
	<path
   d="M51.8,1127.6c0-62.3,0.1-124.7-0.1-187c0-13,4.7-21.3,17.1-26.7c40.1-17.4,79.9-35.5,119.8-53.4   c48.7-21.8,97.4-43.7,146.1-65.4c3.6-1.6,5.2-3.8,5.1-7.6c-0.1-1.8,0-3.7,0-5.5c0-118.3,0.1-236.6-0.1-355   c0-12.8,5.4-21.1,17.2-25.8c7.1-2.8,14-6.1,21-9.2c53.9-24.1,107.7-48.2,161.6-72.4c33.2-14.9,66.5-29.6,99.6-44.6   c7.7-3.5,14.8-3.2,22.3,0.2c52.9,23.8,105.9,47.5,158.8,71.3c42,18.8,84.1,37.6,126.1,56.4c8.8,3.9,13.1,10.9,13.8,20.3   c0.2,2.3,0.1,4.7,0.1,7c0,118.2,0,236.3-0.1,354.5c0,5.7,1.6,8.8,7.2,11.3c46.7,20.5,93.3,41.5,139.9,62.3   c41.7,18.7,83.4,37.5,125.2,56c11.2,4.9,15.9,12.6,15.9,24.8c-0.2,125.2-0.2,250.3,0,375.5c0,13.9-5.7,22.1-18.3,27.6   c-44.6,19.6-89,39.7-133.5,59.6c-46.6,20.8-93.2,41.6-139.8,62.4c-4.2,1.9-8.7,3.2-12.9,5.1c-5.6,2.5-11,0.8-15.9-1.4   c-25.6-11.2-51-22.8-76.5-34.2c-40.8-18.2-81.7-36.4-122.5-54.6c-25-11.2-50-22.6-75.1-33.6c-2.1-0.9-5.3-0.9-7.4,0   c-34.1,15-68.1,30.3-102.1,45.5c-32.5,14.5-64.9,29.1-97.4,43.6c-24.9,11.1-49.8,22.3-74.6,33.5c-7.5,3.4-14.6,2.7-22-0.6   c-30.4-13.8-61-27.3-91.4-41c-32.5-14.5-64.9-29.2-97.3-43.7c-26.9-12-53.8-23.9-80.6-35.9c-4.9-2.2-9.7-4.5-14.5-6.6   c-9.8-4.2-14.5-11.7-14.5-22.3c0-18,0-36,0-54C51.8,1218.6,51.8,1173.1,51.8,1127.6z M916,626.2c0-6.2,0-12.3,0-18.5   c0-47.5,0-95,0-142.5c0-6.4-1.2-7.3-6.4-4.9c-30.2,13.5-60.4,27-90.6,40.5c-46.6,20.8-93.2,41.8-139.8,62.5   c-5.1,2.3-7.3,5.1-7.1,10.9c0.4,15.7,0.5,31.3,0,47c-0.7,20.9-19.6,26.5-33.3,19.4c-7.6-3.9-10.6-11.3-10.7-19.6   c-0.2-16.2-0.2-32.3,0-48.5c0.1-4.6-1.8-7.1-5.8-8.8c-26.3-11.7-52.5-23.4-78.8-35.1c-50-22.3-99.9-44.5-149.9-66.7   c-9.5-4.2-9.6-4.1-9.6,6c0,105.5,0,211,0,316.5c0,1.3-0.4,2.9,0.1,4c1.2,2.3,2.3,5.5,4.3,6.4c24.3,11.2,48.8,22.1,73.2,33   c41.4,18.5,82.9,37,124.4,55.5c12,5.4,24,10.7,36,16c4.3,1.9,5.6,1.1,5.9-3.7c0.1-1.7,0-3.3,0-5c0-18.7-0.2-37.3,0.1-56   c0.3-16.6,15.2-26.5,30.7-20.6c7.9,3,13.3,11.2,13.3,21.1c0.1,19,0,38,0.1,57c0,1.7-0.1,3.3,0.1,5c0.3,3.3,2,4.3,5.1,2.9   c12.4-5.7,24.8-11.3,37.2-16.8c33.8-15.2,67.6-30.4,101.5-45.5c31.1-13.9,62.1-28,93.4-41.6c5.2-2.3,6.7-5.2,6.7-10.6   C916,732.2,916,679.2,916,626.2z M383.9,1245.5C383.9,1245.5,383.9,1245.5,383.9,1245.5c0.1,53.7,0.1,107.3,0.1,161   c0,6.7,1.4,7.5,7.3,4.8c22-9.9,43.9-19.8,65.9-29.7c54-24.2,107.9-48.4,162.1-72.2c6.5-2.9,8.8-6.2,8.8-13.3   c-0.2-105.1-0.2-210.3-0.2-315.4c0-1.7,0-3.3-0.1-5c-0.2-3.8-1.8-4.9-5.6-3.2c-35.6,16.1-71.3,32.1-106.9,48   c-42.3,18.9-84.7,37.8-127.1,56.7c-3.1,1.4-4.4,3.4-4.4,7C383.9,1137.9,383.9,1191.7,383.9,1245.5z M1204.1,1138.6   c0-53.1,0-106.3,0-159.4c0-1.2,0.1-2.3,0-3.5c-0.3-4.2-1.6-5-5.4-3.3c-27.8,12.4-55.6,24.8-83.3,37.2   c-47.9,21.5-95.7,43.3-143.9,64.3c-8.8,3.8-11.7,8-11.6,17.7c0.5,93.3,0.3,186.6,0.3,279.9c0,11.8-0.1,23.7,0,35.5   c0,6,1.6,6.9,6.9,4.5c28.4-12.7,56.7-25.4,85.1-38.1c48.4-21.7,96.7-43.4,145.2-64.9c4.9-2.2,6.9-4.9,6.9-10.5   C1204,1244.9,1204.1,1191.8,1204.1,1138.6z M95.9,1138.5c0,53,0.1,106-0.1,159c0,6,2,8.9,7.3,11.2c27.4,12,54.7,24.3,82,36.5   c48.4,21.6,96.8,43.3,145.3,64.9c9.4,4.2,9.6,4,9.6-6.5c0-92.6,0-185.3,0-277.9c0-14,0.1-28,0.3-42c0-3.4-1.5-5.2-4.4-6.5   c-25.4-11.3-50.7-22.5-76-33.9c-52.8-23.6-105.5-47.3-158.3-71c-3.7-1.7-5.2-0.8-5.5,3.3c-0.1,1.2,0,2.3,0,3.5   C95.9,1032.2,95.9,1085.3,95.9,1138.5z M916,1246c0,0,0.1,0,0.1,0c0-54.1,0-108.3-0.2-162.4c0-2.1-1.8-5.3-3.6-6.2   c-14.3-6.7-28.7-13-43.2-19.5c-32.3-14.4-64.6-28.8-96.9-43.3c-30.2-13.5-60.3-27.1-90.5-40.5c-9.5-4.2-9.7-4-9.7,6.5   c0,105.1,0,210.2,0,315.4c0,1.7-0.5,3.5,0.2,4.9c0.9,2.2,2.2,4.8,4.1,6c3.6,2.3,7.8,3.7,11.7,5.5c32.3,14.5,64.6,28.9,96.9,43.4   c27.2,12.1,54.3,24.2,81.5,36.4c14.4,6.5,28.8,13,43.2,19.5c4.8,2.2,6.2,1.2,6.3-4.2c0-1,0-2,0-3C916,1351.7,916,1298.8,916,1246z    M362,831.6c-1.7,0.6-3.5,1-5.2,1.7c-35.4,15.8-70.7,31.7-106,47.5c-37.9,17-75.9,33.9-113.8,50.9c-2.1,0.9-3.7,2.9-5.6,4.4   c1.8,1.3,3.5,2.9,5.5,3.8c25.3,11.4,50.7,22.6,76,33.9c47.9,21.5,95.8,43.1,143.8,64.4c2.7,1.2,6.7,1.4,9.4,0.3   c14.7-6.1,29.2-12.8,43.8-19.4c34.3-15.4,68.5-30.8,102.8-46.1c25-11.2,50.1-22.3,75.1-33.6c1.7-0.7,2.9-2.3,4.4-3.5   c-1.4-1.3-2.7-2.9-4.3-3.7c-37.1-16.7-74.3-33.3-111.5-49.9c-36.1-16.2-72.2-32.3-108.3-48.5C366.3,833,364.2,832.4,362,831.6z    M937.7,1040.2c2.1-0.6,3.9-1,5.5-1.8c30.2-13.5,60.4-27,90.6-40.5c35.9-16.1,71.9-32.2,107.8-48.3c8.2-3.7,16.3-7.4,24.5-11.2   c3.4-1.6,3.4-3.4,0.2-5.2c-0.9-0.5-1.7-1-2.6-1.4c-42.2-18.9-84.3-37.8-126.5-56.7c-30.9-13.9-61.9-27.7-92.8-41.5   c-3.4-1.5-6.7-2.4-10.5-0.7c-21.8,9.9-43.7,19.6-65.5,29.4c-23.4,10.5-46.7,21-70.1,31.5c-28.8,12.9-57.7,25.7-86.5,38.6   c-1.5,0.7-2.7,2.2-4,3.4c1.3,1.1,2.4,2.6,3.9,3.2c21.8,9.9,43.6,19.7,65.5,29.5c48.4,21.7,96.8,43.3,145.2,65   C927.4,1035.8,932.6,1038,937.7,1040.2z M649.8,527.7c1.3-0.4,2.3-0.6,3.2-1c28.2-12.6,56.4-25.2,84.6-37.8   c28.7-12.8,57.3-25.7,86-38.5c17.8-7.9,35.6-15.7,53.3-23.7c1.3-0.6,2.8-2.2,2.9-3.4c0.1-1-1.7-2.6-3-3.2   c-29.2-13.2-58.5-26.3-87.8-39.4c-45.1-20.1-90.1-40.3-135.3-60.2c-2.1-0.9-5.3-0.8-7.5,0.1c-6.5,2.5-12.8,5.6-19.2,8.5   c-41.1,18.4-82.3,36.8-123.4,55.2c-26.6,11.9-53.1,23.7-79.6,35.7c-1.6,0.7-2.8,2.3-4.1,3.5c1.2,1.2,2.3,2.9,3.7,3.5   c29.4,13.3,58.8,26.4,88.3,39.6c41.7,18.7,83.5,37.4,125.2,56C641.5,524.3,645.7,526,649.8,527.7z"
   id="path2"
   style="fill:#255ec6;fill-opacity:1" />
	<path
   d="M650.3,705.9c12.7-0.8,21.8,10.3,21.7,21.7c-0.1,11.1-8.9,21.8-22.2,21.4c-12.2-0.4-21.8-9.3-21.7-21.4   C628.1,716.3,636.8,704.9,650.3,705.9z"
   id="path4"
   style="fill:#255ec6;fill-opacity:1" />
</g>
</svg>