<?xml version="1.0" encoding="utf-8"?>
<!-- Generator: Adobe Illustrator 21.1.0, SVG Export Plug-In . SVG Version: 6.00 Build 0)  -->
<svg version="1.1" id="Layer_1" xmlns="http://www.w3.org/2000/svg" xmlns:xlink="http://www.w3.org/1999/xlink" x="0px" y="0px"
	 viewBox="0 0 1296 1728" style="width: 1728; height: 1728; enable-background:new 0 0 1296 1728;" xml:space="preserve">
<style type="text/css">
	.st0{fill:#F2DFD5;}
	.st1{fill:#BE0812;}
</style>
<g>
	<path class="st0" d="M910,854.7c-0.2,0.4-0.6,0.7-0.6,1.1c1,15.7-15.5,22.6-29.6,17.3c-9.8-3.7-16.3-10.6-21.4-19.2
		c-0.5-4.9-3.1-9.2-4.3-13.9c-4.9-18.6-9.8-37.1-14.7-55.7c-6.3-24.2-12.6-48.4-18.9-72.7c15.2,0,30.4,0,45.6,0
		c9.9,32,19.7,64.1,29.6,96.1C900.3,823.4,905.2,839,910,854.7z"/>
	<path class="st0" d="M1090,711.6c14.1,0,28.2,0,42.2-0.1c2,0,3.3,0.5,4.4,2.4c15.7,27.1,31.5,54.1,47.2,81.1
		c10.2,17.4,20.4,34.8,30.5,52.2c2.1,3.6,3.7,7.5,4.6,11.6c1.7,8.2-4.2,15.6-12.7,16c-11.2,0.6-20.5-4.1-29.1-10.7
		c-3.1-2.4-6.2-4.7-8.3-8.1c-0.5-0.8-1.4-1.4-2.5-1.3c-1-2.1-1.9-4.3-3-6.4c-11.4-21.2-22.9-42.3-34.3-63.5
		C1116,760.4,1103.1,736,1090,711.6z"/>
	<path class="st0" d="M499.2,842.1c-1.9,1.5-1,3.6-1,5.5c0,10.6-5.2,18.4-13.9,23.5c-9.5,5.6-19.2,5.3-28.6-1.2
		c-3.6-2.5-5.3-6.3-7.2-10c-0.6-1.1-0.5-2.9-2.5-2.9c0.6-2.9,1.7-5.5,1.9-8.5c1.7-27.9,5.4-55.6,8-83.5c1.7-17.9,3.5-35.7,5.3-53.5
		c13.4,0,26.8,0.1,40.3-0.2c2.9-0.1,4.2,0.9,5,3.4c0,1,0.1,1.9,0.1,2.9c-2,36.1-3.9,72.1-6.1,108.2
		C500.1,831.3,500.5,836.8,499.2,842.1z"/>
	<path class="st1" d="M138.1,853.8c-6.9,10.9-16.3,18.2-29.1,20.6c-10.8,2-19.7-3-21.6-12.1c-1-4.7,0-9.2,2-13.4
		c13.7-30,25.7-60.7,38.7-91c6.1-14.3,12.2-28.7,18.1-43.1c1-2.4,2.1-3.4,4.8-3.3c13.8,0.2,27.6,0.1,41.4,0.2
		c-0.4,1.2-0.8,2.4-1.2,3.5C173.3,761.2,157.7,808.3,138.1,853.8z"/>
	<path class="st1" d="M499.2,842.1c1.2-5.3,0.9-10.8,1.2-16.2c2.2-36.1,4.1-72.1,6.1-108.2c0.1-1,0-1.9-0.1-2.9
		c-0.3-2.6,0.9-3.4,3.5-3.4c13.9,0.2,27.8,0.1,41.7,0.1c-0.3,30.8-0.4,61.5-0.8,92.3c-0.2,17.2,0.6,34.5-1.5,51.7
		c-5.7,15.5-20.1,22.8-34.4,17.7c-9.6-3.5-15.8-12.1-15.9-22.3C499,848,499.2,845.1,499.2,842.1z"/>
	<path class="st1" d="M461.3,711.5c-1.8,17.8-3.6,35.7-5.3,53.5c-2.6,27.8-6.3,55.6-8,83.5c-0.2,3-1.4,5.7-1.9,8.5
		c-4.5,8.8-11.2,14.8-21,17c-15.1,3.4-27.1-5-29.1-20.2c0.1-1.9,0-3.9,0.3-5.8c3.2-21.4,6.4-42.7,9.6-64.1
		c3.6-24.1,7-48.3,10.5-72.4C431.3,711.6,446.3,711.5,461.3,711.5z"/>
	<path class="st1" d="M241.3,853.9c-6,11.1-14.9,18.2-27.4,20.5c-11.7,2.1-24.2-3.6-23.9-18.8c2.9-11.9,7.6-23.2,11.4-34.8
		c11.8-36.4,23.8-72.8,35.8-109.2c15,0,29.9,0,44.9,0c-2.7,9.8-5.4,19.6-8.2,29.3C262.9,778.5,253.1,816.5,241.3,853.9z"/>
	<path class="st1" d="M326.7,711.6c15,0,29.9,0,44.9,0c0,0.3,0,0.6,0,0.8c-6.7,34.8-13.3,69.7-20.1,104.4
		c-2.3,11.5-3.7,23.2-7.2,34.5c-4,11.8-12,19.6-24.1,22.6c-15.2,3.7-26.2-4.5-27.2-20.1c3.2-13.6,6.5-27.3,9.7-40.9
		C310.7,779.1,318.7,745.4,326.7,711.6z"/>
	<path class="st1" d="M820.4,711.6c6.3,24.2,12.6,48.5,18.9,72.7c4.9,18.6,9.8,37.1,14.7,55.7c1.2,4.7,3.8,9,4.3,13.9
		c0.6,16.9-14.6,24.2-29,19.6c-10.6-3.3-18.1-10.2-22.4-20.4c-3.1-7.8-4.3-16-6-24.1c-8.5-39.1-17-78.2-25.5-117.4
		C790.5,711.6,805.4,711.6,820.4,711.6z"/>
	<path class="st1" d="M685.9,711.5c14.9,0,29.9,0,44.8,0.1c0.4,2.3,0.7,4.7,1.1,7c5.7,33.3,11.5,66.6,17.2,100
		c2,11.8,4.2,23.5,6.3,35.3c-1.5,15.8-14.8,24.5-30.4,19.7c-10.4-3.2-17.4-10.2-20.9-20.6c-0.5-3.1-1.2-6.3-1.6-9.4
		c-3.3-25.4-6.5-50.8-9.7-76.2C690.5,748.8,688.2,730.2,685.9,711.5z"/>
	<path class="st1" d="M955.6,711.6c15,0,29.9,0,44.9,0c13.6,30.7,27.2,61.3,40.8,92c7.7,17.3,15.2,34.6,22.8,51.9
		c1.9,16.5-11.1,20.9-21.8,18.8c-12.9-2.4-22.5-9.8-29.6-20.7c-1.4-3.2-2.9-6.3-4.2-9.5C990.8,800,973.2,755.8,955.6,711.6z"/>
	<path class="st1" d="M596.3,711.5c14.9,0,29.9,0.1,44.8,0.1c0.4,5,0.7,10,1.1,15c1.5,18.6,3,37.2,4.5,55.7
		c1.9,23.6,3.8,47.1,5.6,70.7c-2.3,12.7-9.9,20.4-21.4,21.6c-11.7,1.2-23.3-5.6-27.9-16.4c-0.4-0.9-0.7-1.8-1.1-2.7
		c-0.5-3.4-0.9-6.9-1-10.4c-0.6-17.5-1.3-35.1-1.9-52.6C598.1,765.5,597.2,738.5,596.3,711.5z"/>
	<path class="st1" d="M910,854.7c-4.8-15.7-9.6-31.3-14.5-47c-9.9-32-19.7-64.1-29.6-96.1c15,0,29.9,0,44.9,0
		c5.5,15.8,11.2,31.5,16.6,47.3c10.7,31.4,23,62.3,32.6,94.1c2.7,15.2-8.7,23.9-23,21.3C925,872.1,916.1,865.2,910,854.7z"/>
	<path class="st1" d="M1090,711.6c13,24.4,26,48.8,39,73.2c11.4,21.2,22.9,42.3,34.3,63.5c1.1,2.1,2,4.2,3,6.4
		c0.1,0.7,0.2,1.4,0.3,2.1c2.2,10.3-3.5,17.8-14,18c-13.9,0.2-24.6-6.6-33.8-16.4c-1.2-1.3-2.3-2.8-3.4-4.2
		c-2.7-5.2-5.5-10.3-8-15.5c-20.8-42.3-41.5-84.7-62.2-127C1060.2,711.6,1075.1,711.6,1090,711.6z"/>
	<path class="st0" d="M960.1,853c-9.6-31.8-21.9-62.7-32.6-94.1c-5.4-15.8-11.1-31.5-16.6-47.3c14.9,0,29.8,0,44.8,0
		c17.6,44.2,35.2,88.4,52.9,132.6c1.3,3.2,2.8,6.3,4.2,9.5c-0.1,1.4-0.4,2.8-0.3,4.2c1,9.3-7.4,16.8-16.7,16.9
		c-14.7,0.1-25.2-7.5-33.4-18.9C961.6,854.9,961.4,853.5,960.1,853z"/>
	<path class="st0" d="M755.4,853.9c-2.1-11.8-4.3-23.5-6.3-35.3c-5.8-33.3-11.5-66.6-17.2-100c-0.4-2.3-0.7-4.7-1.1-7
		c14.9,0,29.9,0,44.8-0.1c8.5,39.1,16.9,78.3,25.5,117.4c1.8,8.1,2.9,16.4,6,24.1c-1.4,2.5-0.5,5.4-1.5,8.1
		c-4.2,11.4-17.3,16.7-29.7,12.3C766,869.8,759.9,862.8,755.4,853.9z"/>
	<path class="st0" d="M1045.2,711.6c20.7,42.3,41.4,84.7,62.2,127c2.6,5.2,5.4,10.3,8,15.5c0,1.1-0.2,2.2-0.1,3.3
		c1.3,13.1-9.4,19.3-21.4,17c-11.8-2.2-21.2-8.5-28.5-18c-0.3-0.4-0.9-0.6-1.4-0.9c-7.6-17.3-15.2-34.6-22.8-51.9
		c-13.6-30.7-27.2-61.4-40.8-92C1015.4,711.6,1030.3,711.6,1045.2,711.6z"/>
	<path class="st0" d="M237.1,711.6c-11.9,36.4-24,72.7-35.8,109.2c-3.7,11.6-8.5,22.9-11.4,34.8c-5,7.4-11.5,13.1-19.8,16.6
		c-6.8,2.8-13.8,4-21,1.2c-6.1-2.4-10-7.8-10.2-14.3c-0.1-1.7,0.8-3.6-0.8-5.1c19.6-45.5,35.1-92.6,53.1-138.7
		c0.5-1.2,0.8-2.4,1.2-3.5C207.3,711.6,222.2,711.6,237.1,711.6z"/>
	<path class="st0" d="M652.4,853c-1.9-23.6-3.8-47.1-5.6-70.7c-1.5-18.6-3-37.2-4.5-55.7c-0.4-5-0.7-10-1.1-15
		c14.9,0,29.9-0.1,44.8-0.1c2.3,18.6,4.6,37.3,7,55.9c3.2,25.4,6.4,50.8,9.7,76.2c0.4,3.2,1,6.3,1.6,9.4c-1.6,4.6-2.1,9.7-5.6,13.6
		c-11.3,12.9-30.4,9.4-40.2-2.3C655.5,860.9,654.2,856.9,652.4,853z"/>
	<path class="st0" d="M326.7,711.6c-8,33.8-16,67.6-24.1,101.4c-3.2,13.6-6.5,27.3-9.7,40.9c-5.4,10.6-13.6,17.7-25.5,20.3
		c-12.3,2.7-25.3-3.5-25.5-18.5c0-0.6-0.5-1.2-0.7-1.9c11.9-37.4,21.6-75.4,32.6-113c2.8-9.7,5.5-19.5,8.2-29.3
		C296.9,711.6,311.8,711.6,326.7,711.6z"/>
	<path class="st0" d="M344.3,851.3c3.5-11.3,5-23,7.2-34.5c6.9-34.8,13.5-69.6,20.1-104.4c0.1-0.3,0-0.6,0-0.8c14.9,0,29.8,0,44.7,0
		c-3.5,24.1-7,48.3-10.5,72.4c-3.2,21.4-6.4,42.7-9.6,64.1c-0.3,1.9-0.2,3.9-0.3,5.8c-4.6,10.5-12.1,17.6-23.5,20.3
		c-14.1,3.4-28-6-27.4-20.5C345,852.8,345,851.9,344.3,851.3z"/>
	<path class="st0" d="M596.3,711.5c0.9,27,1.8,54,2.8,81c0.6,17.5,1.4,35.1,1.9,52.6c0.1,3.5,0.5,6.9,1,10.4c-1.3,0-1.5,0.9-1.8,1.9
		c-3.9,10.6-11.5,16.6-22.7,17.3c-12.4,0.7-20.9-5.2-26-16.4c-0.5-1-0.3-2.7-2.1-2.7c2.1-17.2,1.2-34.5,1.5-51.7
		c0.4-30.8,0.6-61.5,0.8-92.3C566.6,711.5,581.4,711.5,596.3,711.5z"/>
</g>
</svg>
